<svg id="svg" version="1.1" xmlns="http://www.w3.org/2000/svg" xmlns:xlink="http://www.w3.org/1999/xlink" width="400" height="400" viewBox="0, 0, 400,400"><g id="svgg"><path id="path0" d="M169.514 57.242 C 167.157 57.424,162.974 57.943,160.219 58.397 C 155.226 59.219,154.517 59.377,153.000 60.003 C 151.867 60.471,147.512 61.251,144.089 61.599 C 142.273 61.784,140.898 62.149,140.435 62.568 C 140.026 62.938,139.176 63.288,138.546 63.346 C 137.916 63.405,137.442 63.656,137.493 63.906 C 137.545 64.156,137.401 65.314,137.173 66.480 C 136.528 69.787,136.564 80.407,137.222 80.814 C 137.844 81.198,141.699 80.830,142.013 80.357 C 142.881 79.045,160.885 84.397,162.980 86.589 C 163.431 87.061,164.970 87.857,166.400 88.356 C 171.773 90.233,183.128 97.624,181.517 98.195 C 179.941 98.754,177.098 99.182,174.900 99.190 C 173.525 99.196,172.400 99.364,172.400 99.565 C 172.400 99.766,170.774 100.152,168.787 100.423 C 166.801 100.695,165.080 101.071,164.964 101.259 C 164.848 101.446,164.227 101.600,163.584 101.600 C 162.942 101.600,161.287 102.034,159.908 102.564 C 158.529 103.094,155.510 104.031,153.200 104.647 C 150.890 105.262,148.856 105.999,148.680 106.283 C 148.194 107.069,146.485 106.905,146.014 106.027 C 145.787 105.602,145.241 105.140,144.800 105.000 C 144.360 104.860,144.000 104.488,144.000 104.173 C 144.000 103.858,143.645 103.600,143.210 103.600 C 142.737 103.600,142.172 103.119,141.800 102.400 C 141.459 101.740,140.914 101.200,140.590 101.200 C 140.265 101.200,140.000 101.059,140.000 100.888 C 140.000 100.388,137.469 99.571,137.091 99.949 C 136.618 100.422,136.454 114.688,136.903 116.355 C 137.175 117.366,137.133 117.794,136.737 118.039 C 136.332 118.289,136.317 118.477,136.675 118.835 C 137.032 119.192,137.031 119.492,136.671 120.104 C 136.304 120.727,136.311 120.945,136.700 121.086 C 136.975 121.185,137.200 121.612,137.200 122.033 C 137.200 122.469,137.476 122.800,137.838 122.800 C 138.895 122.800,140.659 124.295,141.369 125.792 C 141.737 126.566,142.260 127.200,142.533 127.200 C 142.805 127.200,143.340 127.729,143.722 128.376 C 144.105 129.023,145.122 130.286,145.984 131.183 C 146.845 132.080,147.664 133.171,147.802 133.607 C 147.941 134.043,148.291 134.400,148.580 134.400 C 149.173 134.400,153.600 139.426,153.600 140.098 C 153.600 140.337,153.862 140.818,154.183 141.166 C 156.468 143.649,157.600 145.204,157.600 145.860 C 157.600 146.279,157.960 146.930,158.400 147.307 C 158.840 147.684,159.200 148.264,159.200 148.596 C 159.200 148.928,159.449 149.200,159.753 149.200 C 160.470 149.200,162.238 151.532,163.244 153.807 C 163.680 154.793,164.221 155.600,164.446 155.600 C 164.672 155.600,164.741 155.957,164.600 156.400 C 164.420 156.968,164.528 157.200,164.973 157.200 C 165.318 157.200,165.600 157.470,165.600 157.800 C 165.600 158.130,165.862 158.400,166.181 158.400 C 166.705 158.400,167.592 160.591,167.598 161.900 C 167.599 162.175,167.870 162.400,168.200 162.400 C 168.530 162.400,168.800 162.657,168.800 162.971 C 168.800 163.286,169.096 163.839,169.458 164.200 C 170.579 165.322,171.881 167.427,172.370 168.910 C 172.628 169.691,173.100 170.430,173.419 170.552 C 173.739 170.675,174.000 171.036,174.000 171.354 C 174.000 171.673,174.152 171.993,174.338 172.067 C 174.523 172.140,175.625 174.304,176.785 176.876 C 177.946 179.447,179.134 181.643,179.426 181.755 C 179.717 181.866,180.072 182.642,180.213 183.479 C 180.630 185.946,180.821 186.400,181.447 186.400 C 181.774 186.400,182.312 187.075,182.644 187.900 C 182.975 188.725,183.587 190.120,184.002 191.000 C 184.417 191.880,185.207 194.040,185.757 195.800 C 187.591 201.668,188.548 204.197,189.048 204.504 C 189.321 204.672,189.747 205.842,189.994 207.104 C 190.241 208.367,190.784 210.570,191.200 212.000 C 192.037 214.874,192.339 226.943,191.585 227.409 C 191.373 227.540,191.200 228.083,191.200 228.616 C 191.200 230.310,189.987 232.800,189.161 232.800 C 188.591 232.800,188.346 233.194,188.149 234.429 C 187.965 235.581,187.550 236.309,186.733 236.913 C 186.098 237.382,185.662 237.986,185.765 238.254 C 185.868 238.522,185.693 238.957,185.376 239.220 C 185.059 239.483,184.800 239.946,184.800 240.249 C 184.800 240.552,184.530 240.800,184.200 240.800 C 183.870 240.800,183.600 240.980,183.600 241.200 C 183.600 241.420,183.330 241.600,183.000 241.600 C 182.670 241.600,182.400 241.852,182.400 242.161 C 182.400 242.469,181.860 242.910,181.200 243.140 C 180.540 243.370,180.000 243.809,180.000 244.116 C 180.000 244.682,178.619 245.509,175.900 246.573 C 175.075 246.895,174.400 247.435,174.400 247.772 C 174.400 248.115,173.916 248.491,173.300 248.626 C 172.695 248.758,171.390 249.134,170.400 249.461 C 164.449 251.428,154.462 250.198,145.855 246.439 C 143.171 245.267,138.800 242.340,138.800 241.715 C 138.800 241.432,138.549 241.200,138.241 241.200 C 137.934 241.200,137.095 240.525,136.376 239.700 C 135.657 238.875,134.858 238.110,134.600 238.000 C 133.907 237.704,129.566 232.745,129.086 231.700 C 128.858 231.205,128.376 230.800,128.016 230.800 C 127.152 230.800,126.400 230.018,126.400 229.120 C 126.400 228.724,126.216 228.400,125.990 228.400 C 125.765 228.400,125.409 227.950,125.200 227.400 C 124.991 226.850,124.639 226.400,124.418 226.400 C 124.196 226.400,123.902 225.950,123.764 225.400 C 123.626 224.850,123.263 224.400,122.957 224.400 C 122.650 224.400,122.400 224.083,122.400 223.695 C 122.400 223.307,121.995 222.812,121.500 222.595 C 121.005 222.378,120.411 221.616,120.181 220.903 C 119.950 220.190,119.483 219.380,119.143 219.103 C 118.802 218.826,118.294 218.015,118.013 217.300 C 117.722 216.557,117.217 216.000,116.836 216.000 C 116.393 216.000,115.449 214.594,114.019 211.800 C 112.836 209.490,111.673 207.597,111.434 207.593 C 110.838 207.583,108.137 202.899,107.806 201.300 C 107.658 200.585,107.326 200.000,107.068 200.000 C 106.526 199.999,103.200 194.021,103.200 193.046 C 103.200 192.687,102.840 192.084,102.400 191.707 C 101.960 191.330,101.600 190.811,101.600 190.554 C 101.600 190.296,101.353 189.991,101.050 189.875 C 100.748 189.759,100.375 188.829,100.222 187.809 C 100.063 186.745,99.691 185.856,99.352 185.726 C 98.565 185.424,95.600 179.200,95.600 177.852 C 95.600 177.269,95.246 176.489,94.813 176.118 C 94.380 175.747,93.525 173.859,92.913 171.923 C 92.301 169.986,91.601 168.401,91.358 168.401 C 90.917 168.400,89.485 163.941,89.013 161.100 C 88.870 160.241,88.536 159.600,88.231 159.600 C 87.937 159.600,87.517 158.925,87.296 158.100 C 87.076 157.275,86.425 155.007,85.849 153.059 C 85.273 151.112,84.612 148.326,84.379 146.869 C 84.146 145.412,83.804 144.125,83.618 144.010 C 82.064 143.046,81.035 124.766,82.310 120.800 C 82.558 120.030,83.163 117.195,83.656 114.500 C 84.262 111.180,84.720 109.600,85.076 109.600 C 85.364 109.600,85.600 109.330,85.600 109.000 C 85.600 108.670,85.780 108.400,86.000 108.400 C 86.220 108.400,86.400 108.040,86.400 107.600 C 86.400 107.160,86.580 106.800,86.800 106.800 C 87.020 106.800,87.200 106.530,87.200 106.200 C 87.200 105.870,87.522 105.600,87.915 105.600 C 88.309 105.600,89.344 105.234,90.215 104.787 C 94.131 102.777,105.160 101.360,108.247 102.471 L 109.957 103.085 110.184 100.843 C 110.309 99.609,110.559 97.648,110.740 96.483 C 110.939 95.206,110.920 94.274,110.692 94.133 C 110.465 93.993,110.486 93.794,110.744 93.635 C 111.041 93.451,111.006 93.048,110.631 92.325 C 110.298 91.683,110.167 90.594,110.290 89.499 C 110.401 88.513,110.286 87.334,110.031 86.859 C 109.709 86.256,109.701 86.000,110.006 86.000 C 110.245 86.000,110.702 85.376,111.020 84.613 C 111.658 83.087,111.804 80.400,111.249 80.400 C 111.055 80.400,110.715 79.680,110.491 78.800 C 110.162 77.504,110.191 77.200,110.643 77.200 C 111.013 77.200,111.200 76.730,111.200 75.800 C 111.200 74.667,111.048 74.400,110.400 74.400 C 109.960 74.400,109.597 74.175,109.594 73.900 C 109.590 73.573,109.486 73.545,109.294 73.819 C 109.132 74.050,108.238 74.462,107.307 74.734 C 106.375 75.006,105.415 75.598,105.174 76.049 C 104.846 76.661,104.488 76.808,103.767 76.627 C 103.062 76.451,102.800 76.549,102.800 76.992 C 102.800 77.399,102.408 77.600,101.617 77.600 C 100.783 77.600,99.936 78.073,98.752 79.200 C 97.827 80.080,96.694 80.803,96.235 80.807 C 95.430 80.814,92.543 82.482,91.100 83.773 C 90.715 84.118,90.170 84.400,89.889 84.400 C 89.227 84.400,82.800 89.478,82.800 90.001 C 82.800 90.220,82.530 90.400,82.200 90.400 C 81.870 90.400,81.600 90.578,81.600 90.795 C 81.600 91.012,80.870 91.650,79.979 92.213 C 78.721 93.008,78.413 93.412,78.606 94.018 C 78.776 94.556,78.667 94.800,78.256 94.800 C 76.935 94.800,73.493 101.891,72.383 106.900 C 72.061 108.353,71.668 109.200,71.316 109.200 C 70.935 109.200,70.868 109.392,71.103 109.812 C 71.302 110.167,71.237 111.638,70.950 113.312 C 70.677 114.900,70.345 117.820,70.211 119.800 C 70.077 121.780,69.773 125.284,69.535 127.587 C 69.053 132.259,69.886 144.673,71.012 149.600 C 71.339 151.030,71.605 152.706,71.603 153.325 C 71.598 154.955,73.274 162.000,73.667 162.000 C 73.850 162.000,74.003 162.495,74.006 163.100 C 74.016 164.952,75.577 170.573,76.214 171.049 C 76.544 171.296,76.708 171.774,76.579 172.110 C 76.450 172.447,76.717 173.540,77.172 174.539 C 77.627 175.538,78.000 176.681,78.000 177.078 C 78.000 177.475,78.512 178.881,79.137 180.202 C 79.762 181.523,80.507 183.323,80.793 184.202 C 81.079 185.081,81.558 185.944,81.857 186.120 C 82.155 186.296,82.400 186.895,82.400 187.450 C 82.400 188.570,87.039 197.614,87.873 198.120 C 88.163 198.296,88.400 198.870,88.400 199.396 C 88.400 199.922,88.580 200.464,88.800 200.600 C 89.020 200.736,89.200 201.197,89.200 201.624 C 89.200 202.051,89.452 202.400,89.760 202.400 C 90.102 202.400,90.508 203.181,90.800 204.401 C 91.064 205.502,91.447 206.505,91.650 206.631 C 91.854 206.757,92.642 208.095,93.403 209.606 C 94.164 211.117,95.025 212.498,95.317 212.676 C 95.608 212.854,96.076 213.568,96.356 214.262 C 96.636 214.956,97.211 215.614,97.633 215.724 C 98.099 215.846,98.400 216.274,98.400 216.815 C 98.400 217.893,99.881 220.394,100.533 220.416 C 100.790 220.425,101.584 221.701,102.298 223.253 C 103.136 225.075,103.880 226.148,104.398 226.284 C 104.848 226.401,105.200 226.829,105.200 227.259 C 105.200 227.680,106.100 228.948,107.200 230.077 C 108.300 231.207,109.200 232.371,109.200 232.665 C 109.200 232.959,109.426 233.200,109.702 233.200 C 109.979 233.200,110.455 233.766,110.761 234.457 C 111.083 235.184,111.799 235.896,112.460 236.145 C 113.088 236.382,113.702 236.892,113.825 237.278 C 113.947 237.663,114.487 238.325,115.024 238.747 C 115.561 239.170,116.000 239.804,116.000 240.158 C 116.000 240.511,116.270 240.800,116.600 240.800 C 116.930 240.800,117.200 241.039,117.200 241.330 C 117.200 241.974,118.866 243.600,119.526 243.600 C 119.787 243.600,120.000 243.780,120.000 244.000 C 120.000 244.220,120.270 244.400,120.600 244.400 C 120.930 244.400,121.200 244.725,121.200 245.122 C 121.200 245.976,123.434 248.202,124.663 248.571 C 125.138 248.714,125.627 249.094,125.750 249.415 C 125.874 249.737,126.251 250.000,126.587 250.000 C 126.924 250.000,127.200 250.270,127.200 250.600 C 127.200 250.930,127.554 251.200,127.986 251.200 C 128.418 251.200,128.958 251.548,129.186 251.973 C 129.413 252.398,129.959 252.860,130.400 253.000 C 130.840 253.140,131.200 253.500,131.200 253.800 C 131.200 254.100,131.569 254.463,132.020 254.606 C 132.471 254.749,133.455 255.482,134.207 256.233 C 134.958 256.985,135.939 257.600,136.387 257.600 C 136.834 257.600,137.200 257.851,137.200 258.158 C 137.200 259.476,143.631 262.688,149.311 264.209 C 157.701 266.454,163.046 266.758,176.443 265.753 L 179.887 265.494 180.143 266.516 C 180.323 267.232,180.828 267.679,181.828 268.009 C 182.613 268.268,183.353 268.732,183.471 269.040 C 183.589 269.348,183.904 269.600,184.171 269.600 C 185.230 269.600,188.129 272.659,190.627 276.412 C 192.075 278.586,193.615 280.478,194.049 280.616 C 194.513 280.763,195.253 281.802,195.840 283.129 C 196.390 284.373,197.101 285.537,197.420 285.715 C 197.739 285.894,198.000 286.294,198.000 286.606 C 198.000 286.917,198.360 287.365,198.800 287.600 C 199.240 287.835,199.600 288.362,199.600 288.771 C 199.600 289.229,199.983 289.609,200.600 289.764 C 201.209 289.917,201.600 290.300,201.600 290.743 C 201.600 291.144,202.024 291.665,202.543 291.901 C 203.119 292.164,203.581 292.807,203.731 293.553 C 203.865 294.225,204.701 295.501,205.588 296.387 C 206.474 297.274,207.200 298.152,207.200 298.338 C 207.200 298.524,207.581 299.019,208.046 299.438 C 208.511 299.857,209.047 300.605,209.236 301.100 C 209.426 301.597,209.921 302.000,210.340 302.000 C 210.874 302.000,211.176 302.378,211.354 303.270 C 211.501 304.005,212.590 305.648,213.938 307.170 C 215.220 308.617,216.760 310.547,217.361 311.460 C 217.962 312.374,218.802 313.212,219.227 313.323 C 219.685 313.443,220.000 313.871,220.000 314.375 C 220.000 314.843,220.270 315.329,220.600 315.455 C 220.930 315.582,221.200 315.900,221.200 316.162 C 221.200 316.424,221.920 317.388,222.800 318.304 C 223.680 319.220,224.400 320.246,224.400 320.585 C 224.400 320.923,224.593 321.200,224.829 321.200 C 225.466 321.200,226.400 322.253,226.400 322.971 C 226.400 323.317,226.580 323.600,226.800 323.600 C 227.020 323.600,227.200 323.876,227.200 324.213 C 227.200 324.549,227.470 324.929,227.800 325.055 C 228.130 325.182,228.400 325.536,228.400 325.843 C 228.400 326.149,228.544 326.400,228.720 326.400 C 228.896 326.400,229.436 327.214,229.919 328.208 C 230.402 329.202,231.248 330.221,231.799 330.472 C 232.439 330.764,232.800 331.256,232.800 331.837 C 232.800 332.395,233.109 332.844,233.600 333.000 C 234.040 333.140,234.400 333.593,234.400 334.007 C 234.400 334.421,234.635 334.904,234.922 335.080 C 235.209 335.256,235.848 336.066,236.342 336.879 C 236.836 337.693,237.591 338.470,238.020 338.606 C 238.449 338.742,238.800 339.195,238.800 339.613 C 238.800 340.030,239.160 340.565,239.600 340.800 C 240.040 341.035,240.400 341.578,240.400 342.005 C 240.400 342.432,240.850 343.076,241.400 343.437 C 241.989 343.823,242.400 344.472,242.400 345.017 C 242.400 345.971,244.074 347.600,245.054 347.600 C 245.738 347.600,245.783 348.396,245.100 348.412 C 244.823 348.419,244.912 348.606,245.300 348.832 C 245.685 349.056,246.000 349.587,246.000 350.011 C 246.000 350.435,246.450 351.076,247.000 351.437 C 247.550 351.797,248.000 352.298,248.000 352.550 C 248.000 352.802,248.349 353.226,248.776 353.492 C 249.203 353.759,249.925 354.819,250.380 355.848 C 250.835 356.877,251.905 358.476,252.758 359.401 C 253.611 360.326,254.432 361.470,254.582 361.942 C 254.731 362.414,255.067 362.805,255.327 362.810 C 255.587 362.816,256.141 363.560,256.558 364.463 C 256.975 365.366,257.640 366.190,258.036 366.293 C 258.495 366.414,258.800 366.932,258.878 367.728 C 258.978 368.749,259.236 369.042,260.300 369.345 C 261.377 369.652,261.600 369.912,261.600 370.858 C 261.600 371.486,261.780 372.000,262.000 372.000 C 262.220 372.000,262.400 372.329,262.400 372.730 C 262.400 373.132,262.869 373.897,263.442 374.430 C 264.016 374.964,265.006 376.153,265.643 377.073 C 266.280 377.994,267.149 378.857,267.573 378.991 C 268.001 379.127,268.458 379.753,268.599 380.397 C 268.740 381.036,269.382 382.223,270.027 383.034 C 270.672 383.846,271.200 384.650,271.200 384.821 C 271.200 385.192,272.574 386.899,274.100 388.423 C 274.705 389.027,275.200 389.809,275.200 390.160 C 275.200 390.533,275.534 390.800,276.000 390.800 C 276.522 390.800,276.800 391.067,276.800 391.567 C 276.800 392.732,277.227 393.600,277.799 393.600 C 278.082 393.600,278.419 394.021,278.548 394.535 C 278.677 395.050,279.597 396.344,280.591 397.413 C 281.586 398.481,282.400 399.500,282.400 399.677 C 282.400 399.855,287.170 400.000,293.000 400.000 C 299.654 400.000,303.600 399.854,303.600 399.608 C 303.600 399.393,302.881 398.268,302.002 397.108 C 301.123 395.949,300.403 394.865,300.402 394.700 C 300.401 394.535,300.175 394.397,299.900 394.394 C 299.625 394.391,298.905 393.491,298.300 392.394 C 297.695 391.297,297.020 390.400,296.800 390.400 C 296.580 390.400,296.400 390.040,296.400 389.600 C 296.400 389.160,296.157 388.800,295.861 388.800 C 295.564 388.800,294.984 388.052,294.572 387.137 C 293.468 384.690,291.711 382.422,290.587 381.995 C 289.892 381.731,289.600 381.316,289.600 380.594 C 289.600 379.937,289.015 378.963,287.973 377.884 C 285.328 375.146,285.200 374.971,285.200 374.089 C 285.200 373.625,284.867 373.010,284.460 372.723 C 284.052 372.435,283.407 371.594,283.025 370.854 C 282.644 370.113,281.987 369.417,281.566 369.307 C 281.145 369.197,280.800 368.829,280.800 368.488 C 280.800 367.606,278.932 364.536,278.232 364.267 C 277.907 364.143,277.338 363.447,276.966 362.721 C 276.595 361.994,275.731 360.768,275.045 359.996 C 274.360 359.224,273.444 357.918,273.008 357.094 C 272.572 356.270,271.897 355.494,271.508 355.371 C 271.119 355.247,270.800 354.805,270.800 354.389 C 270.800 353.972,270.452 353.307,270.026 352.910 C 269.600 352.514,269.065 351.697,268.836 351.095 C 268.607 350.493,268.145 350.000,267.810 350.000 C 267.474 350.000,267.200 349.732,267.200 349.403 C 267.200 349.075,266.840 348.582,266.400 348.307 C 265.960 348.032,265.600 347.621,265.600 347.393 C 265.600 347.164,265.240 346.670,264.800 346.293 C 264.360 345.916,264.000 345.246,264.000 344.804 C 264.000 344.362,263.752 344.000,263.449 344.000 C 263.145 344.000,262.673 343.460,262.400 342.800 C 262.127 342.140,261.691 341.600,261.432 341.600 C 261.173 341.600,260.734 340.973,260.457 340.206 C 260.179 339.439,259.264 337.941,258.424 336.877 C 257.583 335.814,256.617 334.416,256.279 333.772 C 255.940 333.127,254.749 331.707,253.631 330.615 C 252.514 329.523,251.600 328.336,251.600 327.977 C 251.600 327.618,251.214 326.981,250.742 326.562 C 250.269 326.143,249.274 324.855,248.529 323.700 C 247.785 322.545,247.001 321.600,246.788 321.600 C 246.574 321.600,246.400 321.240,246.400 320.800 C 246.400 320.360,246.135 320.000,245.810 320.000 C 245.486 320.000,244.941 319.460,244.600 318.800 C 244.259 318.140,243.804 317.600,243.590 317.600 C 243.375 317.600,243.200 317.240,243.200 316.800 C 243.200 316.360,243.020 316.000,242.800 316.000 C 242.580 316.000,242.400 315.758,242.400 315.462 C 242.400 315.166,242.015 314.581,241.545 314.162 C 241.074 313.743,240.442 312.815,240.139 312.100 C 239.837 311.385,239.419 310.800,239.211 310.800 C 239.004 310.800,238.359 309.990,237.779 309.000 C 237.142 307.914,236.436 307.200,235.997 307.200 C 235.464 307.200,235.200 306.784,235.007 305.639 C 234.822 304.545,234.503 304.016,233.942 303.869 C 233.501 303.754,233.039 303.272,232.916 302.799 C 232.792 302.326,232.282 301.783,231.782 301.593 C 231.220 301.379,230.770 300.775,230.601 300.005 C 230.451 299.321,229.974 298.545,229.541 298.281 C 229.109 298.016,228.374 297.170,227.909 296.400 C 227.444 295.630,226.370 294.100,225.523 293.000 C 224.677 291.900,223.396 290.190,222.679 289.200 C 221.961 288.210,220.975 287.222,220.487 287.005 C 219.999 286.788,219.600 286.321,219.600 285.967 C 219.600 285.613,219.256 285.013,218.837 284.633 C 218.417 284.253,217.862 283.432,217.604 282.809 C 217.346 282.186,216.790 281.586,216.369 281.476 C 215.948 281.366,215.482 280.944,215.332 280.538 C 215.183 280.132,214.822 279.656,214.530 279.480 C 214.239 279.304,214.000 278.899,214.000 278.580 C 214.000 278.261,213.820 278.000,213.600 278.000 C 213.380 278.000,213.200 277.640,213.200 277.200 C 213.200 276.684,212.933 276.400,212.450 276.400 C 211.937 276.400,211.624 276.021,211.460 275.200 C 211.319 274.496,210.968 274.000,210.610 274.000 C 210.274 274.000,210.000 273.761,210.000 273.470 C 210.000 273.178,209.552 272.518,209.004 272.004 C 208.456 271.489,207.277 269.946,206.384 268.575 C 205.491 267.205,204.409 265.991,203.980 265.879 C 203.551 265.767,203.199 265.343,203.199 264.937 C 203.198 264.532,202.840 263.615,202.404 262.900 C 201.968 262.185,201.789 261.600,202.006 261.600 C 202.223 261.600,202.400 261.420,202.400 261.200 C 202.400 260.980,202.139 260.800,201.821 260.800 C 201.116 260.800,199.200 259.085,199.200 258.454 C 199.200 258.204,198.953 258.000,198.650 258.000 C 197.990 258.000,197.600 256.274,197.600 253.350 C 197.600 251.706,197.741 251.200,198.200 251.200 C 198.530 251.200,198.800 250.930,198.800 250.600 C 198.800 250.270,198.966 250.000,199.169 250.000 C 199.372 250.000,199.746 249.370,200.000 248.600 C 200.306 247.674,200.711 247.200,201.199 247.200 C 201.728 247.200,202.123 246.636,202.600 245.200 C 202.965 244.100,203.478 243.200,203.738 243.200 C 203.999 243.200,204.524 242.322,204.906 241.248 C 205.356 239.981,206.090 238.921,206.999 238.228 C 207.770 237.640,208.400 236.898,208.400 236.580 C 208.400 236.242,208.783 236.000,209.315 236.000 C 209.842 236.000,211.611 234.896,213.480 233.400 C 215.267 231.970,217.019 230.800,217.373 230.800 C 217.727 230.800,218.222 230.350,218.473 229.800 C 218.723 229.250,219.215 228.794,219.564 228.787 C 219.914 228.780,220.549 228.510,220.976 228.187 C 221.404 227.864,222.259 227.600,222.876 227.600 C 223.733 227.600,224.000 227.410,224.000 226.800 C 224.000 226.187,224.267 226.000,225.140 226.000 C 225.768 226.000,227.127 225.550,228.162 225.000 C 229.196 224.450,230.294 224.000,230.602 224.000 C 231.552 224.000,233.200 223.099,233.200 222.579 C 233.200 222.308,233.605 221.997,234.100 221.888 C 234.595 221.779,236.147 221.448,237.548 221.152 C 238.950 220.856,240.184 220.385,240.291 220.107 C 240.535 219.472,241.481 219.443,241.688 220.064 C 241.801 220.403,242.341 220.359,243.680 219.903 C 244.994 219.455,245.640 219.400,245.949 219.709 C 246.258 220.018,246.781 220.017,247.790 219.708 C 248.732 219.418,249.200 219.410,249.200 219.683 C 249.200 219.916,249.756 220.007,250.500 219.896 C 251.215 219.788,253.060 220.024,254.600 220.420 C 256.140 220.816,258.300 221.270,259.400 221.429 C 260.500 221.588,262.180 222.051,263.133 222.459 C 264.086 222.866,265.391 223.200,266.033 223.200 C 266.775 223.200,267.200 223.407,267.200 223.769 C 267.200 224.358,268.708 224.967,271.300 225.424 C 272.186 225.581,272.800 225.916,272.800 226.245 C 272.800 226.595,273.243 226.800,274.000 226.800 C 274.660 226.800,275.200 226.977,275.200 227.194 C 275.200 227.411,276.010 227.792,277.000 228.042 C 278.046 228.305,278.800 228.726,278.800 229.047 C 278.800 229.392,279.242 229.600,279.971 229.600 C 280.616 229.600,281.456 229.913,281.838 230.296 C 282.338 230.795,283.362 231.033,285.467 231.139 C 287.479 231.241,288.400 231.446,288.400 231.791 C 288.400 232.444,292.198 233.500,296.593 234.067 C 301.903 234.752,311.598 233.328,311.601 231.862 C 311.601 231.608,312.096 231.381,312.701 231.357 C 313.884 231.311,320.301 226.960,321.575 225.340 C 321.982 224.823,322.514 224.400,322.758 224.400 C 323.001 224.400,323.200 224.212,323.200 223.982 C 323.200 223.340,325.086 221.600,325.782 221.600 C 326.122 221.600,326.400 221.259,326.400 220.843 C 326.400 220.426,326.653 219.988,326.962 219.870 C 327.272 219.751,327.646 219.102,327.794 218.427 C 327.942 217.752,328.242 217.200,328.460 217.200 C 329.213 217.200,330.050 216.004,330.277 214.604 C 330.402 213.832,330.726 213.200,330.996 213.200 C 332.292 213.200,335.165 203.049,335.496 197.300 C 335.608 195.354,335.826 194.400,336.158 194.400 C 336.787 194.400,336.680 191.093,336.044 190.881 C 335.341 190.647,335.528 190.001,336.300 189.994 C 336.856 189.989,336.886 189.916,336.446 189.637 C 336.102 189.419,335.980 188.929,336.125 188.343 C 336.712 185.977,335.992 169.131,335.295 168.898 C 334.960 168.787,334.965 168.474,335.316 167.705 C 335.676 166.915,335.678 166.626,335.324 166.508 C 335.036 166.412,334.938 165.859,335.067 165.062 C 335.200 164.243,334.897 162.639,334.239 160.677 C 333.667 158.975,333.202 156.912,333.203 156.092 C 333.208 154.202,331.948 149.129,331.343 148.600 C 331.092 148.380,330.784 147.300,330.660 146.200 C 330.300 143.003,329.388 140.215,328.656 140.071 C 328.209 139.982,328.000 139.527,328.000 138.639 C 328.000 136.688,325.022 128.627,324.244 128.471 C 323.890 128.400,323.600 128.010,323.600 127.605 C 323.600 126.623,320.532 120.772,319.588 119.953 C 319.177 119.597,318.729 118.855,318.590 118.304 C 318.452 117.753,317.903 117.069,317.370 116.784 C 316.836 116.498,316.400 116.012,316.400 115.704 C 316.400 115.395,316.130 114.873,315.800 114.543 C 315.470 114.213,315.200 113.621,315.200 113.228 C 315.200 112.836,314.120 111.516,312.800 110.296 C 311.480 109.076,310.400 107.808,310.400 107.478 C 310.400 107.148,309.860 106.690,309.200 106.460 C 308.540 106.230,308.000 105.786,308.000 105.474 C 308.000 104.816,303.523 100.083,301.900 99.025 C 301.295 98.631,300.800 98.081,300.800 97.803 C 300.800 97.525,299.810 96.616,298.600 95.782 C 297.390 94.949,296.400 94.027,296.400 93.734 C 296.400 93.440,296.241 93.200,296.047 93.200 C 295.853 93.200,294.818 92.377,293.747 91.372 C 290.791 88.597,287.729 86.400,286.817 86.400 C 286.368 86.400,286.000 86.163,286.000 85.874 C 286.000 85.584,285.303 84.956,284.452 84.477 C 283.601 83.999,282.679 83.336,282.403 83.004 C 282.127 82.672,281.558 82.400,281.138 82.400 C 280.719 82.400,280.280 82.153,280.164 81.850 C 280.048 81.548,279.198 80.967,278.276 80.559 C 277.354 80.151,276.362 79.494,276.070 79.099 C 275.485 78.305,271.308 76.122,268.200 74.987 C 267.100 74.586,265.894 73.947,265.520 73.567 C 265.147 73.188,264.112 72.754,263.220 72.603 C 262.221 72.435,261.600 72.113,261.600 71.765 C 261.600 71.454,261.253 71.200,260.829 71.200 C 260.404 71.200,259.787 70.930,259.457 70.600 C 259.127 70.270,258.304 70.000,257.629 70.000 C 256.803 70.000,256.400 69.803,256.400 69.400 C 256.400 69.002,256.002 68.800,255.214 68.800 C 254.459 68.800,253.881 68.524,253.623 68.042 C 253.143 67.145,251.208 66.400,249.360 66.400 C 248.634 66.400,247.896 66.148,247.720 65.841 C 247.544 65.534,245.510 64.789,243.200 64.188 C 240.890 63.586,238.484 62.832,237.853 62.512 C 237.223 62.193,236.336 62.028,235.884 62.146 C 235.431 62.265,234.057 62.024,232.830 61.612 C 230.848 60.945,219.133 58.860,213.800 58.224 C 203.767 57.028,179.339 56.487,169.514 57.242 M187.746 73.620 C 188.376 73.824,189.096 73.860,189.346 73.700 C 189.997 73.285,198.909 73.599,199.465 74.057 C 199.721 74.268,200.711 74.415,201.665 74.384 C 203.662 74.320,211.797 74.771,213.028 75.015 C 213.483 75.105,214.506 75.810,215.300 76.582 C 216.094 77.353,217.477 78.277,218.372 78.635 C 219.267 78.994,220.000 79.537,220.000 79.843 C 220.000 80.150,220.291 80.400,220.647 80.400 C 221.003 80.400,221.909 80.940,222.661 81.600 C 223.413 82.260,224.382 82.800,224.814 82.800 C 225.262 82.800,225.600 83.070,225.600 83.429 C 225.600 84.132,226.530 85.200,227.142 85.200 C 228.112 85.200,239.794 97.668,240.989 99.978 C 241.750 101.451,242.037 101.440,235.570 100.179 C 232.690 99.618,229.540 99.123,228.570 99.079 C 227.454 99.029,226.805 98.813,226.803 98.492 C 226.801 98.157,226.475 98.066,225.840 98.226 C 225.312 98.358,223.557 98.267,221.940 98.023 C 220.323 97.779,215.310 97.521,210.800 97.449 C 201.379 97.299,201.188 97.250,197.758 94.075 C 196.407 92.824,194.423 91.129,193.351 90.308 C 192.278 89.487,190.655 88.137,189.745 87.308 C 188.835 86.479,187.399 85.440,186.555 85.000 C 185.710 84.560,184.704 83.889,184.318 83.508 C 183.932 83.127,181.992 82.001,180.008 81.004 C 178.024 80.007,176.400 79.036,176.400 78.846 C 176.400 78.656,175.858 78.392,175.195 78.259 C 173.786 77.977,167.043 74.824,167.300 74.567 C 167.580 74.287,171.061 73.949,175.800 73.743 C 178.220 73.637,180.332 73.421,180.493 73.262 C 180.881 72.881,186.284 73.147,187.746 73.620 M245.300 82.997 C 245.685 83.156,246.000 83.519,246.000 83.805 C 246.000 84.126,246.767 84.430,248.000 84.600 C 249.604 84.821,250.000 85.026,250.000 85.638 C 250.000 86.240,250.289 86.400,251.376 86.400 C 252.133 86.400,252.849 86.555,252.966 86.745 C 253.083 86.935,253.999 87.320,255.001 87.600 C 256.002 87.881,256.952 88.319,257.111 88.575 C 257.270 88.831,258.185 89.269,259.145 89.550 C 260.263 89.876,260.963 90.336,261.092 90.830 C 261.240 91.395,261.647 91.600,262.618 91.600 C 263.880 91.600,265.200 92.432,265.200 93.229 C 265.200 93.433,265.712 93.600,266.338 93.600 C 266.966 93.600,267.799 93.957,268.195 94.395 C 268.591 94.832,269.519 95.408,270.257 95.675 C 271.105 95.982,271.600 96.427,271.600 96.882 C 271.600 97.399,272.110 97.740,273.400 98.084 C 274.390 98.349,275.200 98.721,275.200 98.912 C 275.200 99.456,276.118 100.237,277.825 101.145 C 279.865 102.229,280.800 102.980,280.800 103.533 C 280.800 103.777,281.317 104.117,281.948 104.289 C 285.169 105.162,292.904 120.446,290.100 120.395 C 289.127 120.377,288.000 119.832,288.000 119.380 C 288.000 118.843,287.574 118.656,285.318 118.202 C 284.552 118.048,283.938 117.634,283.791 117.172 C 283.656 116.747,283.229 116.400,282.842 116.400 C 282.455 116.400,279.452 115.136,276.169 113.592 C 272.886 112.048,269.525 110.579,268.700 110.329 C 267.875 110.078,267.200 109.652,267.200 109.382 C 267.200 109.112,266.435 108.771,265.500 108.624 C 262.607 108.169,260.298 106.794,259.382 104.982 C 258.933 104.093,258.168 102.968,257.682 102.482 C 257.197 101.997,256.800 101.238,256.800 100.796 C 256.800 100.354,256.440 99.684,256.000 99.307 C 255.560 98.930,255.200 98.302,255.200 97.911 C 255.200 97.520,254.937 97.200,254.615 97.200 C 254.293 97.200,253.323 96.165,252.459 94.900 C 251.596 93.635,250.419 92.164,249.845 91.630 C 249.270 91.097,248.800 90.461,248.800 90.216 C 248.800 89.801,247.513 88.086,245.900 86.353 C 245.515 85.939,245.200 85.330,245.200 85.000 C 245.200 84.670,244.930 84.400,244.600 84.400 C 244.270 84.400,244.000 84.220,244.000 84.000 C 244.000 83.780,243.736 83.600,243.414 83.600 C 243.092 83.600,242.646 83.260,242.424 82.844 C 242.007 82.066,243.199 82.129,245.300 82.997 M217.800 110.401 C 220.440 110.630,223.590 110.981,224.800 111.180 C 230.538 112.125,241.168 114.074,242.600 114.443 C 246.407 115.425,251.852 117.306,252.450 117.847 C 253.277 118.593,256.682 126.539,257.312 129.190 C 257.574 130.296,258.017 131.200,258.295 131.200 C 258.585 131.200,258.800 131.690,258.800 132.350 C 258.800 132.982,259.073 134.274,259.408 135.221 C 260.196 137.456,259.705 137.777,257.029 136.779 C 249.492 133.970,236.097 131.640,227.326 131.613 C 220.896 131.594,220.283 131.100,218.078 124.148 C 217.705 122.973,217.189 122.009,216.931 122.006 C 216.673 122.002,216.249 121.325,215.988 120.500 C 215.727 119.675,214.813 117.703,213.957 116.119 C 213.101 114.534,212.400 112.869,212.400 112.419 C 212.400 111.968,212.151 111.600,211.846 111.600 C 211.541 111.600,210.983 111.128,210.605 110.551 L 209.918 109.503 211.459 109.744 C 212.307 109.876,215.160 110.172,217.800 110.401 M195.600 110.657 C 195.600 110.970,196.185 111.813,196.900 112.529 C 197.615 113.245,198.830 115.118,199.600 116.690 C 200.370 118.263,201.217 119.561,201.482 119.575 C 201.747 119.589,202.085 120.244,202.232 121.032 C 202.380 121.819,202.763 122.564,203.083 122.687 C 203.405 122.811,203.582 123.227,203.479 123.621 C 203.362 124.069,203.555 124.400,204.004 124.517 C 204.410 124.623,204.837 125.256,204.998 125.992 C 205.154 126.701,205.611 127.611,206.015 128.015 C 206.418 128.418,206.917 129.360,207.123 130.108 L 207.499 131.468 201.449 132.434 C 198.122 132.965,193.915 133.400,192.100 133.400 C 189.933 133.400,188.799 133.554,188.800 133.847 C 188.800 134.281,188.324 134.400,183.571 135.157 C 182.344 135.352,180.094 135.960,178.571 136.507 C 172.755 138.597,171.739 138.392,170.613 134.900 C 170.240 133.745,169.700 132.800,169.411 132.800 C 169.123 132.800,168.779 132.372,168.648 131.849 C 168.517 131.326,167.957 130.602,167.405 130.240 C 166.852 129.878,166.400 129.226,166.400 128.791 C 166.400 128.356,166.144 128.000,165.832 128.000 C 165.519 128.000,165.145 127.460,165.000 126.800 C 164.855 126.140,164.481 125.600,164.168 125.600 C 163.856 125.600,163.600 125.420,163.600 125.200 C 163.600 124.980,163.330 124.800,163.000 124.800 C 162.631 124.800,162.400 124.425,162.400 123.828 C 162.400 123.128,162.151 122.820,161.510 122.728 C 161.021 122.658,160.397 122.150,160.125 121.600 C 159.348 120.033,158.664 119.200,158.154 119.200 C 157.534 119.200,157.123 118.071,157.412 117.161 C 157.690 116.285,163.813 114.255,166.100 114.281 C 166.925 114.290,167.600 114.141,167.600 113.949 C 167.600 113.757,168.230 113.600,169.000 113.600 C 169.882 113.600,170.400 113.408,170.400 113.080 C 170.400 112.711,172.343 112.294,177.100 111.642 C 180.785 111.137,184.700 110.580,185.800 110.403 C 189.327 109.838,195.600 110.000,195.600 110.657 M84.875 118.825 C 84.971 119.114,85.286 119.429,85.575 119.525 C 85.875 119.625,86.025 119.475,85.925 119.175 C 85.829 118.886,85.514 118.571,85.225 118.475 C 84.925 118.375,84.775 118.525,84.875 118.825 M84.832 120.937 C 84.849 121.632,84.960 121.930,85.078 121.600 C 85.196 121.270,85.546 120.797,85.855 120.549 C 86.325 120.174,86.283 120.063,85.609 119.887 C 84.919 119.706,84.805 119.861,84.832 120.937 M304.000 123.800 C 304.000 124.130,304.251 124.400,304.557 124.400 C 305.169 124.400,305.600 125.241,305.600 126.433 C 305.600 126.855,305.788 127.200,306.017 127.200 C 306.760 127.200,307.484 128.158,307.293 128.888 C 307.190 129.280,307.308 129.600,307.553 129.600 C 307.799 129.600,308.000 129.960,308.000 130.400 C 308.000 130.933,308.267 131.200,308.800 131.200 C 309.407 131.200,309.600 131.467,309.600 132.306 C 309.600 132.914,309.960 134.084,310.401 134.906 L 311.202 136.400 310.374 136.400 C 308.844 136.400,304.400 133.240,304.400 132.152 C 304.400 131.848,304.175 131.598,303.900 131.595 C 303.625 131.592,302.993 130.962,302.496 130.195 C 301.999 129.428,301.789 128.800,302.028 128.800 C 302.301 128.800,302.368 128.364,302.207 127.630 C 301.889 126.184,302.735 123.200,303.463 123.200 C 303.758 123.200,304.000 123.470,304.000 123.800 M270.400 125.200 C 270.634 125.636,271.478 126.011,272.612 126.181 C 273.621 126.332,274.545 126.712,274.665 127.024 C 274.785 127.337,275.584 127.803,276.441 128.060 C 277.299 128.316,278.000 128.768,278.000 129.063 C 278.000 129.358,278.355 129.600,278.789 129.600 C 279.955 129.600,283.200 131.277,283.200 131.880 C 283.200 132.166,283.612 132.400,284.116 132.400 C 285.214 132.400,291.544 136.387,291.577 137.100 C 291.590 137.375,291.780 137.600,292.000 137.600 C 292.220 137.600,292.400 138.307,292.400 139.171 C 292.400 140.125,292.604 140.792,292.919 140.871 C 293.344 140.976,293.346 141.838,292.932 145.600 C 292.212 152.146,292.066 152.800,291.317 152.800 C 290.357 152.800,286.800 150.405,286.800 149.758 C 286.800 149.433,286.392 149.200,285.824 149.200 C 285.287 149.200,284.731 149.012,284.590 148.783 C 284.448 148.554,282.547 147.538,280.366 146.526 C 278.185 145.513,276.400 144.441,276.400 144.142 C 276.400 143.841,275.986 143.600,275.470 143.600 C 273.670 143.600,272.929 142.154,272.188 137.200 C 271.758 134.331,270.992 131.286,270.150 129.109 C 268.654 125.239,268.448 123.890,269.411 124.260 C 269.747 124.389,270.192 124.812,270.400 125.200 M213.478 145.190 C 213.791 145.636,213.939 146.176,213.807 146.389 C 213.675 146.602,213.873 147.367,214.247 148.088 C 215.094 149.724,216.471 154.629,216.496 156.100 C 216.507 156.750,216.737 157.200,217.057 157.200 C 217.401 157.200,217.604 157.677,217.610 158.500 C 217.616 159.215,217.971 161.330,218.400 163.200 C 218.829 165.070,219.184 166.735,219.190 166.900 C 219.195 167.065,217.400 167.200,215.200 167.200 C 213.000 167.200,211.200 167.359,211.200 167.553 C 211.200 167.747,209.856 168.032,208.214 168.186 C 206.572 168.340,204.187 168.730,202.914 169.054 C 199.304 169.971,197.610 170.283,194.735 170.559 L 192.069 170.815 191.410 168.830 C 191.047 167.738,190.427 166.430,190.032 165.923 C 189.637 165.415,189.072 164.325,188.777 163.500 C 188.481 162.675,188.005 162.000,187.720 162.000 C 187.434 162.000,187.200 161.828,187.200 161.618 C 187.200 161.408,186.750 160.572,186.200 159.762 C 185.650 158.951,185.200 157.773,185.200 157.144 C 185.200 156.394,184.993 156.000,184.600 156.000 C 184.270 156.000,184.000 155.659,184.000 155.243 C 184.000 154.826,183.730 154.382,183.400 154.255 C 183.070 154.129,182.800 153.777,182.800 153.475 C 182.800 153.172,182.452 152.609,182.026 152.223 C 180.732 151.052,180.296 149.287,181.227 148.991 C 181.652 148.856,182.000 148.488,182.000 148.173 C 182.000 147.761,182.504 147.600,183.800 147.600 C 184.790 147.600,185.600 147.420,185.600 147.200 C 185.600 146.980,186.131 146.800,186.780 146.800 C 187.429 146.800,188.888 146.601,190.021 146.358 C 200.600 144.089,212.299 143.507,213.478 145.190 M240.549 145.357 C 242.722 145.883,244.634 146.531,244.798 146.797 C 244.963 147.063,246.336 147.426,247.849 147.603 C 251.413 148.021,260.527 151.002,261.920 152.206 L 263.000 153.140 262.905 158.758 C 262.852 161.847,262.607 165.235,262.360 166.287 C 262.113 167.339,261.841 168.725,261.756 169.367 C 261.670 170.008,261.538 170.596,261.461 170.672 C 261.385 170.748,258.370 170.196,254.761 169.446 C 251.153 168.695,246.940 167.964,245.400 167.822 C 243.860 167.679,240.206 167.296,237.281 166.970 C 234.355 166.644,231.790 166.483,231.581 166.612 C 231.361 166.748,231.200 166.075,231.200 165.024 C 231.200 163.747,231.036 163.200,230.653 163.200 C 230.259 163.200,230.045 162.383,229.892 160.300 C 229.760 158.504,228.979 155.137,227.840 151.456 C 226.828 148.187,226.000 145.363,226.000 145.180 C 226.000 144.109,235.886 144.229,240.549 145.357 M306.331 151.804 C 307.063 152.902,307.918 153.858,308.231 153.929 C 308.544 154.000,308.800 154.227,308.800 154.433 C 308.800 154.639,309.340 155.552,310.000 156.463 C 310.660 157.375,311.200 158.342,311.200 158.613 C 311.200 158.885,311.538 159.195,311.951 159.303 C 312.431 159.429,312.952 160.252,313.393 161.578 C 313.773 162.722,314.335 163.753,314.642 163.871 C 314.949 163.989,315.200 164.606,315.200 165.243 C 315.200 165.879,315.367 166.400,315.572 166.400 C 315.776 166.400,316.154 167.435,316.411 168.700 C 316.668 169.965,317.580 172.877,318.439 175.172 C 319.298 177.466,319.989 179.536,319.975 179.772 C 319.961 180.007,319.787 179.795,319.588 179.300 C 319.389 178.805,319.040 178.400,318.813 178.400 C 318.586 178.400,318.400 178.040,318.400 177.600 C 318.400 177.160,318.163 176.800,317.874 176.800 C 317.585 176.800,317.048 176.170,316.681 175.400 C 316.313 174.630,315.759 174.000,315.448 174.000 C 314.765 174.000,312.515 171.509,311.881 170.051 C 311.376 168.891,309.774 167.200,309.179 167.200 C 308.971 167.200,308.800 167.020,308.800 166.800 C 308.800 166.311,307.332 164.800,306.856 164.800 C 304.647 164.800,302.126 160.338,302.762 157.555 C 302.983 156.590,303.278 154.395,303.418 152.678 C 303.725 148.911,304.289 148.742,306.331 151.804 M277.792 159.686 C 279.227 160.393,280.400 161.170,280.400 161.412 C 280.400 161.655,281.390 162.263,282.600 162.765 C 283.846 163.281,284.800 163.930,284.800 164.260 C 284.800 164.584,285.693 165.215,286.800 165.675 C 288.687 166.460,289.886 168.800,288.400 168.800 C 288.180 168.800,288.000 169.238,288.000 169.774 C 288.000 170.310,287.793 171.255,287.539 171.874 C 287.286 172.493,287.119 173.407,287.169 173.905 C 287.283 175.054,286.456 177.600,285.969 177.600 C 285.766 177.600,285.600 177.870,285.600 178.200 C 285.600 178.978,284.244 178.976,283.597 178.196 C 283.322 177.864,282.399 177.481,281.548 177.345 C 280.623 177.197,280.000 176.877,280.000 176.549 C 280.000 176.220,279.570 176.000,278.926 176.000 C 278.336 176.000,276.787 175.701,275.484 175.336 L 273.116 174.671 273.388 173.236 C 273.868 170.702,274.349 165.484,274.375 162.533 C 274.415 157.911,274.333 157.980,277.792 159.686 M299.888 176.416 C 300.006 176.865,300.691 177.478,301.411 177.779 C 302.358 178.174,302.795 178.668,302.992 179.563 C 303.179 180.416,303.499 180.800,304.023 180.800 C 304.440 180.800,305.095 181.295,305.479 181.900 C 305.863 182.505,306.844 183.900,307.660 185.000 C 308.477 186.100,309.332 187.495,309.562 188.100 C 309.792 188.705,310.221 189.200,310.516 189.200 C 310.948 189.200,312.400 191.513,312.400 192.201 C 312.400 192.701,311.195 191.816,310.988 191.163 C 310.849 190.724,310.381 190.400,309.887 190.400 C 309.414 190.400,307.491 189.521,305.614 188.446 C 303.736 187.371,301.795 186.369,301.300 186.219 C 300.805 186.069,300.400 185.688,300.400 185.373 C 300.400 185.025,299.998 184.800,299.374 184.800 C 296.794 184.800,296.293 183.526,297.407 179.800 C 298.649 175.645,299.414 174.602,299.888 176.416 M218.899 179.848 L 220.710 180.096 220.583 183.148 C 220.401 187.539,219.106 193.879,216.824 201.555 C 216.392 203.010,215.759 205.448,215.417 206.974 C 214.521 210.970,213.666 212.512,212.100 212.951 C 211.385 213.152,210.800 213.466,210.800 213.650 C 210.800 214.282,207.599 215.676,207.442 215.112 C 207.364 214.830,206.905 212.260,206.422 209.400 C 205.161 201.936,203.249 194.540,201.935 192.044 C 201.311 190.858,200.800 189.290,200.800 188.559 C 200.800 187.768,200.491 186.942,200.035 186.516 C 199.615 186.122,199.148 185.143,198.998 184.340 L 198.726 182.881 201.463 182.269 C 202.968 181.933,205.100 181.545,206.200 181.407 C 207.300 181.269,209.460 180.905,211.000 180.597 C 216.230 179.551,216.525 179.523,218.899 179.848 M243.300 180.126 C 244.812 180.101,245.600 180.249,245.600 180.558 C 245.600 180.858,247.142 181.191,249.900 181.487 C 255.204 182.055,257.361 182.711,257.507 183.800 C 257.650 184.867,256.157 187.234,255.180 187.489 C 254.616 187.637,254.400 188.041,254.399 188.947 C 254.397 190.445,253.057 192.800,252.206 192.800 C 251.801 192.800,251.600 193.194,251.600 193.988 C 251.600 194.844,251.265 195.424,250.400 196.063 C 249.740 196.551,249.200 197.192,249.200 197.488 C 249.200 197.783,248.920 198.133,248.577 198.264 C 248.234 198.396,248.051 198.755,248.169 199.064 C 248.299 199.402,247.990 199.804,247.392 200.076 C 246.846 200.325,246.400 200.836,246.400 201.212 C 246.400 202.099,244.352 202.655,238.400 203.386 C 235.870 203.696,233.080 204.208,232.200 204.522 C 228.884 205.705,228.057 203.995,229.845 199.651 C 230.150 198.909,230.400 197.679,230.400 196.918 C 230.400 196.156,230.747 194.153,231.171 192.467 C 231.594 190.780,232.069 187.169,232.225 184.443 L 232.510 179.485 236.755 179.824 C 239.090 180.010,242.035 180.146,243.300 180.126 M276.010 189.069 L 280.872 190.938 280.641 192.169 C 280.237 194.310,278.634 198.000,278.107 198.000 C 277.828 198.000,277.600 198.411,277.600 198.913 C 277.600 200.260,274.896 205.116,273.985 205.405 C 273.553 205.542,273.200 206.002,273.200 206.427 C 273.200 207.436,272.204 207.422,269.850 206.381 C 268.832 205.931,267.099 205.456,266.000 205.325 C 264.749 205.177,264.000 204.894,264.000 204.570 C 264.000 204.280,263.440 203.995,262.731 203.925 C 261.078 203.762,260.960 203.248,262.188 201.573 C 262.741 200.818,263.468 199.615,263.802 198.900 C 264.137 198.185,264.568 197.600,264.761 197.600 C 264.953 197.600,265.229 196.970,265.374 196.200 C 265.531 195.362,265.870 194.800,266.218 194.800 C 266.538 194.800,266.800 194.435,266.800 193.989 C 266.800 193.211,268.858 188.741,269.696 187.700 C 270.300 186.948,270.740 187.044,276.010 189.069 M294.300 196.795 C 294.575 196.798,294.800 197.025,294.801 197.300 C 294.801 197.575,295.868 198.114,297.173 198.497 C 298.824 198.982,299.622 199.438,299.799 199.997 C 299.962 200.511,300.404 200.800,301.027 200.800 C 301.562 200.800,302.000 200.980,302.000 201.200 C 302.000 201.420,302.180 201.600,302.399 201.600 C 303.029 201.600,311.293 206.742,312.373 207.805 C 313.202 208.622,313.280 208.906,312.904 209.732 C 312.388 210.863,306.689 214.800,305.566 214.800 C 305.145 214.800,304.800 215.049,304.800 215.353 C 304.800 216.412,298.000 217.374,296.980 216.459 C 296.771 216.272,295.025 215.893,293.100 215.618 C 290.610 215.262,289.600 214.956,289.600 214.559 C 289.600 214.251,289.317 214.000,288.971 214.000 C 288.626 214.000,288.073 213.730,287.743 213.400 C 287.413 213.070,286.616 212.800,285.971 212.800 C 285.067 212.800,284.800 212.618,284.800 212.000 C 284.800 211.560,284.980 211.200,285.200 211.200 C 285.420 211.200,285.600 210.853,285.600 210.429 C 285.600 210.004,285.828 209.419,286.107 209.129 C 286.386 208.838,286.939 207.555,287.335 206.277 C 287.731 204.999,288.308 203.857,288.617 203.738 C 288.926 203.620,289.293 202.910,289.434 202.161 C 289.579 201.389,289.929 200.800,290.245 200.800 C 290.550 200.800,290.800 200.434,290.800 199.987 C 290.800 198.164,291.943 196.291,292.899 196.548 C 293.395 196.680,294.025 196.792,294.300 196.795 " stroke="none" fill="#fcfcfc" fill-rule="evenodd"></path><path id="path1" d="M124.200 9.854 C 123.100 10.146,121.776 10.388,121.258 10.392 C 120.740 10.397,119.795 10.838,119.160 11.373 C 118.207 12.174,117.793 12.285,116.806 12.002 C 115.986 11.767,115.511 11.807,115.304 12.129 C 115.137 12.388,114.335 12.938,113.521 13.352 C 112.616 13.812,111.887 14.549,111.642 15.252 C 111.422 15.883,111.052 16.400,110.821 16.400 C 110.276 16.400,110.271 17.490,110.816 17.672 C 111.083 17.761,111.004 18.449,110.592 19.605 C 110.240 20.592,110.046 21.882,110.160 22.472 C 110.275 23.061,110.217 23.601,110.032 23.672 C 109.847 23.742,109.859 24.970,110.060 26.400 C 110.309 28.177,110.278 29.612,109.964 30.933 C 109.711 31.996,109.589 33.742,109.692 34.813 C 109.795 35.885,109.698 36.942,109.476 37.164 C 109.206 37.434,109.221 37.743,109.520 38.104 C 109.766 38.400,109.858 39.056,109.726 39.562 C 109.577 40.131,109.698 40.631,110.043 40.871 C 110.472 41.172,110.485 41.307,110.100 41.464 C 109.497 41.709,109.433 44.823,109.992 46.772 C 110.265 47.723,110.248 48.301,109.937 48.675 C 109.638 49.036,109.579 50.301,109.756 52.507 C 109.974 55.207,109.904 55.967,109.369 56.727 C 108.752 57.605,108.762 57.665,109.559 57.873 C 110.560 58.135,110.618 58.525,109.781 59.362 C 109.312 59.831,109.263 60.170,109.579 60.762 C 109.809 61.191,109.906 61.780,109.795 62.071 C 109.533 62.755,109.282 73.243,109.511 73.900 C 109.607 74.175,110.026 74.400,110.443 74.400 C 111.042 74.400,111.200 74.693,111.200 75.800 C 111.200 76.730,111.013 77.200,110.643 77.200 C 110.191 77.200,110.162 77.504,110.491 78.800 C 110.715 79.680,111.055 80.400,111.249 80.400 C 111.804 80.400,111.658 83.087,111.020 84.613 C 110.702 85.376,110.245 86.000,110.006 86.000 C 109.701 86.000,109.709 86.256,110.031 86.859 C 110.286 87.334,110.401 88.513,110.290 89.499 C 110.167 90.594,110.298 91.683,110.631 92.325 C 111.006 93.048,111.041 93.451,110.744 93.635 C 110.486 93.794,110.465 93.993,110.692 94.133 C 110.917 94.272,110.943 95.225,110.758 96.483 C 110.587 97.648,110.249 99.967,110.008 101.637 C 109.499 105.161,109.530 116.710,110.050 117.031 C 110.245 117.152,110.209 117.609,109.968 118.059 C 109.727 118.510,109.585 120.322,109.648 122.143 C 109.710 123.943,109.619 125.645,109.446 125.926 C 109.273 126.206,109.302 126.652,109.511 126.918 C 109.720 127.183,110.006 129.235,110.146 131.478 C 110.415 135.779,110.859 136.990,113.260 139.968 C 113.866 140.721,114.268 141.490,114.153 141.676 C 113.764 142.305,119.111 144.504,120.513 144.293 C 121.294 144.175,122.350 144.373,123.200 144.798 C 125.750 146.072,126.400 146.157,126.400 145.214 C 126.400 144.310,126.608 144.194,128.900 143.813 C 130.037 143.624,130.400 143.374,130.400 142.782 C 130.400 142.207,130.675 142.000,131.440 142.000 C 133.125 142.000,137.200 137.178,137.200 135.185 C 137.200 134.587,137.470 133.874,137.800 133.600 C 138.130 133.326,138.400 132.876,138.400 132.600 C 138.400 132.324,138.130 131.874,137.800 131.600 C 137.470 131.326,137.200 130.944,137.200 130.751 C 137.200 130.558,137.470 130.400,137.800 130.400 C 138.766 130.400,137.715 121.768,136.670 121.117 C 136.310 120.893,136.310 120.646,136.671 120.064 C 137.031 119.483,137.032 119.192,136.675 118.835 C 136.317 118.477,136.332 118.289,136.737 118.039 C 137.133 117.794,137.175 117.366,136.903 116.355 C 136.324 114.207,136.637 100.315,137.275 99.813 C 137.812 99.390,137.970 92.921,137.463 92.101 C 137.331 91.888,137.405 91.103,137.626 90.357 C 137.993 89.122,137.833 85.227,137.344 83.500 C 137.216 83.046,137.367 82.800,137.776 82.800 C 138.428 82.800,137.922 81.379,137.044 80.742 C 136.577 80.403,136.651 69.176,137.136 66.600 C 137.344 65.500,137.543 62.986,137.579 61.014 C 137.615 59.042,137.817 57.220,138.027 56.967 C 138.282 56.660,138.192 56.325,137.759 55.966 C 136.977 55.317,137.130 49.648,137.956 48.654 C 138.343 48.187,138.341 47.894,137.944 47.259 C 137.541 46.614,137.544 45.945,137.958 43.860 C 138.471 41.281,138.309 39.600,137.549 39.600 C 137.331 39.600,137.247 39.448,137.361 39.262 C 137.476 39.077,137.381 38.242,137.151 37.407 C 136.920 36.572,136.886 35.779,137.075 35.645 C 137.796 35.129,137.463 24.156,136.700 23.311 C 136.274 22.840,136.000 21.898,136.000 20.904 C 136.000 19.183,134.528 14.800,133.950 14.800 C 133.763 14.800,133.348 14.170,133.026 13.400 C 132.590 12.358,132.198 12.000,131.492 12.000 C 129.928 12.000,126.930 10.811,126.552 10.042 C 126.229 9.383,126.033 9.367,124.200 9.854 M123.541 159.392 C 122.928 159.962,119.763 160.800,118.223 160.800 C 117.580 160.800,117.200 161.023,117.200 161.400 C 117.200 161.730,116.913 162.000,116.562 162.000 C 115.206 162.000,113.600 163.338,113.600 164.466 C 113.600 165.091,113.300 165.730,112.900 165.955 C 112.354 166.263,112.306 166.457,112.681 166.836 C 113.003 167.162,113.039 167.554,112.788 168.022 C 112.582 168.407,112.510 170.224,112.628 172.061 C 112.746 173.897,112.878 176.150,112.921 177.066 C 112.965 177.982,113.135 178.867,113.300 179.033 C 113.465 179.198,113.600 179.630,113.600 179.992 C 113.600 180.354,114.156 181.179,114.837 181.825 C 115.517 182.471,116.417 183.669,116.838 184.487 C 117.356 185.494,117.796 185.900,118.201 185.744 C 118.564 185.605,118.800 185.744,118.800 186.099 C 118.800 186.711,124.148 187.425,125.332 186.971 C 125.643 186.851,126.004 187.034,126.136 187.377 C 126.906 189.383,133.200 187.460,133.200 185.219 C 133.200 184.769,133.455 184.400,133.767 184.400 C 134.078 184.400,134.393 184.265,134.467 184.100 C 134.540 183.935,135.126 183.530,135.768 183.200 C 137.561 182.279,139.732 178.959,139.453 177.564 C 139.328 176.941,139.412 176.316,139.639 176.176 C 139.906 176.011,139.846 175.687,139.470 175.260 C 138.324 173.962,138.186 171.204,139.265 171.175 L 140.200 171.149 139.300 170.788 C 138.576 170.497,138.400 170.111,138.400 168.822 C 138.400 167.059,136.533 162.800,135.759 162.800 C 135.499 162.800,135.188 162.547,135.070 162.238 C 134.951 161.928,134.284 161.550,133.586 161.397 C 132.889 161.244,131.990 160.790,131.590 160.390 C 130.012 158.812,124.853 158.173,123.541 159.392 M333.033 272.597 C 326.562 273.917,326.062 274.089,321.597 276.537 C 319.029 277.944,316.224 279.324,315.364 279.603 C 312.720 280.459,310.000 281.983,310.000 282.607 C 310.000 282.933,309.649 283.200,309.220 283.200 C 308.791 283.200,308.296 283.430,308.120 283.711 C 307.944 283.993,307.024 284.565,306.076 284.983 C 305.127 285.401,304.189 286.046,303.991 286.417 C 303.793 286.787,303.084 287.317,302.415 287.594 C 301.747 287.871,301.200 288.345,301.200 288.649 C 301.200 288.965,300.788 289.200,300.235 289.200 C 299.347 289.200,293.263 293.327,292.622 294.365 C 292.474 294.604,291.986 294.800,291.538 294.800 C 290.462 294.800,288.513 296.213,288.191 297.227 C 288.041 297.701,287.455 298.129,286.768 298.266 C 286.126 298.395,285.600 298.748,285.600 299.050 C 285.600 299.353,285.240 299.600,284.800 299.600 C 284.360 299.600,284.000 299.780,284.000 300.000 C 284.000 300.220,283.668 300.400,283.262 300.400 C 282.191 300.400,277.600 303.474,277.600 304.191 C 277.600 304.526,277.397 304.800,277.149 304.800 C 276.258 304.800,271.600 307.320,271.600 307.802 C 271.600 308.073,270.925 308.389,270.100 308.505 C 269.275 308.620,267.539 309.359,266.241 310.147 C 264.944 310.934,263.054 311.871,262.041 312.229 C 255.764 314.447,254.653 315.622,254.865 319.825 C 254.970 321.895,255.217 322.956,255.725 323.517 C 256.612 324.497,261.302 325.895,261.518 325.245 C 261.600 325.000,262.183 324.800,262.814 324.800 C 264.703 324.800,270.982 322.525,271.136 321.785 C 271.235 321.309,271.536 321.198,272.245 321.375 C 272.915 321.544,273.290 321.430,273.452 321.010 C 273.580 320.674,273.858 320.400,274.069 320.400 C 275.096 320.400,278.403 318.622,278.614 317.956 C 278.769 317.468,279.225 317.200,279.903 317.200 C 280.480 317.200,282.133 316.498,283.576 315.639 C 285.019 314.780,286.605 313.958,287.100 313.812 C 287.595 313.666,288.000 313.381,288.000 313.180 C 288.000 312.978,288.900 312.357,290.000 311.800 C 291.100 311.243,292.000 310.619,292.000 310.415 C 292.000 310.031,292.257 309.870,296.308 307.713 C 297.637 307.006,298.786 306.286,298.862 306.113 C 299.027 305.739,304.434 302.115,305.355 301.762 C 305.710 301.626,306.000 301.174,306.000 300.757 C 306.000 300.222,306.285 300.000,306.974 300.000 C 308.147 300.000,315.200 295.376,315.200 294.606 C 315.200 294.308,315.728 293.948,316.372 293.806 C 317.017 293.664,317.759 293.290,318.021 292.974 C 318.283 292.658,318.926 292.400,319.449 292.400 C 319.998 292.400,320.400 292.163,320.400 291.840 C 320.400 291.493,321.200 291.093,322.500 290.789 C 323.655 290.519,324.870 290.072,325.200 289.796 C 325.530 289.520,326.205 289.171,326.700 289.020 C 327.195 288.870,327.600 288.511,327.600 288.225 C 327.600 287.901,328.358 287.602,329.600 287.438 C 330.869 287.269,331.600 286.977,331.600 286.639 C 331.600 286.089,333.570 285.612,335.871 285.604 C 336.571 285.602,337.413 285.330,337.743 285.000 C 338.073 284.670,338.654 284.400,339.035 284.400 C 339.415 284.400,341.718 284.019,344.153 283.553 C 356.597 281.172,370.159 285.738,380.148 295.670 C 381.880 297.391,383.455 298.800,383.648 298.800 C 383.842 298.800,384.000 299.070,384.000 299.400 C 384.000 299.730,384.180 300.000,384.400 300.000 C 384.620 300.000,385.160 300.360,385.600 300.800 C 387.900 303.100,387.595 300.726,384.857 295.025 C 382.355 289.815,377.089 283.346,374.571 282.389 C 374.037 282.186,373.600 281.781,373.600 281.490 C 373.600 281.198,372.790 280.566,371.800 280.085 C 370.810 279.604,370.000 279.022,370.000 278.791 C 370.000 278.344,363.801 275.200,362.921 275.200 C 362.635 275.200,362.400 274.930,362.400 274.600 C 362.400 274.204,362.004 274.000,361.233 274.000 C 360.592 274.000,360.006 273.819,359.932 273.597 C 359.180 271.341,342.273 270.712,333.033 272.597 M69.600 293.574 C 67.950 293.961,65.610 294.754,64.400 295.335 C 63.190 295.916,61.896 296.394,61.524 296.396 C 61.152 296.398,60.729 296.591,60.585 296.825 C 60.440 297.058,59.890 297.414,59.361 297.615 C 58.833 297.816,58.400 298.255,58.400 298.590 C 58.400 298.933,58.050 299.200,57.600 299.200 C 57.160 299.200,56.800 299.366,56.800 299.568 C 56.800 299.771,56.278 300.051,55.641 300.191 C 54.967 300.339,54.396 300.771,54.278 301.223 C 54.158 301.683,53.730 302.000,53.229 302.000 C 52.763 302.000,51.601 302.720,50.646 303.600 C 49.692 304.480,48.712 305.200,48.469 305.200 C 47.791 305.200,45.200 307.611,45.200 308.241 C 45.200 308.549,45.038 308.800,44.841 308.800 C 44.371 308.800,40.400 312.689,40.400 313.149 C 40.400 313.343,40.130 313.726,39.800 314.000 C 39.470 314.274,39.200 314.836,39.200 315.249 C 39.200 315.662,39.043 316.000,38.850 316.000 C 38.426 316.000,38.001 314.031,37.997 312.050 C 37.985 305.957,35.752 297.442,33.837 296.188 C 33.267 295.814,32.800 295.265,32.800 294.968 C 32.800 293.412,27.219 293.054,24.071 294.407 C 22.048 295.278,19.381 298.552,19.492 300.030 C 19.524 300.453,19.399 300.800,19.215 300.800 C 17.475 300.800,15.295 308.331,15.056 315.161 C 14.816 322.039,18.314 340.091,19.974 340.538 C 20.510 340.683,20.504 340.714,19.936 340.754 C 17.411 340.930,18.527 361.200,21.062 361.200 C 21.358 361.200,21.600 361.560,21.600 362.000 C 21.600 362.533,21.867 362.800,22.400 362.800 C 22.844 362.800,23.200 363.067,23.200 363.400 C 23.200 363.730,23.470 364.000,23.800 364.000 C 24.130 364.000,24.400 364.287,24.400 364.639 C 24.400 366.131,31.884 365.237,33.346 363.571 C 34.036 362.784,34.889 362.035,35.243 361.905 C 35.926 361.654,36.400 359.961,36.400 357.774 C 36.400 355.952,36.904 355.793,38.768 357.026 C 39.646 357.607,40.822 358.109,41.382 358.141 C 41.941 358.174,42.400 358.425,42.400 358.700 C 42.400 358.985,42.898 359.200,43.557 359.200 C 44.194 359.200,44.811 359.451,44.929 359.758 C 45.394 360.971,59.167 363.536,62.518 363.033 C 66.128 362.492,69.854 358.473,69.367 355.645 C 68.869 352.752,66.776 348.800,65.741 348.800 C 65.199 348.800,64.800 348.561,64.800 348.237 C 64.800 347.707,60.325 345.594,57.938 344.998 C 56.960 344.753,56.009 343.200,56.837 343.200 C 57.037 343.200,57.200 342.930,57.200 342.600 C 57.200 342.270,57.554 342.000,57.986 342.000 C 59.049 342.000,61.596 340.755,61.616 340.226 C 61.625 339.992,62.480 339.395,63.516 338.899 C 65.903 337.758,69.162 335.364,69.489 334.513 C 69.793 333.721,71.073 332.400,71.536 332.400 C 71.720 332.400,72.077 331.950,72.327 331.400 C 72.578 330.850,73.043 330.400,73.361 330.400 C 73.679 330.400,74.358 329.846,74.870 329.169 C 75.381 328.492,76.205 327.494,76.700 326.951 C 77.195 326.408,77.600 325.811,77.600 325.625 C 77.600 325.438,77.870 325.182,78.200 325.055 C 78.530 324.929,78.800 324.487,78.800 324.075 C 78.800 323.662,79.160 322.998,79.600 322.600 C 80.040 322.202,80.400 321.603,80.400 321.270 C 80.400 320.936,80.675 320.360,81.010 319.989 C 81.346 319.618,81.645 318.659,81.675 317.857 C 81.705 317.045,81.936 316.400,82.196 316.400 C 83.416 316.400,85.188 301.734,84.053 301.032 C 83.861 300.914,83.586 300.075,83.441 299.167 C 82.950 296.094,80.830 293.606,78.700 293.601 C 78.315 293.601,78.000 293.420,78.000 293.200 C 78.000 292.568,72.921 292.794,69.600 293.574 M73.200 306.677 C 73.200 308.548,72.285 310.981,71.104 312.249 C 70.465 312.936,69.998 313.746,70.068 314.049 C 70.272 314.938,66.920 319.200,66.017 319.200 C 65.788 319.200,65.600 319.564,65.600 320.010 C 65.600 320.506,65.212 320.967,64.600 321.200 C 64.050 321.409,63.600 321.855,63.600 322.190 C 63.600 322.526,63.330 322.800,63.000 322.800 C 62.670 322.800,62.400 323.064,62.400 323.386 C 62.400 323.708,62.040 324.165,61.600 324.400 C 61.160 324.635,60.800 325.089,60.800 325.408 C 60.800 326.097,58.258 327.840,56.700 328.219 C 56.095 328.366,55.600 328.692,55.600 328.943 C 55.598 330.229,46.704 333.096,44.184 332.623 L 42.824 332.368 43.821 330.115 C 44.962 327.533,47.403 324.377,48.473 324.097 C 48.873 323.992,49.200 323.568,49.200 323.153 C 49.200 322.739,49.404 322.400,49.653 322.400 C 50.243 322.400,51.600 320.830,51.600 320.146 C 51.600 319.854,52.050 319.502,52.600 319.364 C 53.150 319.226,53.600 318.850,53.600 318.528 C 53.600 317.846,54.551 316.800,55.171 316.800 C 55.407 316.800,55.600 316.538,55.600 316.217 C 55.600 315.896,56.414 315.157,57.409 314.574 C 58.404 313.990,59.393 313.187,59.606 312.789 C 59.819 312.390,60.625 311.856,61.397 311.601 C 62.169 311.346,62.800 310.972,62.800 310.769 C 62.800 310.566,63.070 310.400,63.400 310.400 C 63.730 310.400,64.000 310.143,64.000 309.829 C 64.000 309.515,64.945 308.791,66.100 308.220 C 67.255 307.649,68.647 306.923,69.194 306.607 C 69.741 306.291,70.572 306.128,71.040 306.246 C 71.602 306.387,71.977 306.237,72.143 305.804 C 72.500 304.874,73.200 305.452,73.200 306.677 M315.600 324.200 C 315.600 324.530,315.369 324.800,315.086 324.800 C 313.114 324.800,311.712 334.447,313.197 337.800 L 313.728 339.000 314.017 337.800 C 314.175 337.140,314.327 335.632,314.353 334.450 C 314.406 332.011,315.875 325.325,316.433 324.980 C 317.025 324.614,316.854 323.600,316.200 323.600 C 315.870 323.600,315.600 323.870,315.600 324.200 M215.000 333.567 C 212.660 334.214,211.600 334.788,211.600 335.408 C 211.600 335.904,211.318 335.983,210.256 335.784 C 209.117 335.570,208.878 335.659,208.693 336.366 C 208.549 336.916,208.151 337.200,207.524 337.200 C 207.001 337.200,205.620 337.814,204.455 338.565 C 203.290 339.315,201.856 340.048,201.269 340.193 C 200.681 340.338,199.750 340.865,199.200 341.364 C 198.650 341.862,196.805 342.791,195.100 343.428 C 193.395 344.064,192.000 344.791,192.000 345.044 C 192.000 345.296,190.065 346.166,187.700 346.976 C 185.335 347.786,183.187 348.726,182.927 349.064 C 182.666 349.403,182.255 349.557,182.012 349.407 C 181.769 349.257,180.852 349.509,179.973 349.967 C 179.094 350.425,177.955 350.800,177.442 350.800 C 176.928 350.800,176.050 351.160,175.491 351.600 C 174.903 352.063,173.868 352.400,173.037 352.400 C 172.247 352.400,171.600 352.580,171.600 352.800 C 171.600 353.020,170.925 353.200,170.100 353.200 C 169.275 353.200,167.160 353.647,165.400 354.194 C 162.280 355.163,155.062 356.671,147.800 357.870 C 143.252 358.621,126.297 359.077,125.070 358.481 C 124.591 358.248,122.310 357.969,120.000 357.859 C 115.356 357.640,111.458 356.923,105.327 355.162 C 103.086 354.518,100.436 353.880,99.437 353.743 C 98.153 353.567,97.551 353.275,97.383 352.747 C 97.253 352.336,96.838 352.000,96.462 352.000 C 96.086 352.000,95.364 351.710,94.858 351.356 C 93.135 350.149,87.892 347.600,87.132 347.600 C 86.716 347.600,86.264 347.311,86.129 346.958 C 85.158 344.429,75.377 341.823,73.584 343.616 C 72.154 345.046,71.220 350.400,72.400 350.400 C 72.620 350.400,72.800 350.764,72.800 351.210 C 72.800 351.706,73.188 352.167,73.800 352.400 C 74.350 352.609,74.806 353.010,74.813 353.290 C 74.820 353.571,75.675 354.330,76.713 354.977 C 85.132 360.227,90.081 362.830,92.700 363.387 C 93.415 363.539,94.000 363.894,94.000 364.175 C 94.000 364.480,95.410 365.061,97.500 365.617 C 99.425 366.128,101.540 366.764,102.200 367.029 C 102.860 367.294,104.210 367.643,105.200 367.804 C 106.190 367.966,107.106 368.265,107.236 368.470 C 107.366 368.674,108.986 369.025,110.836 369.249 C 112.686 369.474,115.550 369.824,117.200 370.027 C 123.178 370.763,129.003 371.154,129.118 370.828 C 129.182 370.644,129.982 370.684,130.895 370.915 C 131.882 371.166,132.604 371.187,132.677 370.968 C 132.746 370.759,135.215 370.656,138.399 370.730 C 142.210 370.819,144.000 370.723,144.000 370.430 C 144.000 370.176,144.943 369.988,146.300 369.972 C 147.565 369.956,148.960 369.803,149.400 369.630 C 149.840 369.457,150.731 369.468,151.380 369.653 C 152.050 369.844,152.654 369.836,152.780 369.633 C 152.901 369.437,154.170 369.204,155.600 369.114 C 158.559 368.928,167.332 367.154,167.533 366.700 C 167.607 366.535,168.070 366.400,168.563 366.400 C 169.056 366.400,170.706 365.980,172.230 365.467 C 173.753 364.954,176.126 364.299,177.502 364.012 C 178.879 363.725,180.391 363.154,180.864 362.745 C 181.336 362.335,182.235 362.000,182.861 362.000 C 183.607 362.000,184.000 361.793,184.000 361.400 C 184.000 361.070,184.180 360.800,184.400 360.800 C 184.620 360.800,184.800 361.070,184.800 361.400 C 184.800 361.867,184.978 361.822,185.600 361.200 C 186.092 360.708,186.933 360.400,187.786 360.400 C 188.737 360.400,189.299 360.162,189.577 359.643 C 189.865 359.106,190.762 358.749,192.663 358.418 C 195.803 357.872,196.657 357.480,196.990 356.433 C 197.153 355.918,197.756 355.576,198.817 355.397 C 199.787 355.233,200.400 354.911,200.400 354.565 C 200.400 354.213,200.822 354.000,201.519 354.000 C 202.780 354.000,210.277 350.281,211.200 349.197 C 211.530 348.810,212.480 348.276,213.310 348.012 C 215.066 347.453,217.200 345.781,217.200 344.964 C 217.200 344.654,217.577 344.400,218.038 344.400 C 219.106 344.400,221.200 342.925,221.200 342.173 C 221.200 341.858,221.560 341.600,222.000 341.600 C 222.529 341.600,222.800 341.333,222.800 340.814 C 222.800 340.382,223.184 339.822,223.654 339.571 C 224.305 339.223,224.383 339.037,223.982 338.789 C 223.388 338.422,223.145 337.292,223.189 335.100 C 223.217 333.707,223.137 333.600,222.068 333.600 C 221.435 333.600,219.856 333.518,218.559 333.418 C 217.261 333.317,215.660 333.384,215.000 333.567 " stroke="none" fill="#5494fc" fill-rule="evenodd"></path></g></svg>