<?xml version="1.0" encoding="UTF-8"?>
<svg version="1.1" xmlns="http://www.w3.org/2000/svg" width="1000" height="1000">
<path d="M0 0 C0 0.66 0 1.32 0 2 C1.32 2 2.64 2 4 2 C4.08086147 3.79093191 4.13912702 5.58289628 4.1875 7.375 C4.22230469 8.37273437 4.25710938 9.37046875 4.29296875 10.3984375 C4.19628906 11.25695312 4.09960938 12.11546875 4 13 C1 15 1 15 -2 15 C-2.12375 15.804375 -2.2475 16.60875 -2.375 17.4375 C-2.684375 18.7059375 -2.684375 18.7059375 -3 20 C-3.66 20.33 -4.32 20.66 -5 21 C-5.71247732 22.6476038 -6.37400383 24.31763529 -7 26 C-7.65213539 27.34050052 -8.31379969 28.67661368 -9 30 C-9.66 30 -10.32 30 -11 30 C-11 30.99 -11 31.98 -11 33 C-11.66 33 -12.32 33 -13 33 C-13.144375 34.258125 -13.28875 35.51625 -13.4375 36.8125 C-13.73748686 39.42667123 -14.15813297 41.47439892 -15 44 C-15.66 44.33 -16.32 44.66 -17 45 C-17.35729936 46.32711192 -17.68325425 47.66262906 -18 49 C-18.7425 50.7015625 -18.7425 50.7015625 -19.5 52.4375 C-20.73921944 55.38064616 -21.52538482 57.86753978 -22 61 C-22.66 61 -23.32 61 -24 61 C-24.04898437 61.59167969 -24.09796875 62.18335938 -24.1484375 62.79296875 C-24.56456867 67.19104472 -25.04965595 70.96928897 -27 75 C-27.66 75 -28.32 75 -29 75 C-28.938125 76.918125 -28.938125 76.918125 -28.875 78.875 C-28.85842217 84.08872856 -29.81688642 88.94007672 -31 94 C-31.66 94 -32.32 94 -33 94 C-33 95.65 -33 97.3 -33 99 C-33.66 99 -34.32 99 -35 99 C-34.9690625 100.2065625 -34.9690625 100.2065625 -34.9375 101.4375 C-35 104 -35 104 -36 105 C-36.07244053 107.01964199 -36.08377188 109.04167124 -36.0625 111.0625 C-36.04896484 112.71958984 -36.04896484 112.71958984 -36.03515625 114.41015625 C-36.02355469 115.26480469 -36.01195312 116.11945313 -36 117 C-36.66 117 -37.32 117 -38 117 C-38 121.62 -38 126.24 -38 131 C-36.96488281 130.79068848 -35.92976563 130.58137695 -34.86328125 130.36572266 C-19.94725545 127.57385428 -5.13498903 127.47986136 10 127.375 C13.83600269 127.3384208 17.6719058 127.297895 21.5078125 127.25234985 C23.87493961 127.22524916 26.24214048 127.20384383 28.609375 127.18881226 C29.66898437 127.17855011 30.72859375 127.16828796 31.8203125 127.15771484 C32.75117676 127.15121918 33.68204102 127.14472351 34.64111328 127.13803101 C37.15253554 127.09374929 37.15253554 127.09374929 40 126 C40.67441131 124.3364521 41.3400321 122.66933058 42 121 C43.31328657 119.64691687 44.64499081 118.31129922 46 117 C46.33 116.01 46.66 115.02 47 114 C47.66 114 48.32 114 49 114 C49 113.34 49 112.68 49 112 C49.804375 111.360625 50.60875 110.72125 51.4375 110.0625 C54.23720732 108.18964068 54.23720732 108.18964068 55 105 C55.78375 104.9175 56.5675 104.835 57.375 104.75 C60.1446618 104.29150599 60.1446618 104.29150599 61.125 102 C61.41375 101.34 61.7025 100.68 62 100 C63.485 99.505 63.485 99.505 65 99 C65 98.34 65 97.68 65 97 C66.42578125 95.52734375 66.42578125 95.52734375 68.3125 93.9375 C69.23482422 93.14666016 69.23482422 93.14666016 70.17578125 92.33984375 C72 91 72 91 75 90 C75.680625 89.01 75.680625 89.01 76.375 88 C78.43828906 85.46056731 79.85557476 85.4964882 83 85 C83.33 84.34 83.66 83.68 84 83 C86.36841639 81.02631968 88.04152015 79.98615995 91 79 C91.66 78.01 92.32 77.02 93 76 C93.99 76 94.98 76 96 76 C96 75.01 96 74.02 96 73 C96.66 73 97.32 73 98 73 C98.33 72.01 98.66 71.02 99 70 C100.59375 68.90234375 100.59375 68.90234375 102.5 67.9375 C105.33019068 66.57554472 105.33019068 66.57554472 107 64 C108.97888961 63.27306096 110.97954558 62.60183749 113 62 C113 61.34 113 60.68 113 60 C113.66 60 114.32 60 115 60 C115 59.01 115 58.02 115 57 C115.7425 56.7525 116.485 56.505 117.25 56.25 C120.04576429 55.18212739 120.04576429 55.18212739 121.8125 53.125 C124.4041233 50.60742308 126.9850036 49.49973876 130.29296875 48.125 C132.20123734 47.11554264 132.20123734 47.11554264 132.73828125 44.875 C132.82464844 44.25625 132.91101563 43.6375 133 43 C135.31 42.67 137.62 42.34 140 42 C140.33 41.01 140.66 40.02 141 39 C142.73715995 36.74169207 143.59575029 36.07255764 146.4375 35.5625 C149.67593342 34.85162437 150.7698953 33.37877835 153 31 C153.99 30.67 154.98 30.34 156 30 C157.02196992 29.02246356 158.01979625 28.0194119 159 27 C162.66666667 24 162.66666667 24 165 24 C165.33 23.01 165.66 22.02 166 21 C169.4934597 19.25327015 172.06845568 18 176 18 C176.33 17.01 176.66 16.02 177 15 C179.03125 13.90234375 179.03125 13.90234375 181.5 12.9375 C184.96056812 11.77297997 184.96056812 11.77297997 187 9 C195.90117756 6.46574558 206.21088611 5.59011556 215 9 C215.66 9.99 216.32 10.98 217 12 C218.175625 12.495 219.35125 12.99 220.5625 13.5 C222.2640625 14.2425 222.2640625 14.2425 224 15 C224.33 15.99 224.66 16.98 225 18 C225.763125 18.061875 226.52625 18.12375 227.3125 18.1875 C230.90652146 19.27406463 231.23341441 20.76125975 233 24 C236.74504907 28.32300427 236.74504907 28.32300427 242 30 C242.185625 31.175625 242.185625 31.175625 242.375 32.375 C242.79117993 35.14057822 242.79117993 35.14057822 245 37 C244.67 37.66 244.34 38.32 244 39 C245.32 39 246.64 39 248 39 C248.33 40.98 248.66 42.96 249 45 C249.99 45.33 250.98 45.66 252 46 C253.64820195 48.60242414 254 49.86248779 254 53 C254.66 53 255.32 53 256 53 C256 54.98 256 56.96 256 59 C256.66 59 257.32 59 258 59 C258.95261487 63.76307437 259.08333357 68.1666528 259 73 C259.66 73 260.32 73 261 73 C260.96744792 75.05078125 260.93489583 77.1015625 260.90234375 79.15234375 C260.79438816 81.01732141 260.79438816 81.01732141 262 82 C262.25538961 86.38969673 262.1852374 90.79126557 262.1875 95.1875 C262.19974609 96.42048828 262.21199219 97.65347656 262.22460938 98.92382812 C262.22750977 100.71530273 262.22750977 100.71530273 262.23046875 102.54296875 C262.23457764 103.63633545 262.23868652 104.72970215 262.24291992 105.85620117 C261.98445692 109.20115401 261.17820904 111.86994867 260 115 C259.73058594 115.83144531 259.46117187 116.66289062 259.18359375 117.51953125 C258.93738281 118.27621094 258.69117188 119.03289062 258.4375 119.8125 C258.18871094 120.58207031 257.93992187 121.35164063 257.68359375 122.14453125 C257 124 257 124 256 125 C256.0309375 126.36125 256.0309375 126.36125 256.0625 127.75 C255.99935154 131.03371969 255.38420337 133.05856784 254 136 C253.34 136 252.68 136 252 136 C251.67 137.65 251.34 139.3 251 141 C250.34 141 249.68 141 249 141 C248.87882813 142.13179687 248.75765625 143.26359375 248.6328125 144.4296875 C248.46399724 145.91151031 248.29470145 147.39327842 248.125 148.875 C248.00705078 149.99455078 248.00705078 149.99455078 247.88671875 151.13671875 C247.2265625 156.7734375 247.2265625 156.7734375 245 159 C245 159.99 245 160.98 245 162 C244.34 162 243.68 162 243 162 C243 172.56 243 183.12 243 194 C243.66 194.33 244.32 194.66 245 195 C247.00286901 197.80401662 247.96218534 199.75893155 248.5 203.1875 C248.665 204.115625 248.83 205.04375 249 206 C249.99 206.66 250.98 207.32 252 208 C252.73046875 210.1640625 252.73046875 210.1640625 253.1875 212.625 C253.42533203 213.85089844 253.42533203 213.85089844 253.66796875 215.1015625 C253.77753906 215.72804688 253.88710938 216.35453125 254 217 C254.66 217 255.32 217 256 217 C256.1546875 217.804375 256.1546875 217.804375 256.3125 218.625 C256.97762618 221.19076628 256.97762618 221.19076628 258.5625 224.125 C260 227 260 227 260 229 C260.66 229 261.32 229 262 229 C262.268125 230.11375 262.53625 231.2275 262.8125 232.375 C263.65809019 236.21840951 263.65809019 236.21840951 267 238 C267.165 238.680625 267.33 239.36125 267.5 240.0625 C267.665 240.701875 267.83 241.34125 268 242 C268.99 242.33 269.98 242.66 271 243 C271 244.98 271 246.96 271 249 C271.66 249.33 272.32 249.66 273 250 C273.144375 250.66 273.28875 251.32 273.4375 252 C273.623125 252.66 273.80875 253.32 274 254 C274.99 254.33 275.98 254.66 277 255 C280.03329943 273.97756569 278.79648589 292.96428601 277 312 C275.68 312 274.36 312 273 312 C272.87625 312.5775 272.7525 313.155 272.625 313.75 C271.99351176 316.02335767 271.11141809 317.9253529 270 320 C269.34 320 268.68 320 268 320 C268 320.99 268 321.98 268 323 C267.34 323.66 266.68 324.32 266 325 C266 325.99 266 326.98 266 328 C264.68 328 263.36 328 262 328 C260.95590197 331.13229408 261.02914949 332.35873231 261.5234375 335.53515625 C261.6575 336.42783203 261.7915625 337.32050781 261.9296875 338.24023438 C262.15011719 339.63725586 262.15011719 339.63725586 262.375 341.0625 C262.93589994 344.70575285 263.48196479 348.35038854 264 352 C264.10441406 352.73524902 264.20882812 353.47049805 264.31640625 354.22802734 C268.04492017 385.17064013 265.47818024 418.04316077 257.3046875 447.98046875 C256.23161098 452.00459948 255.23635234 455.83360291 255 460 C257.38118166 462.22168366 257.38118166 462.22168366 260 464 C260 465.32 260 466.64 260 468 C260.66 468 261.32 468 262 468 C262.28875 468.78375 262.5775 469.5675 262.875 470.375 C263.84912254 473.09671632 263.84912254 473.09671632 266 475 C268.22720986 482.02895275 268.27942389 489.26180769 268.1875 496.5625 C268.18685547 497.53896484 268.18621094 498.51542969 268.18554688 499.52148438 C268.15003255 505.42080831 267.75473617 511.1492852 267 517 C266.34 517 265.68 517 265 517 C265.20625 517.61875 265.4125 518.2375 265.625 518.875 C265.810625 519.926875 265.810625 519.926875 266 521 C265.34 521.66 264.68 522.32 264 523 C264 524.32 264 525.64 264 527 C263.34 527 262.68 527 262 527 C262 528.98 262 530.96 262 533 C261.34 533 260.68 533 260 533 C259.87625 533.969375 259.7525 534.93875 259.625 535.9375 C259.41875 536.948125 259.2125 537.95875 259 539 C258.34 539.33 257.68 539.66 257 540 C256.26924352 542.3140622 255.59861742 544.64828869 255 547 C254.34 547 253.68 547 253 547 C253 547.66 253 548.32 253 549 C252.34 549 251.68 549 251 549 C251 549.66 251 550.32 251 551 C250.34 551 249.68 551 249 551 C248.93554688 551.89589844 248.87109375 552.79179688 248.8046875 553.71484375 C247.8039228 557.80048992 246.35695301 558.94414967 243.125 561.5625 C239.2935606 564.69579082 237.65266275 566.57889542 235 571 C245.56 581.56 256.12 592.12 267 603 C269.00470942 601.99764529 271.00948184 600.99509241 273 599.96484375 C273.66 599.62582031 274.32 599.28679688 275 598.9375 C275.66 598.59589844 276.32 598.25429688 277 597.90234375 C283.45274998 594.99104444 290.31299002 595.14239418 296.9375 597.4375 C309.35049605 603.12505404 319.44214912 616.23589635 329.01611328 625.72802734 C330.7218785 627.4160419 332.42776875 629.10393011 334.1337738 630.79170227 C349.61328336 646.11310011 365.05658655 661.47114126 380.49051094 676.83844566 C382.54958323 678.88847155 384.60873715 680.93841539 386.66796875 682.98828125 C387.17969009 683.49768268 387.69141143 684.0070841 388.21863948 684.53192194 C396.52718685 692.80161132 404.85639713 701.05017809 413.19369067 709.29087441 C421.77092721 717.76955673 430.32720111 726.26896217 438.86400211 734.78835833 C443.6508966 739.56436123 448.44674635 744.33056268 453.26675797 749.07316208 C457.79374209 753.52941402 462.29415758 758.01085661 466.77548409 762.51300621 C468.42357533 764.15966788 470.081114 765.79693622 471.74863625 767.42391777 C474.02524653 769.64798648 476.2653035 771.90349657 478.49954224 774.17001343 C479.16585509 774.80496715 479.83216795 775.43992087 480.51867211 776.09411561 C484.15723991 779.87005063 485.41912601 782.45138531 485.55534077 787.75805759 C485.3949328 792.45507256 484.26911524 795.00416331 481.01304626 798.34446716 C480.13175804 799.16407677 480.13175804 799.16407677 479.23266602 800.00024414 C478.61979736 800.61311279 478.00692871 801.22598145 477.37548828 801.85742188 C475.35978825 803.86044267 473.30821199 805.82181747 471.25390625 807.78515625 C469.84136351 809.17461967 468.43131702 810.56662498 467.02366638 811.96104431 C463.32402267 815.61317747 459.59300034 819.23148882 455.85388184 822.84313965 C452.04501583 826.53228742 448.26428792 830.2500077 444.48242188 833.96679688 C440.23757613 838.13807347 435.99046804 842.30654288 431.71864319 846.45021057 C431.07203232 847.0787645 430.42542145 847.70731842 429.75921631 848.35491943 C428.54908183 849.53055229 427.3369458 850.70412961 426.1224823 851.87528992 C423.18934789 854.65060196 423.18934789 854.65060196 421 858 C418.3081066 858.21801611 415.63402481 858.37509893 412.9375 858.5 C412.18533203 858.56703125 411.43316406 858.6340625 410.65820312 858.703125 C407.24890056 858.82119608 404.88895781 858.81677338 402.29570931 856.43409973 C401.4966863 855.43419688 401.4966863 855.43419688 400.68152142 854.41409397 C397.21945498 850.24027913 393.54069648 846.41092062 389.6933136 842.59324646 C388.99186743 841.89306257 388.29042127 841.19287868 387.56771916 840.47147709 C385.23803156 838.14712812 382.90477796 835.82639298 380.5715332 833.50561523 C378.89204446 831.83132457 377.21280079 830.15678805 375.53378296 828.48202515 C371.92839886 824.88655299 368.32155822 821.29255066 364.71364784 817.69961357 C359.00814062 812.01722931 353.30755737 806.32992386 347.60795593 800.64161682 C345.65413343 798.69179471 343.70027677 796.74200682 341.74640942 794.79222965 C341.25827346 794.30511293 340.77013751 793.81799621 340.26720956 793.31611837 C334.72320945 787.78383761 329.17812763 782.25264165 323.63256836 776.72192383 C323.12618099 776.21688889 322.61979361 775.71185395 322.09806117 775.19151492 C313.88188864 766.99754944 305.66189089 758.80742953 297.44093785 750.61826073 C288.98723718 742.19696385 280.53931533 733.76989881 272.09629697 725.33789212 C266.43260612 719.68205632 260.76217252 714.03310985 255.08699572 708.38879573 C251.55953786 704.87734243 248.03839268 701.35961239 244.5190239 697.84005356 C242.8865922 696.21004368 241.25158199 694.58261142 239.61380959 692.95796776 C237.37744788 690.73878831 235.15055046 688.51051666 232.92573547 686.2797699 C232.27680952 685.64026459 231.62788356 685.00075928 230.95929319 684.34187502 C224.66694076 677.9932833 220.93661449 671.89862323 220.6875 662.8125 C220.74546165 655.58661375 223.24361751 649.46983987 228 644 C226.67281894 640.96179631 225.35354473 639.2222523 222.75 637.1875 C219.56474628 634.57717797 217.01651287 631.75874371 214.40234375 628.58984375 C212.49770377 626.43054438 210.25025715 624.78866594 208 623 C206.33333333 621 204.66666667 619 203 617 C202.175 616.34 201.35 615.68 200.5 615 C197.54946004 612.63956803 195.41540219 609.89848263 193 607 C192.175 606.34 191.35 605.68 190.5 605 C188 603 188 603 186.0625 599.8125 C184.04386585 597.19550849 182.95900192 596.99311195 179.60546875 596.4296875 C177.06780815 596.27028025 174.52643428 596.16084556 171.984375 596.10546875 C169 596 169 596 168 595 C161.50654529 593.19347473 155.7782868 592.76833535 149.8046875 596 C145.94192633 598.34176893 142.21382118 600.89044356 138.46533203 603.40966797 C127.34426668 610.58362516 115.21855399 616.33254784 102.73828125 620.68359375 C99.93242573 621.67165364 97.26474708 622.73820339 94.53515625 623.90234375 C88.26993935 626.42922544 81.78039427 628.01221014 75.23291016 629.60986328 C73.1334258 630.12294088 71.03735864 630.64848221 68.94140625 631.17578125 C51.39137889 635.54711617 34.32515165 637.10034693 16.3125 637.5625 C14.72460067 637.60580192 13.13670992 637.64941943 11.54882812 637.69335938 C7.69930779 637.79920689 3.84969711 637.90079909 0 638 C-0.99 639.98 -1.98 641.96 -3 644 C-3.66 644 -4.32 644 -5 644 C-5 645.32 -5 646.64 -5 648 C-5.66 648.33 -6.32 648.66 -7 649 C-7.33 649.99 -7.66 650.98 -8 652 C-8.66 652 -9.32 652 -10 652 C-10 652.66 -10 653.32 -10 654 C-11.64351457 655.36176922 -13.31522656 656.68962066 -15 658 C-15.86625 658.886875 -16.7325 659.77375 -17.625 660.6875 C-20 663 -20 663 -23 664 C-23.928125 664.9590625 -23.928125 664.9590625 -24.875 665.9375 C-27.94661085 668.91876936 -30.55113173 669.93560585 -34.8125 670.125 C-35.534375 670.08375 -36.25625 670.0425 -37 670 C-37.309375 670.928125 -37.309375 670.928125 -37.625 671.875 C-39.62670101 674.96853792 -41.44047236 675.10430348 -45 676 C-48.19248183 676.27768712 -51.36727048 676.28049654 -54.5703125 676.265625 C-55.48779266 676.26753845 -56.40527283 676.2694519 -57.35055542 676.27142334 C-59.28871943 676.2727807 -61.22689267 676.2691157 -63.16503906 676.26074219 C-66.09461553 676.25011027 -69.02356841 676.26061453 -71.953125 676.2734375 C-81.49234964 676.27953636 -90.6608876 676.1572588 -100 674 C-100 673.34 -100 672.68 -100 672 C-100.99 672.33 -101.98 672.66 -103 673 C-103.66 672.67 -104.32 672.34 -105 672 C-105 671.34 -105 670.68 -105 670 C-106.6396875 670.12375 -106.6396875 670.12375 -108.3125 670.25 C-113.96174492 670.29056908 -118.84643404 668.12205657 -124 666 C-124 665.34 -124 664.68 -124 664 C-125.2684375 663.8453125 -125.2684375 663.8453125 -126.5625 663.6875 C-130.46055473 662.90788905 -133.43403179 661.74802363 -137 660 C-137.33 659.34 -137.66 658.68 -138 658 C-138.969375 657.896875 -139.93875 657.79375 -140.9375 657.6875 C-141.948125 657.460625 -142.95875 657.23375 -144 657 C-145.1875 654.5 -145.1875 654.5 -146 652 C-146.99 651.67 -147.98 651.34 -149 651 C-149 650.34 -149 649.68 -149 649 C-149.598125 648.731875 -150.19625 648.46375 -150.8125 648.1875 C-152.98525092 647.00800664 -154.30618365 645.770808 -156 644 C-156.66 643.67 -157.32 643.34 -158 643 C-158.226875 642.278125 -158.45375 641.55625 -158.6875 640.8125 C-160.04652002 637.90031424 -160.84479384 637.19265707 -163.3125 635.3125 C-167.24802375 632.18047901 -168.96305998 628.62700639 -170.95703125 624.07421875 C-171.82132405 621.84009105 -171.82132405 621.84009105 -174 621 C-174 619.35 -174 617.7 -174 616 C-174.66 615.67 -175.32 615.34 -176 615 C-176.04943465 610.21282458 -176.08573582 605.42579773 -176.10986328 600.63842773 C-176.11992142 599.00982068 -176.13356958 597.38123168 -176.15087891 595.75268555 C-176.17513574 593.41190128 -176.18648483 591.07135576 -176.1953125 588.73046875 C-176.20563507 588.00224411 -176.21595764 587.27401947 -176.22659302 586.52372742 C-176.22742249 582.78724931 -176.12883296 581.19324944 -174 578 C-173.65846063 576.33499557 -173.32550502 574.66821323 -173 573 C-172.33333333 571.66666667 -171.66666667 570.33333333 -171 569 C-169.91199049 566.75048614 -169.91199049 566.75048614 -170 564 C-171.8439368 561.60959848 -173.60804894 559.65348028 -175.75 557.5625 C-176.96513665 556.31658164 -178.17599414 555.0664773 -179.3828125 553.8125 C-179.99415039 553.17828125 -180.60548828 552.5440625 -181.23535156 551.890625 C-185.87614704 546.91852758 -189.91665295 541.43034024 -194 536 C-194.47743652 535.36884277 -194.95487305 534.73768555 -195.44677734 534.08740234 C-200.64512298 527.19480666 -205.66176041 520.3688207 -209.78125 512.7578125 C-210.96209702 510.67960907 -210.96209702 510.67960907 -214 510 C-216.83254261 509.73484371 -219.66459816 509.55612734 -222.50390625 509.37890625 C-225 509 -225 509 -227 507 C-229.66949409 506.75684344 -229.66949409 506.75684344 -232.625 506.875 C-233.62789062 506.89304687 -234.63078125 506.91109375 -235.6640625 506.9296875 C-236.43492187 506.95289063 -237.20578125 506.97609375 -238 507 C-238 506.34 -238 505.68 -238 505 C-238.89203125 504.95101563 -239.7840625 504.90203125 -240.703125 504.8515625 C-241.87359375 504.77679687 -243.0440625 504.70203125 -244.25 504.625 C-245.41015625 504.55539062 -246.5703125 504.48578125 -247.765625 504.4140625 C-250.70694334 504.03751692 -252.49949011 503.5225877 -255 502 C-255 501.34 -255 500.68 -255 500 C-255.80824219 499.95101563 -256.61648438 499.90203125 -257.44921875 499.8515625 C-258.51785156 499.77679687 -259.58648437 499.70203125 -260.6875 499.625 C-261.74324219 499.55539062 -262.79898438 499.48578125 -263.88671875 499.4140625 C-266.9559086 499.0058641 -269.26648053 498.44802653 -272 497 C-272.33 496.01 -272.66 495.02 -273 494 C-273.556875 493.97421875 -274.11375 493.9484375 -274.6875 493.921875 C-283.30014229 493.28174618 -289.23532177 490.5436888 -295 484 C-296.66666667 482 -298.33333333 480 -300 478 C-300.9075 477.113125 -301.815 476.22625 -302.75 475.3125 C-305 473 -305 473 -306 470 C-306.99 469.67 -307.98 469.34 -309 469 C-311.03450173 466.652498 -312.00787667 464.97637 -313 462 C-313.66 461.67 -314.32 461.34 -315 461 C-315.33333333 459.66666667 -315.66666667 458.33333333 -316 457 C-316.66 456.67 -317.32 456.34 -318 456 C-318 452.04 -318 448.08 -318 444 C-318.66 444 -319.32 444 -320 444 C-320.95261487 439.23692563 -321.08333357 434.8333472 -321 430 C-321.66 430 -322.32 430 -323 430 C-323.99862699 422.63512596 -324.10331031 415.42686315 -324 408 C-324.66 408 -325.32 408 -326 408 C-328.26849666 404.34827367 -328.3895951 400.9872882 -328.625 396.75 C-328.69976562 395.48671875 -328.77453125 394.2234375 -328.8515625 392.921875 C-328.90054688 391.95765625 -328.94953125 390.9934375 -329 390 C-329.99 390 -330.98 390 -332 390 C-332.12375 389.360625 -332.2475 388.72125 -332.375 388.0625 C-332.684375 386.5465625 -332.684375 386.5465625 -333 385 C-333.12246094 384.27554687 -333.24492187 383.55109375 -333.37109375 382.8046875 C-334.29565459 377.84642318 -335.17544184 375.45443963 -339 372 C-339.75 369.25 -339.75 369.25 -340 367 C-340.66 367 -341.32 367 -342 367 C-342.495 365.515 -342.495 365.515 -343 364 C-344.62102968 362.28891311 -346.29503463 360.62746694 -348 359 C-348.804375 358.13375 -349.60875 357.2675 -350.4375 356.375 C-353.12704976 353.88224657 -355.66093537 352.47540065 -359 351 C-359 350.34 -359 349.68 -359 349 C-359.99 349 -360.98 349 -362 349 C-362 348.34 -362 347.68 -362 347 C-362.5775 346.72285156 -363.155 346.44570313 -363.75 346.16015625 C-366.63477289 344.67269523 -369.29115112 342.90406655 -372 341.12109375 C-374.00772679 339.99566877 -375.75249188 339.44649157 -378 339 C-378 338.01 -378 337.02 -378 336 C-378.94875 335.7525 -379.8975 335.505 -380.875 335.25 C-384.43559968 333.82576013 -384.51742659 333.28284113 -386 330 C-387.85744207 329.38932856 -387.85744207 329.38932856 -390 329 C-396.5034382 325.6603966 -405.66434574 319.00696278 -408 312 C-408.99 312 -409.98 312 -411 312 C-411 310.68 -411 309.36 -411 308 C-411.66 308 -412.32 308 -413 308 C-413 307.34 -413 306.68 -413 306 C-413.66 306 -414.32 306 -415 306 C-415 305.01 -415 304.02 -415 303 C-415.66 303 -416.32 303 -417 303 C-417.33 301.02 -417.66 299.04 -418 297 C-418.66 297 -419.32 297 -420 297 C-420.103125 296.401875 -420.20625 295.80375 -420.3125 295.1875 C-420.83135614 292.94699765 -420.83135614 292.94699765 -422.4375 291.5625 C-425.1658407 288.8341593 -425.95617236 285.98612188 -426.125 282.1875 C-426.08375 281.465625 -426.0425 280.74375 -426 280 C-426.66 280 -427.32 280 -428 280 C-428 261.19 -428 242.38 -428 223 C-427.34 223 -426.68 223 -426 223 C-425.9175 221.7625 -425.835 220.525 -425.75 219.25 C-425.26664327 215.21254968 -424.08466161 213.69907891 -421 211 C-420.855625 210.29875 -420.71125 209.5975 -420.5625 208.875 C-420.376875 208.25625 -420.19125 207.6375 -420 207 C-417.10888212 205.47835901 -415.28176588 205 -412 205 C-411.67 204.01 -411.34 203.02 -411 202 C-403.99294824 199.01827585 -395.45953853 199.60574919 -387.99609375 199.43359375 C-382.61531605 199.2619462 -378.11870541 198.648622 -373 197 C-370.01804954 197 -367.03658315 197.01737203 -364.0546875 197.03515625 C-361.66145911 197.0444736 -359.2682299 197.05357955 -356.875 197.0625 C-355.65683594 197.07087891 -354.43867188 197.07925781 -353.18359375 197.08789062 C-352.02730469 197.09111328 -350.87101562 197.09433594 -349.6796875 197.09765625 C-348.61476074 197.10289307 -347.54983398 197.10812988 -346.45263672 197.11352539 C-344.05390531 197.27845718 -344.05390531 197.27845718 -343 196 C-341.53521494 195.90116664 -340.06577042 195.86920711 -338.59765625 195.8671875 C-337.70755859 195.86589844 -336.81746094 195.86460937 -335.90039062 195.86328125 C-334.96388672 195.86714844 -334.02738281 195.87101563 -333.0625 195.875 C-332.12986328 195.87113281 -331.19722656 195.86726562 -330.23632812 195.86328125 C-329.34494141 195.86457031 -328.45355469 195.86585938 -327.53515625 195.8671875 C-326.714104 195.86831543 -325.89305176 195.86944336 -325.04711914 195.87060547 C-323 196 -323 196 -321 197 C-317.42474859 197.07088479 -313.86045217 196.99665691 -310.28515625 196.9375 C-307 197 -307 197 -304 198 C-303.01 198 -302.02 198 -301 198 C-300.67 198.33 -300.34 198.66 -300 199 C-298.02852371 199.11322285 -296.05302306 199.15684865 -294.07836914 199.17358398 C-292.1748745 199.19381874 -292.1748745 199.19381874 -290.23292542 199.21446228 C-289.54958193 199.21952223 -288.86623844 199.22458218 -288.16218758 199.22979546 C-286.02115891 199.246201 -283.88030617 199.26944602 -281.73936462 199.29469299 C-275.64981903 199.36542729 -269.56019566 199.42517944 -263.47045898 199.47680664 C-259.74741074 199.50885225 -256.02455494 199.55020638 -252.30166435 199.59700203 C-250.88930213 199.61289094 -249.47689548 199.62527201 -248.06447029 199.63390923 C-229.08782224 199.75148401 -229.08782224 199.75148401 -221 204 C-216.69883551 205.70046038 -212.74807818 206.29078799 -208.19140625 206.71484375 C-205.30861338 207.08996653 -202.70608805 207.9591969 -200 209 C-200 209.66 -200 210.32 -200 211 C-190.54077993 212.47604507 -190.54077993 212.47604507 -181 213 C-180.34 212.01 -179.68 211.02 -179 210 C-178.34 210 -177.68 210 -177 210 C-176.59382446 209.10704224 -176.59382446 209.10704224 -176.17944336 208.19604492 C-175.01394487 206.02596441 -173.85807034 204.60015376 -172.12890625 202.86328125 C-171.56002686 202.29037354 -170.99114746 201.71746582 -170.4050293 201.12719727 C-169.79699463 200.52834717 -169.18895996 199.92949707 -168.5625 199.3125 C-167.93577393 198.69109131 -167.30904785 198.06968262 -166.66333008 197.42944336 C-161.37452188 192.24682803 -155.8518848 187.54149342 -150 183 C-148.70835937 181.95972656 -148.70835937 181.95972656 -147.390625 180.8984375 C-141.2626992 176 -141.2626992 176 -139 176 C-140.05260374 169.98512146 -143.56308017 167.46138542 -148.1015625 163.83203125 C-148.72804688 163.22746094 -149.35453125 162.62289062 -150 162 C-150 161.01 -150 160.02 -150 159 C-150.99 159 -151.98 159 -153 159 C-154.37868281 157.37064759 -155.71274093 155.70250393 -157 154 C-157.66 153.67 -158.32 153.34 -159 153 C-159 152.34 -159 151.68 -159 151 C-159.99 150.67 -160.98 150.34 -162 150 C-162 149.34 -162 148.68 -162 148 C-162.61875 147.938125 -163.2375 147.87625 -163.875 147.8125 C-164.57625 147.544375 -165.2775 147.27625 -166 147 C-166.66666667 145.33333333 -167.33333333 143.66666667 -168 142 C-169.89179203 141.3185177 -169.89179203 141.3185177 -172 141 C-174.25 139.5625 -174.25 139.5625 -176 138 C-176 137.34 -176 136.68 -176 136 C-177.98 136 -179.96 136 -182 136 C-182.2475 135.030625 -182.495 134.06125 -182.75 133.0625 C-183.36875 131.5465625 -183.36875 131.5465625 -184 130 C-185.32463168 129.63361251 -186.65985562 129.30479818 -188 129 C-189.9296875 127.66015625 -189.9296875 127.66015625 -191.875 126.0625 C-194.53102706 123.97243011 -196.15846553 122.94813855 -199.4375 121.875 C-200.283125 121.58625 -201.12875 121.2975 -202 121 C-202.13664063 120.35417969 -202.27328125 119.70835937 -202.4140625 119.04296875 C-202.60742188 118.36878906 -202.80078125 117.69460937 -203 117 C-204.78622672 115.97587857 -204.78622672 115.97587857 -206.9375 115.4375 C-210.44293593 114.41322562 -210.83002062 114.25496907 -213 111 C-215.11633845 110.0998674 -215.11633845 110.0998674 -217.5 109.5 C-221.77777778 108.33333333 -221.77777778 108.33333333 -224 105 C-226.56427181 104.07839815 -229.13741991 103.48194183 -231.78515625 102.84375 C-232.51605469 102.5653125 -233.24695313 102.286875 -234 102 C-234.33 101.01 -234.66 100.02 -235 99 C-235.77085937 98.86722656 -236.54171875 98.73445313 -237.3359375 98.59765625 C-238.84027344 98.33275391 -238.84027344 98.33275391 -240.375 98.0625 C-241.37273437 97.88847656 -242.37046875 97.71445313 -243.3984375 97.53515625 C-246 97 -246 97 -248 96 C-250.3329866 95.95977609 -252.66706666 95.95679753 -255 96 C-255.33 94.68 -255.66 93.36 -256 92 C-256.66 92 -257.32 92 -258 92 C-257.67 90.68 -257.34 89.36 -257 88 C-257.99 88 -258.98 88 -260 88 C-260 85.36 -260 82.72 -260 80 C-257.03 79.505 -257.03 79.505 -254 79 C-253.67 78.01 -253.34 77.02 -253 76 C-248.05 76 -243.1 76 -238 76 C-237.67 76.99 -237.34 77.98 -237 79 C-235.13103708 79.73759428 -235.13103708 79.73759428 -232.875 80.0625 C-228.82508644 80.83360354 -224.95010642 81.82337256 -221 83 C-221 83.66 -221 84.32 -221 85 C-220.4225 85.12375 -219.845 85.2475 -219.25 85.375 C-216.97664233 86.00648824 -215.0746471 86.88858191 -213 88 C-213 88.66 -213 89.32 -213 90 C-210.36 90.33 -207.72 90.66 -205 91 C-205 91.66 -205 92.32 -205 93 C-204.14148438 93.41765625 -204.14148438 93.41765625 -203.265625 93.84375 C-201.03382434 94.98273792 -198.89129126 96.19936383 -196.75 97.5 C-196.04359375 97.9228125 -195.3371875 98.345625 -194.609375 98.78125 C-194.07828125 99.1834375 -193.5471875 99.585625 -193 100 C-193 100.66 -193 101.32 -193 102 C-192.13375 102.103125 -191.2675 102.20625 -190.375 102.3125 C-186.83316877 103.03398414 -184.15687958 104.27123261 -181 106 C-181 106.66 -181 107.32 -181 108 C-180.34 108 -179.68 108 -179 108 C-179 108.66 -179 109.32 -179 110 C-177.68 110.66 -176.36 111.32 -175 112 C-175 112.66 -175 113.32 -175 114 C-174.4225 114.103125 -173.845 114.20625 -173.25 114.3125 C-170.64338842 115.10896465 -169.0264689 116.19065277 -167 118 C-167 118.66 -167 119.32 -167 120 C-166.01 120 -165.02 120 -164 120 C-164 120.66 -164 121.32 -164 122 C-163.113125 122.226875 -162.22625 122.45375 -161.3125 122.6875 C-156.89206743 124.43899215 -153.98818042 126.90738263 -151.9375 131.25 C-151.4734375 132.11625 -151.4734375 132.11625 -151 133 C-150.40574219 133.13277344 -149.81148438 133.26554688 -149.19921875 133.40234375 C-146.43727955 134.15292403 -145.00728746 135.41938547 -142.875 137.3125 C-142.19179688 137.90675781 -141.50859375 138.50101563 -140.8046875 139.11328125 C-139 141 -139 141 -138.0078125 143.10546875 C-136.71878205 145.52864615 -135.45638976 145.87549887 -133 147 C-131.32421875 148.515625 -131.32421875 148.515625 -129.6875 150.25 C-127.27229039 152.71703814 -124.85571633 155.16417041 -122.3125 157.5 C-121.77238281 158.0053125 -121.23226563 158.510625 -120.67578125 159.03125 C-119.05062887 160.20737794 -119.05062887 160.20737794 -117.16992188 159.69726562 C-114.82028923 158.94225316 -112.78794875 157.96492776 -110.60546875 156.8125 C-109.31213623 156.14130127 -109.31213623 156.14130127 -107.99267578 155.45654297 C-107.06696777 154.97588379 -106.14125977 154.49522461 -105.1875 154 C-97.14173457 149.90365536 -89.024841 146.18765185 -80.625 142.875 C-79.68164795 142.49730469 -78.7382959 142.11960938 -77.76635742 141.73046875 C-72.45405852 139.68372858 -67.6805332 138.43901076 -62 138 C-62.03480469 137.03900391 -62.03480469 137.03900391 -62.0703125 136.05859375 C-62.18468692 130.57679121 -61.56597995 126.28518233 -60 121 C-59.87774335 118.32502439 -59.95458392 115.67954858 -60 113 C-59.67 112.34 -59.34 111.68 -59 111 C-58.9603287 109.33380554 -58.95615553 107.66608987 -59 106 C-57.515 105.505 -57.515 105.505 -56 105 C-55.95101563 103.81921875 -55.90203125 102.6384375 -55.8515625 101.421875 C-55.77651121 99.86456063 -55.70096439 98.30727009 -55.625 96.75 C-55.5940625 95.97269531 -55.563125 95.19539063 -55.53125 94.39453125 C-55.16618114 87.27568856 -55.16618114 87.27568856 -53 84 C-52.34 84 -51.68 84 -51 84 C-50.67 80.7 -50.34 77.4 -50 74 C-49.34 74 -48.68 74 -48 74 C-48.01160156 73.38511719 -48.02320313 72.77023438 -48.03515625 72.13671875 C-48.04869141 70.92435547 -48.04869141 70.92435547 -48.0625 69.6875 C-48.07410156 68.88699219 -48.08570313 68.08648437 -48.09765625 67.26171875 C-48 65 -48 65 -47 62 C-46.34 62 -45.68 62 -45 62 C-45 60.02 -45 58.04 -45 56 C-44.34 56 -43.68 56 -43 56 C-42.855625 55.030625 -42.71125 54.06125 -42.5625 53.0625 C-42 50 -42 50 -41 49 C-41.0309375 47.7934375 -41.0309375 47.7934375 -41.0625 46.5625 C-41 44 -41 44 -39 42 C-38.34 41.67 -37.68 41.34 -37 41 C-37 39.35 -37 37.7 -37 36 C-36.34 36 -35.68 36 -35 36 C-35 34.02 -35 32.04 -35 30 C-34.01 30 -33.02 30 -32 30 C-31.83564453 29.06027344 -31.83564453 29.06027344 -31.66796875 28.1015625 C-31.50941406 27.28429687 -31.35085938 26.46703125 -31.1875 25.625 C-31.03667969 24.81289062 -30.88585937 24.00078125 -30.73046875 23.1640625 C-30 21 -30 21 -27 19 C-26.27034634 16.43717258 -26.27034634 16.43717258 -26 14 C-25.34 14 -24.68 14 -24 14 C-23.566875 12.824375 -23.566875 12.824375 -23.125 11.625 C-22 9 -22 9 -20 7 C-19.938125 6.360625 -19.87625 5.72125 -19.8125 5.0625 C-19 3 -19 3 -16.1875 1.25 C-11.00155982 -0.75711074 -5.4637851 -0.24223678 0 0 Z M-14.9375 183.25 C-16.44872437 183.44589722 -16.44872437 183.44589722 -17.99047852 183.64575195 C-26.51442686 184.81294285 -34.73484474 186.63681337 -43 189 C-43.02683987 191.97922593 -43.04676037 194.95821295 -43.0625 197.9375 C-43.07087891 198.78763672 -43.07925781 199.63777344 -43.08789062 200.51367188 C-43.09111328 201.32255859 -43.09433594 202.13144531 -43.09765625 202.96484375 C-43.10289307 203.7137085 -43.10812988 204.46257324 -43.11352539 205.23413086 C-43.19341752 207.02667739 -43.19341752 207.02667739 -42 208 C-41.76518307 210.18292774 -41.58636677 212.37203174 -41.4375 214.5625 C-41.35371094 215.76003906 -41.26992188 216.95757812 -41.18359375 218.19140625 C-41.12300781 219.11824219 -41.06242187 220.04507813 -41 221 C-40.34 221 -39.68 221 -39 221 C-38.93941406 222.28777344 -38.87882812 223.57554687 -38.81640625 224.90234375 C-38.73201753 226.58074159 -38.6473687 228.25912636 -38.5625 229.9375 C-38.52318359 230.78763672 -38.48386719 231.63777344 -38.44335938 232.51367188 C-38.40146484 233.32255859 -38.35957031 234.13144531 -38.31640625 234.96484375 C-38.27974854 235.7137085 -38.24309082 236.46257324 -38.20532227 237.23413086 C-38.18228937 239.02461326 -38.18228937 239.02461326 -37 240 C-36.92686433 242.53049402 -36.90752473 245.03304837 -36.9375 247.5625 C-36.94201172 248.27341797 -36.94652344 248.98433594 -36.95117188 249.71679688 C-36.96299136 251.47790013 -36.98092737 253.23896036 -37 255 C-36.34 255 -35.68 255 -35 255 C-35 256.98 -35 258.96 -35 261 C-34.34 261 -33.68 261 -33 261 C-33.020625 261.886875 -33.04125 262.77375 -33.0625 263.6875 C-33.00667897 266.64601466 -32.81126923 269.1605577 -32 272 C-31.34 272.33 -30.68 272.66 -30 273 C-30 273.99 -30 274.98 -30 276 C-28.02 275.505 -28.02 275.505 -26 275 C-26 270.05 -26 265.1 -26 260 C-25.34 260 -24.68 260 -24 260 C-23.67 256.7 -23.34 253.4 -23 250 C-22.34 250 -21.68 250 -21 250 C-20.87625 248.700625 -20.7525 247.40125 -20.625 246.0625 C-20.4140625 243.84765625 -20.4140625 243.84765625 -20 242 C-19.01 241.505 -19.01 241.505 -18 241 C-18.66 241 -19.32 241 -20 241 C-20 239.68 -20 238.36 -20 237 C-19.34 237 -18.68 237 -18 237 C-17.67 234.36 -17.34 231.72 -17 229 C-16.34 229 -15.68 229 -15 229 C-15 228.01 -15 227.02 -15 226 C-14.34 226 -13.68 226 -13 226 C-12.89042969 225.16855469 -12.78085937 224.33710938 -12.66796875 223.48046875 C-12.50941406 222.39378906 -12.35085938 221.30710937 -12.1875 220.1875 C-12.03667969 219.10855469 -11.88585937 218.02960938 -11.73046875 216.91796875 C-10.94404004 213.77645941 -10.2105065 213.16913338 -8 211 C-7.49787171 208.52844411 -7.49787171 208.52844411 -7.4375 205.875 C-7.30859375 203.1796875 -7.30859375 203.1796875 -7 201 C-6.34 200.67 -5.68 200.34 -5 200 C-5.495 197.03 -5.495 197.03 -6 194 C-5.01 194 -4.02 194 -3 194 C-0.92178193 189.41281694 -0.92178193 189.41281694 0.5625 184.625 C0.706875 184.08875 0.85125 183.5525 1 183 C1.66 182.67 2.32 182.34 3 182 C-3.06906345 181.83164873 -8.92308756 182.46395503 -14.9375 183.25 Z M-69.44921875 197.96875 C-70.29677734 198.37480469 -71.14433594 198.78085937 -72.01757812 199.19921875 C-72.89865234 199.62847656 -73.77972656 200.05773437 -74.6875 200.5 C-75.58017578 200.92925781 -76.47285156 201.35851562 -77.39257812 201.80078125 C-79.59760785 202.8620255 -81.79989209 203.92859905 -84 205 C-83.67 205.66 -83.34 206.32 -83 207 C-82.34 207 -81.68 207 -81 207 C-81 208.32 -81 209.64 -81 211 C-80.01 211 -79.02 211 -78 211 C-78 211.66 -78 212.32 -78 213 C-77.34 213.66 -76.68 214.32 -76 215 C-76 215.66 -76 216.32 -76 217 C-75.34 217 -74.68 217 -74 217 C-73.22678118 219.98241547 -72.58803797 222.97580475 -72 226 C-71.01 226 -70.02 226 -69 226 C-69 226.99 -69 227.98 -69 229 C-68.34 229 -67.68 229 -67 229 C-67 229.99 -67 230.98 -67 232 C-66.34 232 -65.68 232 -65 232 C-65 233.65 -65 235.3 -65 237 C-63.515 237.495 -63.515 237.495 -62 238 C-62 238.99 -62 239.98 -62 241 C-61.34 241 -60.68 241 -60 241 C-60.06058594 240.26523437 -60.12117188 239.53046875 -60.18359375 238.7734375 C-61.24712748 224.53844754 -61.56948173 210.26524367 -62 196 C-65.22687227 196 -66.58661292 196.58547738 -69.44921875 197.96875 Z M-108.875 220.8125 C-109.53959229 221.30298828 -110.20418457 221.79347656 -110.88891602 222.29882812 C-115.4049281 225.68516316 -119.74584015 229.21955135 -123.9375 233 C-124.45103027 233.45608643 -124.96456055 233.91217285 -125.49365234 234.38208008 C-127.06895852 235.80410778 -127.06895852 235.80410778 -129 238 C-129 238.99 -129 239.98 -129 241 C-128.01 241 -127.02 241 -126 241 C-126 241.66 -126 242.32 -126 243 C-123.85248782 244.52596486 -123.85248782 244.52596486 -121.1875 246 C-118.39855144 247.60978272 -115.68092187 249.21271876 -113 251 C-112.01 251 -111.02 251 -110 251 C-109.773125 251.598125 -109.54625 252.19625 -109.3125 252.8125 C-107.64880506 255.58532489 -105.79334541 256.43300136 -103 258 C-102 259 -101 260 -100 261 C-96.32882462 263.50709011 -96.32882462 263.50709011 -92 264 C-91.67 264.99 -91.34 265.98 -91 267 C-88.07920195 269.07530387 -86.62453269 270 -83 270 C-82.67 270.99 -82.34 271.98 -82 273 C-79.02827774 275.7667759 -78.25809375 276 -74 276 C-73.9071875 277.1446875 -73.9071875 277.1446875 -73.8125 278.3125 C-73.25312018 281.18326599 -73.25312018 281.18326599 -70.6875 282.5625 C-69.800625 283.036875 -68.91375 283.51125 -68 284 C-66.66666667 285.33333333 -65.33333333 286.66666667 -64 288 C-63.34 288 -62.68 288 -62 288 C-62.58803797 284.97580475 -63.22678118 281.98241547 -64 279 C-64.99 279 -65.98 279 -67 279 C-67 277.35 -67 275.7 -67 274 C-67.66 274 -68.32 274 -69 274 C-68.8453125 273.01 -68.8453125 273.01 -68.6875 272 C-69.08521904 268.18189717 -70.65363858 266.07493011 -72.76171875 262.93359375 C-74.17505315 260.72665202 -75.04224435 258.43122589 -76 256 C-76.99 255.505 -76.99 255.505 -78 255 C-78 254.01 -78 253.02 -78 252 C-78.66 252 -79.32 252 -80 252 C-80.12375 251.360625 -80.2475 250.72125 -80.375 250.0625 C-80.58125 249.381875 -80.7875 248.70125 -81 248 C-81.66 247.67 -82.32 247.34 -83 247 C-83 245.68 -83 244.36 -83 243 C-83.66 243 -84.32 243 -85 243 C-85.33 241.35 -85.66 239.7 -86 238 C-86.66 238 -87.32 238 -88 238 C-88 237.34 -88 236.68 -88 236 C-88.66 236 -89.32 236 -90 236 C-90.1546875 234.8553125 -90.1546875 234.8553125 -90.3125 233.6875 C-91.04711194 230.81583516 -91.6716065 229.76957906 -94 228 C-94.66 228 -95.32 228 -96 228 C-96.495 224.04 -96.495 224.04 -97 220 C-98.32 219.67 -99.64 219.34 -101 219 C-100.67 218.01 -100.34 217.02 -100 216 C-103.51592384 216 -106.13208609 218.78408105 -108.875 220.8125 Z M203 386 C202.37738281 386.70189453 202.37738281 386.70189453 201.7421875 387.41796875 C198.69178684 390.18795141 194.7960577 391.65717784 191.09375 393.39453125 C186.54414597 395.54113373 186.54414597 395.54113373 183 399 C183 399.66 183 400.32 183 401 C180.69 401.33 178.38 401.66 176 402 C176 402.99 176 403.98 176 405 C174.783125 405.103125 173.56625 405.20625 172.3125 405.3125 C168.59852427 405.77427318 166.00373615 406.65333113 163 409 C163 409.66 163 410.32 163 411 C159.04 411.495 159.04 411.495 155 412 C155 412.33 155 412.66 155 413 C155.54938232 413.08564209 156.09876465 413.17128418 156.66479492 413.25952148 C159.17253608 413.65108339 161.68001877 414.0442772 164.1875 414.4375 C165.05181641 414.57220703 165.91613281 414.70691406 166.80664062 414.84570312 C170.88931675 415.48704305 174.95669077 416.13776221 179 417 C179 417.66 179 418.32 179 419 C185.27 419.66 191.54 420.32 198 421 C198 421.66 198 422.32 198 423 C200.31 423 202.62 423 205 423 C205.33 423.66 205.66 424.32 206 425 C209.47177104 410.632545 210.18559052 396.72351458 210 382 C207.59013056 382 204.86480792 384.69463446 203 386 Z M-127 504 C-129.31 504.33 -131.62 504.66 -134 505 C-134 505.66 -134 506.32 -134 507 C-137.96 507 -141.92 507 -146 507 C-143.51567521 511.14054132 -141.43301849 513.75255007 -138 517 C-135.44496043 515.71711243 -135.44496043 515.71711243 -133 514 C-133 513.01 -133 512.02 -133 511 C-132.34 511 -131.68 511 -131 511 C-131 510.01 -131 509.02 -131 508 C-130.34 508 -129.68 508 -129 508 C-129 507.34 -129 506.68 -129 506 C-128.01 506 -127.02 506 -126 506 C-126.33 505.34 -126.66 504.68 -127 504 Z M36 521 C34.38219843 522.61780157 34.77727853 524.45635518 34.68359375 526.69140625 C34.64169922 527.63564453 34.59980469 528.57988281 34.55664062 529.55273438 C34.51732422 530.54595703 34.47800781 531.53917969 34.4375 532.5625 C34.39431641 533.55958984 34.35113281 534.55667969 34.30664062 535.58398438 C34.20019702 538.0558415 34.09818072 540.5278031 34 543 C33.34 543 32.68 543 32 543 C32 544.65 32 546.3 32 548 C31.34 548 30.68 548 30 548 C29.649375 549.2375 29.29875 550.475 28.9375 551.75 C28.74027344 552.44609375 28.54304688 553.1421875 28.33984375 553.859375 C27.96513841 556.21958796 28.27346676 557.74419051 29 560 C28.01 560.495 28.01 560.495 27 561 C27 561.99 27 562.98 27 564 C26.01 564.495 26.01 564.495 25 565 C24.1625428 567.27897183 24.1625428 567.27897183 23.5 569.9375 C22.21722114 574.78277886 22.21722114 574.78277886 20 577 C20.32041397 579.60280568 20.32041397 579.60280568 21 582 C36.78948985 582.95801399 51.89858308 578.9805305 66.9375 574.6875 C67.59504272 574.50317413 68.25258545 574.31884827 68.93005371 574.12893677 C77.81829637 571.61783207 85.896266 568.43850094 94 564 C93.67 563.34 93.34 562.68 93 562 C92.01 562 91.02 562 90 562 C89.67 561.01 89.34 560.02 89 559 C87.06669397 557.90833725 87.06669397 557.90833725 85 557 C84.34 556.34 83.68 555.68 83 555 C82.01 555.495 82.01 555.495 81 556 C81 555.34 81 554.68 81 554 C77.77885843 551.68407978 77.77885843 551.68407978 74 551 C73.505 549.515 73.505 549.515 73 548 C69.78282646 545.6699963 69.78282646 545.6699963 66 545 C65.505 543.515 65.505 543.515 65 542 C63.30273642 540.94245088 63.30273642 540.94245088 61.25 540.125 C57.38409228 538.3407349 54.97430591 536.05928608 52 533 C51.01 533 50.02 533 49 533 C49 532.34 49 531.68 49 531 C48.34 531 47.68 531 47 531 C46.67 529.68 46.34 528.36 46 527 C44.68 527 43.36 527 42 527 C41.67 525.35 41.34 523.7 41 522 C39.34385343 521.61781233 37.67542976 521.28604898 36 521 Z " fill="#FEFEFF" transform="translate(465,74)"/>
<path d="M0 0 C1.12277344 0.31710937 2.24554687 0.63421875 3.40234375 0.9609375 C29.68150913 8.41466441 52.61440656 24.30631436 73 42 C74.29127141 43.06298033 75.58285524 44.12558148 76.875 45.1875 C79.93653347 47.82131923 82.53418828 50.75665165 85.140625 53.8359375 C86.38795401 55.28766076 87.6703413 56.70992838 88.984375 58.1015625 C119.83908835 90.87061938 140.98254757 140.33117286 139.6484375 185.7734375 C139.35111135 188.93441182 139.03236616 189.95303464 137.1640625 192.6640625 C134.85124328 194.46975192 132.65585521 195.76565119 130 197 C129.030625 197.598125 128.06125 198.19625 127.0625 198.8125 C126.381875 199.204375 125.70125 199.59625 125 200 C124.34 200.66 123.68 201.32 123 202 C117.57692308 205 117.57692308 205 114 205 C113.67 205.99 113.34 206.98 113 208 C112.34 208 111.68 208 111 208 C111 208.66 111 209.32 111 210 C108.69 210.33 106.38 210.66 104 211 C104 211.99 104 212.98 104 214 C102.96939453 214.27263672 102.96939453 214.27263672 101.91796875 214.55078125 C100.56638672 214.92783203 100.56638672 214.92783203 99.1875 215.3125 C98.29417969 215.55613281 97.40085937 215.79976562 96.48046875 216.05078125 C93.9735428 216.81248584 93.9735428 216.81248584 92.48828125 218.54296875 C90.49296951 220.49638418 88.71338832 220.6333259 86 221 C87.09699219 221.19335938 88.19398438 221.38671875 89.32421875 221.5859375 C90.77869582 221.84868175 92.23312017 222.11171801 93.6875 222.375 C94.40873047 222.50132812 95.12996094 222.62765625 95.87304688 222.7578125 C99.799252 223.47492759 103.33928805 224.339322 107 226 C107 226.66 107 227.32 107 228 C108.12019531 228.06058594 109.24039062 228.12117187 110.39453125 228.18359375 C111.86719984 228.26801424 113.33985544 228.35266149 114.8125 228.4375 C115.55048828 228.47681641 116.28847656 228.51613281 117.04882812 228.55664062 C120.23071342 228.74381035 122.96162378 228.98720793 126 230 C126 230.66 126 231.32 126 232 C128.31 232 130.62 232 133 232 C137.79380674 249.89468954 120.44694764 278.61555856 111.72094727 293.98510742 C103.85251763 307.28280359 94.22171793 319.53914175 83.41162109 330.55761719 C82.02567368 331.97376684 80.66294358 333.41251981 79.30078125 334.8515625 C66.16329467 348.46851939 50.4914966 359.57512846 33.875 368.5625 C33.25955322 368.89725342 32.64410645 369.23200684 32.01000977 369.5769043 C28.70970672 371.30750099 25.72237347 372.60540211 22 373 C19.29362471 372.02269781 18.29743778 371.59487555 17 369 C14.34243936 367.25160484 12.02617555 366.00872518 9 365 C9 364.34 9 363.68 9 363 C8.4225 362.9175 7.845 362.835 7.25 362.75 C4.35803168 361.78601056 3.15278177 360.15278177 1 358 C-0.21104118 357.26110483 -1.44177621 356.55379235 -2.6875 355.875 C-6 354 -6 354 -7 352 C-8.40947946 351.1594585 -9.85288588 350.37511266 -11.3125 349.625 C-14.78755474 347.76356022 -17.30369933 345.90370842 -20 343 C-20.99 342.67 -21.98 342.34 -23 342 C-23 341.34 -23 340.68 -23 340 C-23.66 340 -24.32 340 -25 340 C-25.33 339.01 -25.66 338.02 -26 337 C-26.639375 336.87625 -27.27875 336.7525 -27.9375 336.625 C-28.618125 336.41875 -29.29875 336.2125 -30 336 C-31.25 333.4375 -31.25 333.4375 -32 331 C-33.32 331 -34.64 331 -36 331 C-36.06058594 332.26457031 -36.12117187 333.52914063 -36.18359375 334.83203125 C-36.26800904 336.49219871 -36.35265655 338.15235437 -36.4375 339.8125 C-36.47681641 340.64587891 -36.51613281 341.47925781 -36.55664062 342.33789062 C-36.59853516 343.14033203 -36.64042969 343.94277344 -36.68359375 344.76953125 C-36.73858032 345.87711792 -36.73858032 345.87711792 -36.79467773 347.00708008 C-37 349 -37 349 -38 352 C-38.66 352 -39.32 352 -40 352 C-40 353.65 -40 355.3 -40 357 C-40.66 357 -41.32 357 -42 357 C-42.07347656 358.21236328 -42.07347656 358.21236328 -42.1484375 359.44921875 C-42.22320312 360.51785156 -42.29796875 361.58648438 -42.375 362.6875 C-42.44460938 363.74324219 -42.51421875 364.79898437 -42.5859375 365.88671875 C-42.98760089 368.90677269 -43.74069019 371.24078054 -45 374 C-45.66 374 -46.32 374 -47 374 C-47.1546875 375.85625 -47.1546875 375.85625 -47.3125 377.75 C-47.747948 381.39367519 -48.71476237 383.11861342 -51 386 C-51.16713569 388.62531524 -51.16713569 388.62531524 -51 391 C-54.13008272 394.13008272 -64.41621494 392.37430868 -68.61547852 392.38500977 C-90.74990991 392.2244293 -112.28147744 387.65367704 -133 380 C-134.08152344 379.61328125 -135.16304688 379.2265625 -136.27734375 378.828125 C-163.02357785 368.47474406 -185.35860682 351.52722707 -206 332 C-206.60457031 331.43410156 -207.20914063 330.86820313 -207.83203125 330.28515625 C-209.32992212 328.63697533 -209.6265334 327.16610627 -210 325 C-208.35 324.34 -206.7 323.68 -205 323 C-205 322.01 -205 321.02 -205 320 C-204.34 320 -203.68 320 -203 320 C-203 319.01 -203 318.02 -203 317 C-202.34 317 -201.68 317 -201 317 C-201 316.34 -201 315.68 -201 315 C-200.01 315 -199.02 315 -198 315 C-199.18424326 313.58422523 -199.18424326 313.58422523 -202.5625 313.9375 C-204.2640625 313.9684375 -204.2640625 313.9684375 -206 314 C-206 314.66 -206 315.32 -206 316 C-216.80335217 317.3339505 -216.80335217 317.3339505 -221.2578125 314.62890625 C-223.49240402 312.23069402 -225.2182 309.75557442 -227 307 C-227.40927734 306.38801758 -227.81855469 305.77603516 -228.24023438 305.14550781 C-238.12117589 290.28082134 -246.47745963 273.99631146 -252 257 C-252.39574219 255.90429688 -252.79148437 254.80859375 -253.19921875 253.6796875 C-263.54478783 224.41384343 -266.6800893 190.54387642 -261 160 C-260.80535156 158.76378906 -260.61070312 157.52757812 -260.41015625 156.25390625 C-257.85717924 141.01157606 -253.45066429 126.05198761 -247 112 C-246.39284913 110.59651851 -245.78611219 109.19285791 -245.1796875 107.7890625 C-237.85395292 91.22774436 -227.92989075 75.65198796 -216 62 C-215.23945313 61.11957031 -214.47890625 60.23914063 -213.6953125 59.33203125 C-210.01381314 55.14960656 -206.43240191 51.39998606 -202 48 C-201.67 48.66 -201.34 49.32 -201 50 C-200.01 50 -199.02 50 -198 50 C-198 50.66 -198 51.32 -198 52 C-196.7315625 52.3403125 -196.7315625 52.3403125 -195.4375 52.6875 C-191.95015308 54.01903246 -189.53303638 55.61693504 -186.61328125 57.87890625 C-184.87782099 59.19722062 -184.87782099 59.19722062 -182 60 C-181.01 61.485 -181.01 61.485 -180 63 C-179.154375 63.495 -178.30875 63.99 -177.4375 64.5 C-175 66 -175 66 -174 69 C-171.15020361 70.11680706 -171.15020361 70.11680706 -168 71 C-164.17241379 72.65517241 -164.17241379 72.65517241 -163 75 C-161.28334481 75.94546662 -161.28334481 75.94546662 -159.25 76.8125 C-155.40649042 78.63816705 -152.97280322 80.94461891 -150 84 C-149.278125 84.165 -148.55625 84.33 -147.8125 84.5 C-147.214375 84.665 -146.61625 84.83 -146 85 C-145.690625 85.78375 -145.38125 86.5675 -145.0625 87.375 C-143.71581338 90.70210813 -142.06537766 91.3059755 -139 93 C-139 93.66 -139 94.32 -139 95 C-137.35 95.66 -135.7 96.32 -134 97 C-134.309375 96.236875 -134.61875 95.47375 -134.9375 94.6875 C-135.67893593 92.81210323 -136.36228217 90.91315348 -137 89 C-137.66 88.67 -138.32 88.34 -139 88 C-139 86.35 -139 84.7 -139 83 C-139.66 83 -140.32 83 -141 83 C-141 81.35 -141 79.7 -141 78 C-141.66 77.67 -142.32 77.34 -143 77 C-144.56148638 74.13727498 -145.88542201 71.31508948 -147 68.25 C-147.90261113 65.67849941 -147.90261113 65.67849941 -151 64 C-151.66666667 62 -152.33333333 60 -153 58 C-154.485 57.01 -154.485 57.01 -156 56 C-156.625 54.1875 -156.625 54.1875 -157 52 C-157.185625 51.0925 -157.37125 50.185 -157.5625 49.25 C-157.7790625 48.13625 -157.7790625 48.13625 -158 47 C-158.66 47 -159.32 47 -160 47 C-160 46.34 -160 45.68 -160 45 C-160.66 45 -161.32 45 -162 45 C-162.37125 43.8553125 -162.37125 43.8553125 -162.75 42.6875 C-163.75514019 39.9095233 -163.75514019 39.9095233 -166 38.6875 C-168.35666776 36.69906158 -168.4411481 35.81467327 -169.0625 32.875 C-169.5265625 30.956875 -169.5265625 30.956875 -170 29 C-171.485 28.505 -171.485 28.505 -173 28 C-172.73306871 24.55955228 -172.36391719 23.31494026 -169.70703125 21.015625 C-168.75183594 20.43296875 -167.79664063 19.8503125 -166.8125 19.25 C-165.87019531 18.65703125 -164.92789063 18.0640625 -163.95703125 17.453125 C-160.87887115 15.94047565 -158.40752687 15.28918191 -155 15 C-154.34 15.33 -153.68 15.66 -153 16 C-153 17.32 -153 18.64 -153 20 C-152.01 20 -151.02 20 -150 20 C-150 20.66 -150 21.32 -150 22 C-148.515 22.495 -148.515 22.495 -147 23 C-147.33 23.99 -147.66 24.98 -148 26 C-147.34 26 -146.68 26 -146 26 C-142.88549618 30.15267176 -142.88549618 30.15267176 -143.3125 33.3125 C-143.539375 33.869375 -143.76625 34.42625 -144 35 C-143.01 35 -142.02 35 -141 35 C-141 35.99 -141 36.98 -141 38 C-140.34 38 -139.68 38 -139 38 C-139 38.99 -139 39.98 -139 41 C-138.34 41 -137.68 41 -137 41 C-136.87625 41.804375 -136.7525 42.60875 -136.625 43.4375 C-136.315625 44.7059375 -136.315625 44.7059375 -136 46 C-135.34 46.33 -134.68 46.66 -134 47 C-134 47.99 -134 48.98 -134 50 C-133.34 50 -132.68 50 -132 50 C-132.1429248 49.10788818 -132.28584961 48.21577637 -132.43310547 47.29663086 C-133.86429956 37.64763279 -134.24730644 28.3043232 -134.125 18.5625 C-134.11492845 17.13737623 -134.10581014 15.7122454 -134.09765625 14.28710938 C-134.07602292 10.85792154 -134.04173497 7.42900933 -134 4 C-132.56953502 3.35820446 -131.13841859 2.71786078 -129.70703125 2.078125 C-128.91014893 1.72137695 -128.1132666 1.36462891 -127.29223633 0.99707031 C-123.00427014 -0.86809679 -119.69987891 -2 -115 -2 C-114.93941406 -0.71222656 -114.87882813 0.57554687 -114.81640625 1.90234375 C-114.73201753 3.58074159 -114.6473687 5.25912636 -114.5625 6.9375 C-114.52318359 7.78763672 -114.48386719 8.63777344 -114.44335938 9.51367188 C-114.38051758 10.72700195 -114.38051758 10.72700195 -114.31640625 11.96484375 C-114.27974854 12.7137085 -114.24309082 13.46257324 -114.20532227 14.23413086 C-114.18228937 16.02461326 -114.18228937 16.02461326 -113 17 C-112.92741054 19.18639453 -112.91626217 21.37500389 -112.9375 23.5625 C-112.94652344 24.76003906 -112.95554687 25.95757812 -112.96484375 27.19140625 C-112.98224609 28.58166016 -112.98224609 28.58166016 -113 30 C-112.34 30 -111.68 30 -111 30 C-110.86722656 31.28777344 -110.73445312 32.57554687 -110.59765625 33.90234375 C-110.41950101 35.58075362 -110.24110308 37.25913773 -110.0625 38.9375 C-109.97548828 39.78763672 -109.88847656 40.63777344 -109.79882812 41.51367188 C-109.66831055 42.72700195 -109.66831055 42.72700195 -109.53515625 43.96484375 C-109.456604 44.7137085 -109.37805176 45.46257324 -109.29711914 46.23413086 C-109.1719262 48.02140013 -109.1719262 48.02140013 -108 49 C-107.92743284 52.62835804 -108.0039766 56.24654928 -108.0625 59.875 C-108.36364533 62.8672967 -108.36364533 62.8672967 -107 64 C-106.95919217 65.99958364 -106.95745644 68.00045254 -107 70 C-106.34 70 -105.68 70 -105 70 C-103.42922093 75.02649303 -102.55145271 79.76119922 -102 85 C-101.01 84.67 -100.02 84.34 -99 84 C-98.67 79.05 -98.34 74.1 -98 69 C-97.34 69 -96.68 69 -96 69 C-96.20625 68.46375 -96.4125 67.9275 -96.625 67.375 C-97.1314747 64.16732692 -96.15400225 61.98682934 -95 59 C-94.34 59 -93.68 59 -93 59 C-92.67 54.71 -92.34 50.42 -92 46 C-91.34 46 -90.68 46 -90 46 C-89.67 43.36 -89.34 40.72 -89 38 C-88.34 38 -87.68 38 -87 38 C-87 37.01 -87 36.02 -87 35 C-86.34 35 -85.68 35 -85 35 C-84.93941406 34.16855469 -84.87882813 33.33710938 -84.81640625 32.48046875 C-84.73261719 31.39378906 -84.64882813 30.30710937 -84.5625 29.1875 C-84.44068359 27.56908203 -84.44068359 27.56908203 -84.31640625 25.91796875 C-84 23 -84 23 -83 20 C-82.01 20 -81.02 20 -80 20 C-79.93941406 19.31292969 -79.87882813 18.62585938 -79.81640625 17.91796875 C-79.73261719 17.01691406 -79.64882813 16.11585938 -79.5625 15.1875 C-79.44068359 13.84751953 -79.44068359 13.84751953 -79.31640625 12.48046875 C-79 10 -79 10 -78 7 C-78 5.68 -78 4.36 -78 3 C-77.01 3 -76.02 3 -75 3 C-74.71125 1.9275 -74.4225 0.855 -74.125 -0.25 C-73.27055437 -3.09815211 -72.54601451 -5.48772642 -71 -8 C-52.71738627 -17.14130687 -18.49824962 -5.97962188 0 0 Z " fill="#5596FF" transform="translate(537,265)"/>
<path d="M0 0 C0.89009766 -0.00128906 1.78019531 -0.00257813 2.69726562 -0.00390625 C4.10202148 0.00189453 4.10202148 0.00189453 5.53515625 0.0078125 C6.46779297 0.00394531 7.40042969 0.00007813 8.36132812 -0.00390625 C9.25271484 -0.00261719 10.14410156 -0.00132812 11.0625 0 C11.88355225 0.00112793 12.70460449 0.00225586 13.55053711 0.00341797 C15.59765625 0.1328125 15.59765625 0.1328125 17.59765625 1.1328125 C21.17290766 1.20369729 24.73720408 1.12946941 28.3125 1.0703125 C31.59765625 1.1328125 31.59765625 1.1328125 34.59765625 2.1328125 C35.58765625 2.1328125 36.57765625 2.1328125 37.59765625 2.1328125 C38.09265625 2.6278125 38.09265625 2.6278125 38.59765625 3.1328125 C40.56913254 3.24603535 42.54463319 3.28966115 44.51928711 3.30639648 C46.42278175 3.32663124 46.42278175 3.32663124 48.36473083 3.34727478 C49.04807432 3.35233473 49.73141781 3.35739468 50.43546867 3.36260796 C52.57649734 3.3790135 54.71735008 3.40225852 56.85829163 3.42750549 C62.94783722 3.49823979 69.03746059 3.55799194 75.12719727 3.60961914 C78.85024551 3.64166475 82.57310131 3.68301888 86.2959919 3.72981453 C87.70835412 3.74570344 89.12076077 3.75808451 90.53318596 3.76672173 C109.50983401 3.88429651 109.50983401 3.88429651 117.59765625 8.1328125 C121.89882074 9.83327288 125.84957807 10.42360049 130.40625 10.84765625 C133.28904287 11.22277903 135.8915682 12.0920094 138.59765625 13.1328125 C138.59765625 13.7928125 138.59765625 14.4528125 138.59765625 15.1328125 C144.24899741 15.9927992 149.90714262 16.5946754 155.59765625 17.1328125 C155.2470218 22.59420973 151.94961595 25.92362748 148.66015625 30.0078125 C123.49381506 62.18947353 105.0961353 100.58230326 98.59765625 141.1328125 C98.3210231 142.49780527 98.04224913 143.86236534 97.76171875 145.2265625 C95.37560439 157.84408692 95.30129724 170.46221426 95.28515625 183.2578125 C95.28166168 184.14538239 95.27816711 185.03295227 95.27456665 185.94741821 C95.23841989 202.52730438 96.52786705 218.82591811 99.59765625 235.1328125 C99.88576172 236.81310547 99.88576172 236.81310547 100.1796875 238.52734375 C102.09454341 249.04225428 105.16254347 259.02736687 108.59765625 269.1328125 C108.81760254 269.7932959 109.03754883 270.4537793 109.26416016 271.13427734 C112.83040633 281.73418225 117.60899585 291.68302231 122.54736328 301.70556641 C123.05509277 302.73858887 123.56282227 303.77161133 124.0859375 304.8359375 C124.54524658 305.76051758 125.00455566 306.68509766 125.4777832 307.63769531 C126.45641885 309.81813053 127.11816145 311.79983992 127.59765625 314.1328125 C125.3054019 314.01909753 123.01383237 313.89150286 120.72265625 313.7578125 C119.44648438 313.68820312 118.1703125 313.61859375 116.85546875 313.546875 C113.59765625 313.1328125 113.59765625 313.1328125 111.59765625 311.1328125 C108.92816216 310.88965594 108.92816216 310.88965594 105.97265625 311.0078125 C104.96976563 311.02585937 103.966875 311.04390625 102.93359375 311.0625 C102.16273438 311.08570313 101.391875 311.10890625 100.59765625 311.1328125 C100.59765625 310.4728125 100.59765625 309.8128125 100.59765625 309.1328125 C99.705625 309.08382813 98.81359375 309.03484375 97.89453125 308.984375 C96.7240625 308.90960937 95.55359375 308.83484375 94.34765625 308.7578125 C93.1875 308.68820312 92.02734375 308.61859375 90.83203125 308.546875 C87.89071291 308.17032942 86.09816614 307.6554002 83.59765625 306.1328125 C83.59765625 305.4728125 83.59765625 304.8128125 83.59765625 304.1328125 C82.78941406 304.08382813 81.98117188 304.03484375 81.1484375 303.984375 C80.07980469 303.90960937 79.01117188 303.83484375 77.91015625 303.7578125 C76.85441406 303.68820312 75.79867187 303.61859375 74.7109375 303.546875 C71.64174765 303.1386766 69.33117572 302.58083903 66.59765625 301.1328125 C66.26765625 300.1428125 65.93765625 299.1528125 65.59765625 298.1328125 C65.04078125 298.10703125 64.48390625 298.08125 63.91015625 298.0546875 C55.29751396 297.41455868 49.36233448 294.6765013 43.59765625 288.1328125 C41.93098958 286.1328125 40.26432292 284.1328125 38.59765625 282.1328125 C37.69015625 281.2459375 36.78265625 280.3590625 35.84765625 279.4453125 C33.59765625 277.1328125 33.59765625 277.1328125 32.59765625 274.1328125 C31.60765625 273.8028125 30.61765625 273.4728125 29.59765625 273.1328125 C27.56315452 270.7853105 26.58977958 269.1091825 25.59765625 266.1328125 C24.93765625 265.8028125 24.27765625 265.4728125 23.59765625 265.1328125 C23.26432292 263.79947917 22.93098958 262.46614583 22.59765625 261.1328125 C21.93765625 260.8028125 21.27765625 260.4728125 20.59765625 260.1328125 C20.59765625 256.1728125 20.59765625 252.2128125 20.59765625 248.1328125 C19.93765625 248.1328125 19.27765625 248.1328125 18.59765625 248.1328125 C17.64504138 243.36973813 17.51432268 238.9661597 17.59765625 234.1328125 C16.93765625 234.1328125 16.27765625 234.1328125 15.59765625 234.1328125 C14.59902926 226.76793846 14.49434594 219.55967565 14.59765625 212.1328125 C13.93765625 212.1328125 13.27765625 212.1328125 12.59765625 212.1328125 C10.32915959 208.48108617 10.20806115 205.1201007 9.97265625 200.8828125 C9.86050781 198.98789062 9.86050781 198.98789062 9.74609375 197.0546875 C9.69710937 196.09046875 9.648125 195.12625 9.59765625 194.1328125 C8.60765625 194.1328125 7.61765625 194.1328125 6.59765625 194.1328125 C6.47390625 193.4934375 6.35015625 192.8540625 6.22265625 192.1953125 C5.91328125 190.679375 5.91328125 190.679375 5.59765625 189.1328125 C5.47519531 188.40835938 5.35273438 187.68390625 5.2265625 186.9375 C4.30200166 181.97923568 3.42221441 179.58725213 -0.40234375 176.1328125 C-1.15234375 173.3828125 -1.15234375 173.3828125 -1.40234375 171.1328125 C-2.06234375 171.1328125 -2.72234375 171.1328125 -3.40234375 171.1328125 C-3.73234375 170.1428125 -4.06234375 169.1528125 -4.40234375 168.1328125 C-6.02337343 166.42172561 -7.69737838 164.76027944 -9.40234375 163.1328125 C-10.20671875 162.2665625 -11.01109375 161.4003125 -11.83984375 160.5078125 C-14.52939351 158.01505907 -17.06327912 156.60821315 -20.40234375 155.1328125 C-20.40234375 154.4728125 -20.40234375 153.8128125 -20.40234375 153.1328125 C-21.39234375 153.1328125 -22.38234375 153.1328125 -23.40234375 153.1328125 C-23.40234375 152.4728125 -23.40234375 151.8128125 -23.40234375 151.1328125 C-23.97984375 150.85566406 -24.55734375 150.57851563 -25.15234375 150.29296875 C-28.03711664 148.80550773 -30.69349487 147.03687905 -33.40234375 145.25390625 C-35.41007054 144.12848127 -37.15483563 143.57930407 -39.40234375 143.1328125 C-39.40234375 142.1428125 -39.40234375 141.1528125 -39.40234375 140.1328125 C-40.35109375 139.8853125 -41.29984375 139.6378125 -42.27734375 139.3828125 C-45.83794343 137.95857263 -45.91977034 137.41565363 -47.40234375 134.1328125 C-49.25978582 133.52214106 -49.25978582 133.52214106 -51.40234375 133.1328125 C-57.90578195 129.7932091 -67.06668949 123.13977528 -69.40234375 116.1328125 C-70.39234375 116.1328125 -71.38234375 116.1328125 -72.40234375 116.1328125 C-72.40234375 114.8128125 -72.40234375 113.4928125 -72.40234375 112.1328125 C-73.06234375 112.1328125 -73.72234375 112.1328125 -74.40234375 112.1328125 C-74.40234375 111.4728125 -74.40234375 110.8128125 -74.40234375 110.1328125 C-75.06234375 110.1328125 -75.72234375 110.1328125 -76.40234375 110.1328125 C-76.40234375 109.1428125 -76.40234375 108.1528125 -76.40234375 107.1328125 C-77.06234375 107.1328125 -77.72234375 107.1328125 -78.40234375 107.1328125 C-78.89734375 104.1628125 -78.89734375 104.1628125 -79.40234375 101.1328125 C-80.06234375 101.1328125 -80.72234375 101.1328125 -81.40234375 101.1328125 C-81.50546875 100.5346875 -81.60859375 99.9365625 -81.71484375 99.3203125 C-82.23369989 97.07981015 -82.23369989 97.07981015 -83.83984375 95.6953125 C-86.56818445 92.9669718 -87.35851611 90.11893438 -87.52734375 86.3203125 C-87.46546875 85.2375 -87.46546875 85.2375 -87.40234375 84.1328125 C-88.06234375 84.1328125 -88.72234375 84.1328125 -89.40234375 84.1328125 C-89.40234375 65.3228125 -89.40234375 46.5128125 -89.40234375 27.1328125 C-88.74234375 27.1328125 -88.08234375 27.1328125 -87.40234375 27.1328125 C-87.31984375 25.8953125 -87.23734375 24.6578125 -87.15234375 23.3828125 C-86.66898702 19.34536218 -85.48700536 17.83189141 -82.40234375 15.1328125 C-82.25796875 14.4315625 -82.11359375 13.7303125 -81.96484375 13.0078125 C-81.77921875 12.3890625 -81.59359375 11.7703125 -81.40234375 11.1328125 C-78.51122587 9.61117151 -76.68410963 9.1328125 -73.40234375 9.1328125 C-73.07234375 8.1428125 -72.74234375 7.1528125 -72.40234375 6.1328125 C-65.39529199 3.15108835 -56.86188228 3.73856169 -49.3984375 3.56640625 C-44.0176598 3.3947587 -39.52104916 2.7814345 -34.40234375 1.1328125 C-31.42039329 1.1328125 -28.4389269 1.15018453 -25.45703125 1.16796875 C-23.06380286 1.1772861 -20.67057365 1.18639205 -18.27734375 1.1953125 C-17.05917969 1.20369141 -15.84101562 1.21207031 -14.5859375 1.22070312 C-13.42964844 1.22392578 -12.27335937 1.22714844 -11.08203125 1.23046875 C-10.01710449 1.23570557 -8.95217773 1.24094238 -7.85498047 1.24633789 C-4.87979104 1.10862506 -3.23957641 0.00445653 0 0 Z " fill="#5596FF" transform="translate(126.40234375,269.8671875)"/>
<path d="M0 0 C0.99 1.485 0.99 1.485 2 3 C3.7634375 3.7425 3.7634375 3.7425 5.5625 4.5 C6.696875 4.995 7.83125 5.49 9 6 C9.33 6.99 9.66 7.98 10 9 C10.763125 9.061875 11.52625 9.12375 12.3125 9.1875 C15.90652146 10.27406463 16.23341441 11.76125975 18 15 C21.74504907 19.32300427 21.74504907 19.32300427 27 21 C27.12375 21.78375 27.2475 22.5675 27.375 23.375 C27.79117993 26.14057822 27.79117993 26.14057822 30 28 C29.67 28.66 29.34 29.32 29 30 C30.32 30 31.64 30 33 30 C33.33 31.98 33.66 33.96 34 36 C34.99 36.33 35.98 36.66 37 37 C38.64820195 39.60242414 39 40.86248779 39 44 C39.66 44 40.32 44 41 44 C41 45.98 41 47.96 41 50 C41.66 50 42.32 50 43 50 C43.95261487 54.76307437 44.08333357 59.1666528 44 64 C44.66 64 45.32 64 46 64 C45.96744792 66.05078125 45.93489583 68.1015625 45.90234375 70.15234375 C45.79438816 72.01732141 45.79438816 72.01732141 47 73 C47.25538961 77.38969673 47.1852374 81.79126557 47.1875 86.1875 C47.19974609 87.42048828 47.21199219 88.65347656 47.22460938 89.92382812 C47.22654297 91.11814453 47.22847656 92.31246094 47.23046875 93.54296875 C47.23457764 94.63633545 47.23868652 95.72970215 47.24291992 96.85620117 C46.98445692 100.20115401 46.17820904 102.86994867 45 106 C44.73058594 106.83144531 44.46117187 107.66289062 44.18359375 108.51953125 C43.93738281 109.27621094 43.69117188 110.03289062 43.4375 110.8125 C43.18871094 111.58207031 42.93992187 112.35164063 42.68359375 113.14453125 C42 115 42 115 41 116 C41.0309375 117.36125 41.0309375 117.36125 41.0625 118.75 C40.99935154 122.03371969 40.38420337 124.05856784 39 127 C38.34 127 37.68 127 37 127 C36.67 128.65 36.34 130.3 36 132 C35.34 132 34.68 132 34 132 C33.87882813 133.13179687 33.75765625 134.26359375 33.6328125 135.4296875 C33.46399724 136.91151031 33.29470145 138.39327842 33.125 139.875 C33.04636719 140.62136719 32.96773437 141.36773437 32.88671875 142.13671875 C32.2265625 147.7734375 32.2265625 147.7734375 30 150 C30 150.99 30 151.98 30 153 C29.34 153 28.68 153 28 153 C28 163.56 28 174.12 28 185 C28.66 185.33 29.32 185.66 30 186 C32.00286901 188.80401662 32.96218534 190.75893155 33.5 194.1875 C33.665 195.115625 33.83 196.04375 34 197 C34.99 197.66 35.98 198.32 37 199 C37.73046875 201.1640625 37.73046875 201.1640625 38.1875 203.625 C38.34605469 204.44226563 38.50460937 205.25953125 38.66796875 206.1015625 C38.77753906 206.72804688 38.88710938 207.35453125 39 208 C39.66 208 40.32 208 41 208 C41.103125 208.53625 41.20625 209.0725 41.3125 209.625 C41.97762618 212.19076628 41.97762618 212.19076628 43.5625 215.125 C45 218 45 218 45 220 C45.66 220 46.32 220 47 220 C47.268125 221.11375 47.53625 222.2275 47.8125 223.375 C48.65809019 227.21840951 48.65809019 227.21840951 52 229 C52.165 229.680625 52.33 230.36125 52.5 231.0625 C52.665 231.701875 52.83 232.34125 53 233 C53.99 233.33 54.98 233.66 56 234 C56 235.98 56 237.96 56 240 C56.66 240.33 57.32 240.66 58 241 C58.2165625 241.99 58.2165625 241.99 58.4375 243 C58.623125 243.66 58.80875 244.32 59 245 C59.99 245.33 60.98 245.66 62 246 C65.03329943 264.97756569 63.79648589 283.96428601 62 303 C60.68 303 59.36 303 58 303 C57.814375 303.86625 57.814375 303.86625 57.625 304.75 C56.99351176 307.02335767 56.11141809 308.9253529 55 311 C54.34 311 53.68 311 53 311 C53 311.99 53 312.98 53 314 C52.34 314.66 51.68 315.32 51 316 C51 316.99 51 317.98 51 319 C49.68 319 48.36 319 47 319 C47 319.66 47 320.32 47 321 C46.01 321 45.02 321 44 321 C43.731875 319.82308594 43.46375 318.64617187 43.1875 317.43359375 C38.75947243 298.58057872 32.8110826 280.28135918 24 263 C23.59910156 262.19852539 23.19820312 261.39705078 22.78515625 260.57128906 C14.37667951 243.79799979 4.73744534 228.61712914 -7 214 C-8.19109375 212.49953125 -8.19109375 212.49953125 -9.40625 210.96875 C-21.13000536 196.63971567 -34.34103658 183.10132248 -49.34375 172.203125 C-51.03403891 170.97527362 -52.70459469 169.72347841 -54.375 168.46875 C-67.4145181 158.79282852 -81.49743607 150.92468922 -96.12060547 143.91601562 C-97.86831377 143.06418378 -99.5935343 142.16663224 -101.31640625 141.265625 C-109.82222324 136.96836404 -118.66713479 134.01711845 -127.75 131.1875 C-129.59791138 130.60947632 -129.59791138 130.60947632 -131.4831543 130.01977539 C-137.83016033 128.09127352 -144.07290293 126.49784554 -150.61938477 125.42724609 C-153 125 -153 125 -156.66796875 123.93359375 C-161.22729064 122.65612841 -165.77290373 122.28004882 -170.47851562 121.87695312 C-172.33196423 121.68304851 -174.16965838 121.35031453 -176 121 C-176.66 120.01 -177.32 119.02 -178 118 C-176.515 117.505 -176.515 117.505 -175 117 C-174.32558869 115.3364521 -173.6599679 113.66933058 -173 112 C-171.68671343 110.64691687 -170.35500919 109.31129922 -169 108 C-168.67 107.01 -168.34 106.02 -168 105 C-167.34 105 -166.68 105 -166 105 C-166 104.34 -166 103.68 -166 103 C-165.195625 102.360625 -164.39125 101.72125 -163.5625 101.0625 C-160.76279268 99.18964068 -160.76279268 99.18964068 -160 96 C-159.21625 95.9175 -158.4325 95.835 -157.625 95.75 C-154.8553382 95.29150599 -154.8553382 95.29150599 -153.875 93 C-153.441875 92.01 -153.441875 92.01 -153 91 C-151.515 90.505 -151.515 90.505 -150 90 C-150 89.34 -150 88.68 -150 88 C-148.57421875 86.52734375 -148.57421875 86.52734375 -146.6875 84.9375 C-146.07261719 84.41027344 -145.45773437 83.88304687 -144.82421875 83.33984375 C-143 82 -143 82 -140 81 C-139.319375 80.01 -139.319375 80.01 -138.625 79 C-136.56171094 76.46056731 -135.14442524 76.4964882 -132 76 C-131.67 75.34 -131.34 74.68 -131 74 C-128.63158361 72.02631968 -126.95847985 70.98615995 -124 70 C-123.01 68.515 -123.01 68.515 -122 67 C-121.01 67 -120.02 67 -119 67 C-119 66.01 -119 65.02 -119 64 C-118.34 64 -117.68 64 -117 64 C-116.505 62.515 -116.505 62.515 -116 61 C-114.40625 59.90234375 -114.40625 59.90234375 -112.5 58.9375 C-109.66980932 57.57554472 -109.66980932 57.57554472 -108 55 C-106.02111039 54.27306096 -104.02045442 53.60183749 -102 53 C-102 52.34 -102 51.68 -102 51 C-101.34 51 -100.68 51 -100 51 C-100 50.01 -100 49.02 -100 48 C-99.2575 47.7525 -98.515 47.505 -97.75 47.25 C-94.95423571 46.18212739 -94.95423571 46.18212739 -93.1875 44.125 C-90.5958767 41.60742308 -88.0149964 40.49973876 -84.70703125 39.125 C-82.79876266 38.11554264 -82.79876266 38.11554264 -82.26171875 35.875 C-82.13216797 34.946875 -82.13216797 34.946875 -82 34 C-78.535 33.505 -78.535 33.505 -75 33 C-74.67 32.01 -74.34 31.02 -74 30 C-72.26284005 27.74169207 -71.40424971 27.07255764 -68.5625 26.5625 C-65.32406658 25.85162437 -64.2301047 24.37877835 -62 22 C-61.01 21.67 -60.02 21.34 -59 21 C-57.97803008 20.02246356 -56.98020375 19.0194119 -56 18 C-52.33333333 15 -52.33333333 15 -50 15 C-49.67 14.01 -49.34 13.02 -49 12 C-45.5065403 10.25327015 -42.93154432 9 -39 9 C-38.67 8.01 -38.34 7.02 -38 6 C-35.96875 4.90234375 -35.96875 4.90234375 -33.5 3.9375 C-30.03943188 2.77297997 -30.03943188 2.77297997 -28 0 C-19.09882244 -2.53425442 -8.78911389 -3.40988444 0 0 Z " fill="#5596FF" transform="translate(680,83)"/>
<path d="M0 0 C4.56835214 3.22009922 8.75308646 6.65624281 12.8125 10.5 C56.39003999 50.42612524 111.61389145 66.75017036 169 73 C168.01 75.31 167.02 77.62 166 80 C165.34 80 164.68 80 164 80 C164 81.32 164 82.64 164 84 C163.01 84.495 163.01 84.495 162 85 C161.67 85.99 161.34 86.98 161 88 C160.34 88 159.68 88 159 88 C159 88.66 159 89.32 159 90 C157.35648543 91.36176922 155.68477344 92.68962066 154 94 C153.13375 94.886875 152.2675 95.77375 151.375 96.6875 C149 99 149 99 146 100 C145.071875 100.9590625 145.071875 100.9590625 144.125 101.9375 C141.05338915 104.91876936 138.44886827 105.93560585 134.1875 106.125 C133.465625 106.08375 132.74375 106.0425 132 106 C131.79375 106.61875 131.5875 107.2375 131.375 107.875 C129.37329899 110.96853792 127.55952764 111.10430348 124 112 C120.80751817 112.27768712 117.63272952 112.28049654 114.4296875 112.265625 C113.51220734 112.26753845 112.59472717 112.2694519 111.64944458 112.27142334 C109.71128057 112.2727807 107.77310733 112.2691157 105.83496094 112.26074219 C102.90538447 112.25011027 99.97643159 112.26061453 97.046875 112.2734375 C87.50765036 112.27953636 78.3391124 112.1572588 69 110 C69 109.34 69 108.68 69 108 C67.515 108.495 67.515 108.495 66 109 C65.34 108.67 64.68 108.34 64 108 C64 107.34 64 106.68 64 106 C62.906875 106.0825 61.81375 106.165 60.6875 106.25 C55.03825508 106.29056908 50.15356596 104.12205657 45 102 C45 101.34 45 100.68 45 100 C44.154375 99.896875 43.30875 99.79375 42.4375 99.6875 C38.53944527 98.90788905 35.56596821 97.74802363 32 96 C31.67 95.34 31.34 94.68 31 94 C30.030625 93.896875 29.06125 93.79375 28.0625 93.6875 C27.051875 93.460625 26.04125 93.23375 25 93 C23.8125 90.5 23.8125 90.5 23 88 C21.515 87.505 21.515 87.505 20 87 C20 86.34 20 85.68 20 85 C19.401875 84.731875 18.80375 84.46375 18.1875 84.1875 C16.01474908 83.00800664 14.69381635 81.770808 13 80 C12.34 79.67 11.68 79.34 11 79 C10.773125 78.278125 10.54625 77.55625 10.3125 76.8125 C8.95347998 73.90031424 8.15520616 73.19265707 5.6875 71.3125 C1.75197625 68.18047901 0.03694002 64.62700639 -1.95703125 60.07421875 C-2.82132405 57.84009105 -2.82132405 57.84009105 -5 57 C-5 55.35 -5 53.7 -5 52 C-5.66 51.67 -6.32 51.34 -7 51 C-7.04943465 46.21282458 -7.08573582 41.42579773 -7.10986328 36.63842773 C-7.11992142 35.00982068 -7.13356958 33.38123168 -7.15087891 31.75268555 C-7.17513574 29.41190128 -7.18648483 27.07135576 -7.1953125 24.73046875 C-7.20563507 24.00224411 -7.21595764 23.27401947 -7.22659302 22.52372742 C-7.22742249 18.78724931 -7.12883296 17.19324944 -5 14 C-4.65846063 12.33499557 -4.32550502 10.66821323 -4 9 C-3.36729133 7.65022151 -2.69937532 6.31647119 -2 5 C-1.32033324 3.33859237 -0.65061095 1.67299959 0 0 Z " fill="#5596FF" transform="translate(296,638)"/>
<path d="M0 0 C1.90963107 0.78810171 3.82602028 1.5601057 5.75 2.3125 C6.56984375 2.63863281 7.3896875 2.96476562 8.234375 3.30078125 C8.81703125 3.53152344 9.3996875 3.76226562 10 4 C10 4.66 10 5.32 10 6 C10.7734375 6.1546875 10.7734375 6.1546875 11.5625 6.3125 C14.86026435 7.24263866 17.86633332 8.61395512 21 10 C21 10.66 21 11.32 21 12 C21.66 12 22.32 12 23 12 C23 12.66 23 13.32 23 14 C24.98 14.495 24.98 14.495 27 15 C27 15.66 27 16.32 27 17 C28.11375 17.0928125 28.11375 17.0928125 29.25 17.1875 C32.853376 18.25213382 33.7547126 20.05306029 36 23 C37.64538614 24.03464111 39.31530085 25.03068759 41 26 C42.7207424 27.12711242 44.42917195 28.27323885 46.125 29.4375 C47.39730469 30.30181641 47.39730469 30.30181641 48.6953125 31.18359375 C50.95588524 32.96523159 52.47308774 34.56991414 54 37 C54 37.66 54 38.32 54 39 C55.32 39.66 56.64 40.32 58 41 C58 41.66 58 42.32 58 43 C59.65 43.33 61.3 43.66 63 44 C63.495 46.97 63.495 46.97 64 50 C65.485 50.495 65.485 50.495 67 51 C68.1875 54.5625 68.1875 54.5625 69 58 C68.34 58 67.68 58 67 58 C67 59.65 67 61.3 67 63 C65.515 63.495 65.515 63.495 64 64 C63.814375 65.6396875 63.814375 65.6396875 63.625 67.3125 C63 71 63 71 61 74 C58.6171875 74.29296875 58.6171875 74.29296875 55.875 74.1875 C54.96492187 74.16042969 54.05484375 74.13335937 53.1171875 74.10546875 C52.41851563 74.07066406 51.71984375 74.03585937 51 74 C51 74.66 51 75.32 51 76 C47.31633699 75.41974158 44.54472757 74.41183904 41.3125 72.5625 C40.16201172 71.91474609 40.16201172 71.91474609 38.98828125 71.25390625 C37 70 37 70 35 68 C35 67.01 35 66.02 35 65 C34.34 64.67 33.68 64.34 33 64 C31.88122412 63.05876286 30.77891273 62.09783352 29.6875 61.125 C26.92541642 58.72815061 24.19301694 56.80118904 21 55 C18.95950578 53.7295036 16.94982535 52.40568804 15 51 C15 50.34 15 49.68 15 49 C14.01 49 13.02 49 12 49 C12 48.01 12 47.02 12 46 C11.38125 45.855625 10.7625 45.71125 10.125 45.5625 C8 45 8 45 6 44 C6 43.34 6 42.68 6 42 C5.01 42 4.02 42 3 42 C2.2265625 41.13375 2.2265625 41.13375 1.4375 40.25 C-2.16254098 36.92688525 -6.43599788 35.63746641 -11 34 C-11 33.34 -11 32.68 -11 32 C-12.3921875 31.814375 -12.3921875 31.814375 -13.8125 31.625 C-17 31 -17 31 -20 29 C-21.99541868 28.31974363 -23.99617991 27.65509503 -26 27 C-32.50847458 24.49152542 -32.50847458 24.49152542 -35 22 C-35 21.01 -35 20.02 -35 19 C-35.66 18.67 -36.32 18.34 -37 18 C-39.16015625 16.34765625 -39.16015625 16.34765625 -41 14 C-41.05859375 10.87109375 -41.05859375 10.87109375 -40.4375 7.4375 C-40.25058594 6.30183594 -40.06367188 5.16617187 -39.87109375 3.99609375 C-38.98321766 0.94227779 -38.31700489 0.02200161 -36 -2 C-35.67 -2.99 -35.34 -3.98 -35 -5 C-23.14962387 -8.06272146 -10.67203929 -5.3051756 0 0 Z " fill="#FBFCFF" transform="translate(536,291)"/>
<path d="M0 0 C1.17825358 0.90172468 2.34231577 1.82201502 3.5 2.75 C4.47453125 3.51570312 4.47453125 3.51570312 5.46875 4.296875 C7 6 7 6 7 10 C7.66 10 8.32 10 9 10 C9.28875 10.78375 9.5775 11.5675 9.875 12.375 C10.84912254 15.09671632 10.84912254 15.09671632 13 17 C15.22720986 24.02895275 15.27942389 31.26180769 15.1875 38.5625 C15.18685547 39.53896484 15.18621094 40.51542969 15.18554688 41.52148438 C15.15003255 47.42080831 14.75473617 53.1492852 14 59 C13.34 59 12.68 59 12 59 C12.20625 59.61875 12.4125 60.2375 12.625 60.875 C12.74875 61.57625 12.8725 62.2775 13 63 C12.34 63.66 11.68 64.32 11 65 C11 66.32 11 67.64 11 69 C10.34 69 9.68 69 9 69 C9 70.98 9 72.96 9 75 C8.34 75 7.68 75 7 75 C6.814375 76.4540625 6.814375 76.4540625 6.625 77.9375 C6.41875 78.948125 6.2125 79.95875 6 81 C5.01 81.495 5.01 81.495 4 82 C3.26924352 84.3140622 2.59861742 86.64828869 2 89 C1.34 89 0.68 89 0 89 C0 89.66 0 90.32 0 91 C-0.66 91 -1.32 91 -2 91 C-2 91.66 -2 92.32 -2 93 C-2.66 93 -3.32 93 -4 93 C-4.06316406 93.89460937 -4.12632812 94.78921875 -4.19140625 95.7109375 C-5.20097768 99.81750343 -6.69095057 100.98863418 -9.9375 103.625 C-14.29086461 107.18411449 -14.29086461 107.18411449 -17 112 C-21.97244758 111.61506192 -24.44007933 109.08695737 -27.73828125 105.65234375 C-28.26391159 105.12105362 -28.78954193 104.58976349 -29.33110046 104.04237366 C-31.00122048 102.34993418 -32.65686477 100.64410004 -34.3125 98.9375 C-35.44503508 97.78489427 -36.57848899 96.63319058 -37.71289062 95.48242188 C-40.48601531 92.66528879 -43.24624293 89.83606272 -46 87 C-44.66438457 84.16333987 -43.15370071 81.70831917 -41.27734375 79.19921875 C-40.74326904 78.47710205 -40.20919434 77.75498535 -39.65893555 77.01098633 C-38.80682495 75.8608606 -38.80682495 75.8608606 -37.9375 74.6875 C-32.11338001 66.71558014 -26.83813265 58.60138267 -22 50 C-21.66162109 49.40687012 -21.32324219 48.81374023 -20.97460938 48.20263672 C-12.28690894 32.89118763 -6.01139189 16.50855728 0 0 Z " fill="#5696FF" transform="translate(718,532)"/>
<path d="M0 0 C4.95 0 9.9 0 15 0 C15.33 0.99 15.66 1.98 16 3 C17.86896292 3.73759428 17.86896292 3.73759428 20.125 4.0625 C24.17491356 4.83360354 28.04989358 5.82337256 32 7 C32 7.66 32 8.32 32 9 C32.5775 9.12375 33.155 9.2475 33.75 9.375 C36.02335767 10.00648824 37.9253529 10.88858191 40 12 C40 12.66 40 13.32 40 14 C42.64 14.33 45.28 14.66 48 15 C48 15.66 48 16.32 48 17 C48.57234375 17.2784375 49.1446875 17.556875 49.734375 17.84375 C51.96617566 18.98273792 54.10870874 20.19936383 56.25 21.5 C56.95640625 21.9228125 57.6628125 22.345625 58.390625 22.78125 C59.18726563 23.38453125 59.18726563 23.38453125 60 24 C60 24.66 60 25.32 60 26 C60.86625 26.103125 61.7325 26.20625 62.625 26.3125 C66.16683123 27.03398414 68.84312042 28.27123261 72 30 C72 30.66 72 31.32 72 32 C72.66 32 73.32 32 74 32 C74 32.66 74 33.32 74 34 C75.32 34.66 76.64 35.32 78 36 C78 36.66 78 37.32 78 38 C78.5775 38.103125 79.155 38.20625 79.75 38.3125 C82.35661158 39.10896465 83.9735311 40.19065277 86 42 C86 42.66 86 43.32 86 44 C86.99 44 87.98 44 89 44 C89 44.66 89 45.32 89 46 C89.886875 46.226875 90.77375 46.45375 91.6875 46.6875 C96.10793257 48.43899215 99.01181958 50.90738263 101.0625 55.25 C101.371875 55.8275 101.68125 56.405 102 57 C102.59425781 57.13277344 103.18851562 57.26554687 103.80078125 57.40234375 C106.56272045 58.15292403 107.99271254 59.41938547 110.125 61.3125 C110.80820312 61.90675781 111.49140625 62.50101563 112.1953125 63.11328125 C114 65 114 65 114.9921875 67.10546875 C116.28084675 69.52794834 117.54376745 69.87807423 120 71 C121.640625 72.48046875 121.640625 72.48046875 123.25 74.1875 C126.97102718 78.02960182 130.93586586 81.52701264 135 85 C131.43127554 88.82267864 127.89244443 91.52914841 123.375 94.25 C122.24835938 94.93578125 121.12171875 95.6215625 119.9609375 96.328125 C117 98 117 98 114 99 C113.76539063 98.26007813 113.53078125 97.52015625 113.2890625 96.7578125 C111.78434016 93.53861864 110.12133337 92.09822225 107.375 89.875 C104.8984375 87.8671875 104.8984375 87.8671875 103 86 C103 85.01 103 84.02 103 83 C102.01 83 101.02 83 100 83 C98.62131719 81.37064759 97.28725907 79.70250393 96 78 C95.34 77.67 94.68 77.34 94 77 C94 76.34 94 75.68 94 75 C92.515 74.505 92.515 74.505 91 74 C91 73.34 91 72.68 91 72 C90.38125 71.938125 89.7625 71.87625 89.125 71.8125 C88.42375 71.544375 87.7225 71.27625 87 71 C86.33333333 69.33333333 85.66666667 67.66666667 85 66 C83.10820797 65.3185177 83.10820797 65.3185177 81 65 C78.75 63.5625 78.75 63.5625 77 62 C77 61.34 77 60.68 77 60 C75.02 60 73.04 60 71 60 C70.7525 59.030625 70.505 58.06125 70.25 57.0625 C69.8375 56.051875 69.425 55.04125 69 54 C67.67536832 53.63361251 66.34014438 53.30479818 65 53 C63.0703125 51.66015625 63.0703125 51.66015625 61.125 50.0625 C58.46897294 47.97243011 56.84153447 46.94813855 53.5625 45.875 C52.2940625 45.441875 52.2940625 45.441875 51 45 C50.79503906 44.03126953 50.79503906 44.03126953 50.5859375 43.04296875 C50.39257812 42.36878906 50.19921875 41.69460937 50 41 C48.21377328 39.97587857 48.21377328 39.97587857 46.0625 39.4375 C42.55706407 38.41322562 42.16997938 38.25496907 40 35 C37.88366155 34.0998674 37.88366155 34.0998674 35.5 33.5 C31.22222222 32.33333333 31.22222222 32.33333333 29 29 C26.43572819 28.07839815 23.86258009 27.48194183 21.21484375 26.84375 C20.48394531 26.5653125 19.75304687 26.286875 19 26 C18.67 25.01 18.34 24.02 18 23 C17.22914063 22.86722656 16.45828125 22.73445313 15.6640625 22.59765625 C14.66117188 22.42105469 13.65828125 22.24445313 12.625 22.0625 C11.12839844 21.80146484 11.12839844 21.80146484 9.6015625 21.53515625 C7 21 7 21 5 20 C2.6670134 19.95977609 0.33293334 19.95679753 -2 20 C-2.33 18.68 -2.66 17.36 -3 16 C-3.66 16 -4.32 16 -5 16 C-4.67 14.68 -4.34 13.36 -4 12 C-4.99 12 -5.98 12 -7 12 C-7 9.36 -7 6.72 -7 4 C-5.02 3.67 -3.04 3.34 -1 3 C-0.67 2.01 -0.34 1.02 0 0 Z " fill="#5596FF" transform="translate(212,150)"/>
<path d="M0 0 C0 0.66 0 1.32 0 2 C1.32 2 2.64 2 4 2 C4.08086147 3.79093191 4.13912702 5.58289628 4.1875 7.375 C4.23970703 8.87160156 4.23970703 8.87160156 4.29296875 10.3984375 C4.19628906 11.25695312 4.09960938 12.11546875 4 13 C1 15 1 15 -2 15 C-2.185625 16.2065625 -2.185625 16.2065625 -2.375 17.4375 C-2.58125 18.283125 -2.7875 19.12875 -3 20 C-3.99 20.495 -3.99 20.495 -5 21 C-5.71247732 22.6476038 -6.37400383 24.31763529 -7 26 C-7.65213539 27.34050052 -8.31379969 28.67661368 -9 30 C-9.66 30 -10.32 30 -11 30 C-11 30.99 -11 31.98 -11 33 C-11.66 33 -12.32 33 -13 33 C-13.144375 34.258125 -13.28875 35.51625 -13.4375 36.8125 C-13.73748686 39.42667123 -14.15813297 41.47439892 -15 44 C-15.99 44.495 -15.99 44.495 -17 45 C-17.35729936 46.32711192 -17.68325425 47.66262906 -18 49 C-18.495 50.134375 -18.99 51.26875 -19.5 52.4375 C-20.73921944 55.38064616 -21.52538482 57.86753978 -22 61 C-22.66 61 -23.32 61 -24 61 C-24.04898438 61.59167969 -24.09796875 62.18335938 -24.1484375 62.79296875 C-24.56456867 67.19104472 -25.04965595 70.96928897 -27 75 C-27.66 75 -28.32 75 -29 75 C-28.95875 76.27875 -28.9175 77.5575 -28.875 78.875 C-28.85842217 84.08872856 -29.81688642 88.94007672 -31 94 C-31.66 94 -32.32 94 -33 94 C-33 95.65 -33 97.3 -33 99 C-33.66 99 -34.32 99 -35 99 C-34.979375 99.804375 -34.95875 100.60875 -34.9375 101.4375 C-35 104 -35 104 -36 105 C-36.07244053 107.01964199 -36.08377188 109.04167124 -36.0625 111.0625 C-36.05347656 112.16722656 -36.04445313 113.27195312 -36.03515625 114.41015625 C-36.02355469 115.26480469 -36.01195312 116.11945313 -36 117 C-36.66 117 -37.32 117 -38 117 C-37.97679687 117.73605469 -37.95359375 118.47210938 -37.9296875 119.23046875 C-37.91164063 120.20628906 -37.89359375 121.18210937 -37.875 122.1875 C-37.85179687 123.15042969 -37.82859375 124.11335938 -37.8046875 125.10546875 C-38.01352546 128.20044734 -38.50673034 130.28234526 -40 133 C-42.76095825 133.92031942 -45.16415048 134.50638797 -48 135 C-49.56386224 135.34810223 -51.12639263 135.70224445 -52.6875 136.0625 C-55.78517246 136.74313045 -58.88605423 137.39730082 -62 138 C-62.22284465 131.84701171 -61.75982794 126.93941929 -60 121 C-59.87774335 118.32502439 -59.95458392 115.67954858 -60 113 C-59.505 112.01 -59.505 112.01 -59 111 C-58.9603287 109.33380554 -58.95615553 107.66608987 -59 106 C-57.515 105.505 -57.515 105.505 -56 105 C-55.95101563 103.81921875 -55.90203125 102.6384375 -55.8515625 101.421875 C-55.77651121 99.86456063 -55.70096439 98.30727009 -55.625 96.75 C-55.57859375 95.58404297 -55.57859375 95.58404297 -55.53125 94.39453125 C-55.16618114 87.27568856 -55.16618114 87.27568856 -53 84 C-52.34 84 -51.68 84 -51 84 C-50.67 80.7 -50.34 77.4 -50 74 C-49.34 74 -48.68 74 -48 74 C-48.01160156 73.38511719 -48.02320313 72.77023438 -48.03515625 72.13671875 C-48.04417969 71.32847656 -48.05320312 70.52023438 -48.0625 69.6875 C-48.07410156 68.88699219 -48.08570313 68.08648437 -48.09765625 67.26171875 C-48 65 -48 65 -47 62 C-46.34 62 -45.68 62 -45 62 C-45 60.02 -45 58.04 -45 56 C-44.34 56 -43.68 56 -43 56 C-42.855625 55.030625 -42.71125 54.06125 -42.5625 53.0625 C-42 50 -42 50 -41 49 C-41.020625 48.195625 -41.04125 47.39125 -41.0625 46.5625 C-41 44 -41 44 -39 42 C-38.01 41.505 -38.01 41.505 -37 41 C-37 39.35 -37 37.7 -37 36 C-36.34 36 -35.68 36 -35 36 C-35 34.02 -35 32.04 -35 30 C-34.01 30 -33.02 30 -32 30 C-31.83564453 29.06027344 -31.83564453 29.06027344 -31.66796875 28.1015625 C-31.43013672 26.87566406 -31.43013672 26.87566406 -31.1875 25.625 C-31.03667969 24.81289062 -30.88585937 24.00078125 -30.73046875 23.1640625 C-30 21 -30 21 -27 19 C-26.27034634 16.43717258 -26.27034634 16.43717258 -26 14 C-25.34 14 -24.68 14 -24 14 C-23.71125 13.21625 -23.4225 12.4325 -23.125 11.625 C-22 9 -22 9 -20 7 C-19.9071875 6.0409375 -19.9071875 6.0409375 -19.8125 5.0625 C-19 3 -19 3 -16.1875 1.25 C-11.00155982 -0.75711074 -5.4637851 -0.24223678 0 0 Z " fill="#5596FF" transform="translate(465,74)"/>
<path d="M0 0 C2.375 2.1875 2.375 2.1875 5 5 C5.886875 5.845625 6.77375 6.69125 7.6875 7.5625 C9.74993022 9.73641293 10.76734864 11.33769821 12 14 C9.85423363 14.02685938 7.70837355 14.04633088 5.5625 14.0625 C4.36753906 14.07410156 3.17257812 14.08570313 1.94140625 14.09765625 C-1 14 -1 14 -2 13 C-4.18019479 12.60333773 -6.3696463 12.25684763 -8.5625 11.9375 C-10.35880859 11.67259766 -10.35880859 11.67259766 -12.19140625 11.40234375 C-13.11824219 11.26957031 -14.04507813 11.13679687 -15 11 C-12.2118412 8.12735154 -9.36021599 5.35581408 -6.375 2.6875 C-5.80523438 2.17574219 -5.23546875 1.66398438 -4.6484375 1.13671875 C-3 0 -3 0 0 0 Z " fill="#5A99FF" transform="translate(635,656)"/>
<path d="M0 0 C1.32 0 2.64 0 4 0 C3.14499018 7.35308448 0.19393192 10.93274935 -5 16 C-5.680625 16.86625 -6.36125 17.7325 -7.0625 18.625 C-8.91114285 20.89107833 -10.51306867 22.47575177 -13 24 C-13.99 24 -14.98 24 -16 24 C-15.40408291 20.23449494 -13.73141458 18.14348258 -11.3125 15.25 C-8.67120799 12.03864497 -6.06140577 8.82378728 -3.5625 5.5 C-3.08941406 4.8709375 -2.61632812 4.241875 -2.12890625 3.59375 C-0.93015863 1.98703158 -0.93015863 1.98703158 0 0 Z " fill="#FFFFFF" transform="translate(772,488)"/>
<path d="M0 0 C8.29270152 -0.56541147 18.05926607 1.31031491 25 6 C25.64453125 8.09765625 25.64453125 8.09765625 26 10 C16.2952751 9.22978374 8.58127387 6.52467168 0 2 C0 1.34 0 0.68 0 0 Z " fill="#FFFFFF" transform="translate(218,668)"/>
<path d="M0 0 C-0.99 0.99 -1.98 1.98 -3 3 C-3.66 2.67 -4.32 2.34 -5 2 C-5.33 3.98 -5.66 5.96 -6 8 C-7.65 8 -9.3 8 -11 8 C-11.185625 9.2065625 -11.185625 9.2065625 -11.375 10.4375 C-11.58125 11.283125 -11.7875 12.12875 -12 13 C-12.99 13.495 -12.99 13.495 -14 14 C-14.46523063 15.89533342 -14.46523063 15.89533342 -14.625 18.0625 C-14.74875 19.361875 -14.8725 20.66125 -15 22 C-15.66 21.34 -16.32 20.68 -17 20 C-16.86328125 17.06640625 -16.86328125 17.06640625 -16.3125 13.5625 C-16.14363281 12.40878906 -15.97476562 11.25507813 -15.80078125 10.06640625 C-14.97797822 6.9156727 -14.37746948 6.05127314 -12 4 C-11.67 3.01 -11.34 2.02 -11 1 C-7.26562152 0.12132271 -3.83225427 -0.08912219 0 0 Z " fill="#E9F1FF" transform="translate(512,285)"/>
<path d="M0 0 C0.66 0.33 1.32 0.66 2 1 C1.125 3.5 1.125 3.5 -1 6 C-4.36708009 6.46087248 -7.62114388 6.28526928 -11 6 C-11 6.66 -11 7.32 -11 8 C-14.82097239 7.46930939 -17.06171403 6.50298434 -20 4 C-16.88103729 2.34878445 -15.56984546 1.82656877 -12.125 2.875 C-11.09375 3.24625 -10.0625 3.6175 -9 4 C-6.66787973 4.07522969 -4.3314689 4.09325876 -2 4 C-2 3.34 -2 2.68 -2 2 C-1.34 2 -0.68 2 0 2 C0 1.34 0 0.68 0 0 Z " fill="#C9DEFF" transform="translate(598,359)"/>
<path d="M0 0 C3.465 1.485 3.465 1.485 7 3 C7 3.66 7 4.32 7 5 C7.7425 5.28875 8.485 5.5775 9.25 5.875 C10.1575 6.24625 11.065 6.6175 12 7 C12.7425 7.28875 13.485 7.5775 14.25 7.875 C16 9 16 9 16.75 11.125 C16.87375 12.053125 16.87375 12.053125 17 13 C17.66 13 18.32 13 19 13 C19 13.66 19 14.32 19 15 C15.41726669 13.34643078 12.19026533 11.32019297 9 9 C9 8.34 9 7.68 9 7 C8.01 7 7.02 7 6 7 C6 6.01 6 5.02 6 4 C5.071875 3.7834375 5.071875 3.7834375 4.125 3.5625 C2 3 2 3 0 2 C0 1.34 0 0.68 0 0 Z " fill="#B4D0FF" transform="translate(542,333)"/>
<path d="M0 0 C0.33 0.66 0.66 1.32 1 2 C1.66 2.33 2.32 2.66 3 3 C2.505 3.4125 2.01 3.825 1.5 4.25 C-0.43386092 6.12202338 -0.43386092 6.12202338 0 10 C-0.66 10 -1.32 10 -2 10 C-2.33 12.64 -2.66 15.28 -3 18 C-3.66 17.34 -4.32 16.68 -5 16 C-4.86328125 13.06640625 -4.86328125 13.06640625 -4.3125 9.5625 C-4.14363281 8.40878906 -3.97476562 7.25507813 -3.80078125 6.06640625 C-3.0052523 3.02011245 -2.44856078 1.88195167 0 0 Z " fill="#BFD7FF" transform="translate(500,289)"/>
<path d="M0 0 C0.66 0.66 1.32 1.32 2 2 C1.34 2 0.68 2 0 2 C0 3.65 0 5.3 0 7 C-0.99 7.33 -1.98 7.66 -3 8 C-3.33 8.99 -3.66 9.98 -4 11 C-4.33 9.02 -4.66 7.04 -5 5 C-4.01 4.34 -3.02 3.68 -2 3 C-2 2.34 -2 1.68 -2 1 C-1.34 0.67 -0.68 0.34 0 0 Z " fill="#B5D1FF" transform="translate(603,347)"/>
<path d="M0 0 C3 1 3 1 4.625 3.9375 C5.07875 4.948125 5.5325 5.95875 6 7 C6.33 7.66 6.66 8.32 7 9 C4.03 8.505 4.03 8.505 1 8 C0.67 5.36 0.34 2.72 0 0 Z " fill="#A3C6FF" transform="translate(497,307)"/>
<path d="M0 0 C0.66 0.33 1.32 0.66 2 1 C2 2.98 2 4.96 2 7 C-0.97 6.505 -0.97 6.505 -4 6 C-3.34 4.68 -2.68 3.36 -2 2 C-1.34 2 -0.68 2 0 2 C0 1.34 0 0.68 0 0 Z " fill="#DAE8FF" transform="translate(601,341)"/>
<path d="M0 0 C2.4375 0.75 2.4375 0.75 5 2 C5.8125 4.125 5.8125 4.125 6 6 C6.66 6 7.32 6 8 6 C8 6.66 8 7.32 8 8 C4.18315774 6.44499019 1.80804268 3.96404505 -1 1 C-0.67 0.67 -0.34 0.34 0 0 Z " fill="#C2D9FF" transform="translate(553,340)"/>
<path d="M0 0 C6.625 0.75 6.625 0.75 10 3 C7.301935 3.99928333 6.11989571 4.03624754 3.3125 3.1875 C1 2 1 2 0 0 Z " fill="#C8DDFF" transform="translate(520,286)"/>
<path d="M0 0 C2.64 0 5.28 0 8 0 C4.46588679 2.12046792 1.05606165 2.53199289 -3 3 C-2.01 2.67 -1.02 2.34 0 2 C0 1.34 0 0.68 0 0 Z " fill="#8BB7FF" transform="translate(587,365)"/>
<path d="M0 0 C0.66 0 1.32 0 2 0 C2 0.66 2 1.32 2 2 C1.34 2 0.68 2 0 2 C0 1.34 0 0.68 0 0 Z " fill="#FFFFFF" transform="translate(776,486)"/>
</svg>
