<svg id="svg" version="1.1" xmlns="http://www.w3.org/2000/svg" xmlns:xlink="http://www.w3.org/1999/xlink" width="400" height="400" viewBox="0, 0, 400,400"><g id="svgg"><path id="path0" d="M182.093 56.400 C 182.093 57.170,182.175 57.485,182.276 57.100 C 182.376 56.715,182.376 56.085,182.276 55.700 C 182.175 55.315,182.093 55.630,182.093 56.400 M205.400 66.047 C 201.880 66.227,197.605 66.617,195.900 66.913 C 193.125 67.396,192.798 67.387,192.784 66.826 C 192.776 66.482,192.522 66.768,192.220 67.462 C 191.918 68.156,191.340 68.824,190.935 68.948 C 188.942 69.555,182.372 70.864,180.414 71.044 C 176.003 71.450,169.704 73.794,159.587 78.792 C 156.462 80.337,153.646 81.600,153.329 81.600 C 153.012 81.600,152.872 81.793,153.018 82.030 C 153.542 82.878,149.420 86.257,145.316 88.344 C 143.226 89.406,143.392 89.428,142.805 88.013 C 142.535 87.361,142.042 86.600,141.709 86.324 C 141.340 86.018,141.435 86.365,141.950 87.211 C 142.892 88.756,143.032 89.600,142.346 89.600 C 140.990 89.600,127.190 101.752,125.600 104.347 C 125.050 105.244,124.377 105.983,124.103 105.989 C 123.830 105.995,123.382 106.360,123.107 106.800 C 122.832 107.240,122.381 107.600,122.104 107.600 C 121.827 107.600,121.600 108.038,121.600 108.574 C 121.600 109.545,121.115 110.293,114.963 118.809 C 88.729 155.124,84.771 202.759,104.511 244.600 C 108.584 253.232,108.497 252.787,106.127 252.854 C 105.067 252.884,104.650 252.980,105.200 253.066 C 107.751 253.468,107.993 253.648,109.547 256.304 C 112.730 261.742,121.786 273.341,126.161 277.583 C 127.172 278.564,128.003 279.644,128.006 279.983 C 128.011 280.506,128.067 280.513,128.374 280.028 C 128.803 279.350,130.064 280.209,134.800 284.407 C 153.431 300.921,174.390 309.839,204.800 314.192 C 208.210 314.680,210.968 315.241,210.930 315.440 C 210.891 315.638,210.750 316.160,210.617 316.600 C 210.396 317.331,210.413 317.328,210.821 316.562 C 211.242 315.770,211.698 315.709,219.133 315.455 C 242.976 314.638,263.015 308.949,280.026 298.166 C 282.762 296.431,285.900 294.700,287.000 294.319 C 288.377 293.842,288.692 293.622,288.013 293.613 C 287.112 293.601,287.232 293.391,289.379 291.221 C 293.449 287.109,294.692 287.342,298.878 293.000 L 300.062 294.600 298.931 294.830 C 297.832 295.054,297.848 295.074,299.485 295.542 C 300.412 295.806,301.448 296.423,301.786 296.911 C 302.125 297.400,306.926 302.342,312.455 307.893 C 322.411 317.889,322.501 317.994,321.840 318.893 C 318.285 323.728,317.985 329.934,321.065 334.948 C 321.624 335.856,336.417 350.856,353.940 368.281 L 385.800 399.962 392.900 399.981 L 400.000 400.000 400.000 368.487 L 400.000 336.974 380.300 317.383 C 357.669 294.878,357.964 295.114,352.242 294.887 C 348.660 294.745,348.545 294.770,345.225 296.393 L 341.851 298.043 333.825 290.080 C 329.411 285.700,325.250 281.903,324.579 281.642 C 323.907 281.381,320.860 278.666,317.807 275.607 L 312.257 270.046 313.428 268.261 C 314.073 267.280,316.644 263.444,319.142 259.738 C 325.150 250.825,329.304 242.480,334.006 229.881 C 334.666 228.113,334.991 227.661,335.375 227.979 C 336.071 228.557,338.622 217.933,340.267 207.600 C 341.407 200.444,341.298 180.253,340.081 172.842 C 339.596 169.895,339.200 166.953,339.200 166.304 C 339.200 165.518,338.967 165.064,338.500 164.941 C 337.971 164.802,337.422 163.318,336.256 158.879 C 325.894 119.415,294.384 85.490,256.600 73.116 C 249.033 70.638,240.479 68.596,234.261 67.782 C 231.077 67.366,230.210 67.107,229.738 66.434 C 229.082 65.497,219.228 65.340,205.400 66.047 M232.000 92.947 C 262.786 100.258,283.201 113.663,298.789 136.800 C 309.160 152.195,316.995 178.210,314.403 188.644 C 314.135 189.720,313.762 193.360,313.574 196.733 C 313.385 200.107,312.931 204.517,312.564 206.533 C 312.197 208.550,311.766 212.090,311.605 214.400 C 310.613 228.650,294.801 253.569,278.264 266.945 C 271.367 272.523,260.212 279.200,257.789 279.200 C 257.233 279.200,255.747 279.719,254.489 280.354 C 247.216 284.022,231.375 287.991,223.980 287.998 C 222.420 287.999,221.158 288.202,220.860 288.500 C 219.239 290.120,199.425 288.150,189.572 285.389 C 172.835 280.699,149.393 266.095,144.000 256.999 C 142.188 253.942,140.618 252.082,139.323 251.454 C 137.919 250.773,132.771 243.309,129.492 237.200 C 110.568 201.938,114.686 158.883,139.889 128.496 C 143.964 123.583,147.043 120.654,147.820 120.952 C 148.152 121.080,148.400 120.942,148.400 120.631 C 148.400 119.626,158.449 111.090,160.999 109.928 C 161.501 109.699,162.149 109.070,162.438 108.530 C 162.952 107.569,167.373 104.800,168.393 104.800 C 168.677 104.800,171.154 103.720,173.897 102.400 C 176.640 101.080,179.039 100.000,179.229 100.000 C 179.418 100.000,180.704 99.384,182.086 98.630 C 184.797 97.153,188.422 95.968,190.012 96.038 C 190.555 96.063,192.980 95.614,195.400 95.042 C 197.820 94.470,202.590 93.713,206.000 93.361 C 209.410 93.009,213.100 92.471,214.200 92.166 C 217.370 91.287,226.744 91.699,232.000 92.947 M229.481 107.140 C 229.085 107.296,228.545 107.800,228.281 108.259 C 228.016 108.718,227.497 109.523,227.126 110.047 C 225.406 112.478,225.603 117.317,227.452 118.020 C 227.995 118.226,228.690 118.995,228.996 119.729 C 229.303 120.463,229.789 121.257,230.077 121.493 C 230.859 122.135,238.769 125.200,239.642 125.200 C 240.059 125.200,240.400 125.443,240.400 125.740 C 240.400 126.037,241.549 126.769,242.954 127.366 C 244.359 127.963,245.921 128.890,246.424 129.426 C 246.928 129.962,247.578 130.400,247.870 130.400 C 248.161 130.400,248.760 130.760,249.200 131.200 C 249.640 131.640,250.360 132.000,250.800 132.000 C 251.333 132.000,251.600 132.267,251.600 132.800 C 251.600 133.333,251.867 133.600,252.400 133.600 C 252.840 133.600,253.200 133.845,253.200 134.143 C 253.200 134.442,254.235 135.364,255.500 136.193 C 259.789 139.000,263.200 141.754,263.200 142.409 C 263.200 143.353,264.683 144.600,267.200 145.770 C 269.512 146.844,270.800 147.070,270.800 146.400 C 270.800 146.176,271.901 146.000,273.304 146.000 C 276.181 146.000,276.562 145.660,277.007 142.695 C 277.204 141.380,277.492 140.817,278.040 140.674 C 278.574 140.534,278.800 140.117,278.800 139.271 C 278.800 138.609,278.978 138.007,279.196 137.933 C 279.890 137.699,278.825 134.732,277.966 134.507 C 277.438 134.369,277.117 133.825,276.951 132.784 C 276.769 131.644,276.481 131.207,275.801 131.036 C 274.822 130.790,272.400 128.711,272.400 128.115 C 272.400 127.381,269.713 125.012,266.487 122.901 C 264.665 121.708,262.901 120.316,262.568 119.807 C 262.234 119.298,261.385 118.648,260.681 118.364 C 259.976 118.080,259.256 117.611,259.080 117.323 C 258.904 117.036,258.409 116.800,257.980 116.800 C 257.551 116.800,257.200 116.530,257.200 116.200 C 257.200 115.870,256.930 115.600,256.600 115.600 C 256.270 115.600,256.000 115.343,256.000 115.029 C 256.000 114.528,252.266 112.800,251.185 112.800 C 250.973 112.800,250.800 112.554,250.800 112.253 C 250.800 109.828,233.303 105.631,229.481 107.140 M363.200 205.400 C 363.200 205.783,362.802 206.008,362.100 206.022 C 361.233 206.039,360.650 206.526,359.347 208.322 C 358.438 209.575,356.785 211.770,355.675 213.200 C 353.072 216.550,352.642 218.000,354.250 218.000 C 356.348 218.000,363.186 209.821,363.196 207.300 C 363.198 206.768,363.446 206.400,363.800 206.400 C 364.133 206.400,364.400 206.044,364.400 205.600 C 364.400 205.156,364.133 204.800,363.800 204.800 C 363.470 204.800,363.200 205.070,363.200 205.400 M90.400 294.425 C 90.400 295.767,96.012 298.031,101.700 298.985 C 103.097 299.219,103.200 299.168,103.200 298.247 C 103.200 296.371,100.010 294.746,94.869 294.002 C 90.875 293.424,90.400 293.469,90.400 294.425 " stroke="none" fill="#fbfbfc" fill-rule="evenodd"></path><path id="path1" d="M205.054 3.659 C 203.069 3.953,201.200 5.237,201.200 6.307 C 201.200 6.619,200.840 7.331,200.400 7.891 C 199.960 8.450,199.600 9.114,199.600 9.365 C 199.600 9.616,199.240 10.130,198.800 10.507 C 198.360 10.884,197.997 11.509,197.993 11.896 C 197.989 12.283,197.560 13.004,197.039 13.498 C 196.459 14.048,195.989 15.079,195.827 16.156 C 195.636 17.434,195.349 17.972,194.782 18.121 C 194.189 18.276,194.000 18.673,194.000 19.763 C 194.000 20.774,193.822 21.200,193.400 21.200 C 193.016 21.200,192.800 21.586,192.800 22.274 C 192.800 22.865,192.406 23.768,191.923 24.281 C 191.441 24.795,190.992 25.616,190.925 26.107 C 190.631 28.255,189.891 30.800,189.560 30.800 C 189.362 30.800,189.200 31.499,189.200 32.353 C 189.200 33.570,189.027 33.952,188.400 34.116 C 187.702 34.298,187.600 34.662,187.600 36.963 C 187.600 38.935,187.461 39.600,187.050 39.600 C 186.670 39.600,186.441 40.297,186.312 41.851 C 186.167 43.600,185.920 44.257,185.205 44.796 C 184.385 45.415,184.245 45.987,183.920 50.045 C 183.691 52.913,183.364 54.748,183.038 55.000 C 182.287 55.580,181.748 59.012,180.944 68.321 L 180.692 71.242 181.646 71.024 C 182.171 70.904,184.310 70.438,186.400 69.988 C 188.490 69.539,190.531 69.071,190.937 68.947 C 192.009 68.620,192.800 66.371,192.800 63.646 C 192.800 62.337,192.963 61.207,193.163 61.133 C 193.363 61.060,193.622 59.650,193.740 58.000 C 194.004 54.304,194.380 52.400,194.845 52.400 C 195.040 52.400,195.200 51.879,195.200 51.243 C 195.200 50.606,195.435 49.995,195.723 49.885 C 196.345 49.646,197.200 45.346,197.200 42.454 C 197.200 40.919,197.348 40.400,197.785 40.400 C 198.409 40.400,199.028 38.568,199.454 35.459 C 199.603 34.374,199.917 33.600,200.209 33.600 C 200.484 33.600,200.801 33.105,200.912 32.500 C 201.244 30.705,203.098 25.910,203.574 25.616 C 204.146 25.263,204.800 22.961,204.800 21.303 C 204.800 20.411,204.989 20.000,205.400 20.000 C 205.733 20.000,206.000 19.644,206.000 19.200 C 206.000 18.760,206.248 18.400,206.551 18.400 C 206.854 18.400,207.505 17.455,207.999 16.300 C 208.493 15.145,209.131 14.064,209.417 13.898 C 209.703 13.731,210.056 13.056,210.201 12.398 C 210.369 11.630,210.712 11.200,211.156 11.200 C 212.786 11.200,213.681 9.664,213.454 7.254 C 213.338 6.014,213.233 4.865,213.221 4.700 C 213.210 4.535,212.876 4.400,212.480 4.400 C 212.084 4.400,211.589 4.238,211.380 4.040 C 210.841 3.529,207.351 3.319,205.054 3.659 M306.400 7.060 C 304.112 7.404,302.181 8.135,301.684 8.844 C 301.393 9.260,300.850 9.601,300.477 9.601 C 299.449 9.604,297.200 11.108,297.200 11.794 C 297.200 12.165,296.832 12.400,296.249 12.400 C 294.813 12.400,292.484 13.496,292.000 14.399 C 291.765 14.840,291.334 15.200,291.042 15.200 C 290.751 15.200,289.722 15.875,288.756 16.700 C 286.086 18.981,283.559 20.635,281.941 21.161 C 280.953 21.482,280.330 22.004,280.009 22.779 C 279.546 23.896,278.634 24.383,276.988 24.395 C 276.456 24.398,276.020 24.812,275.726 25.591 C 275.472 26.264,274.781 26.996,274.138 27.274 C 273.512 27.544,272.117 28.451,271.038 29.291 C 269.958 30.130,268.653 30.922,268.138 31.051 C 267.568 31.194,267.200 31.583,267.200 32.043 C 267.200 32.460,267.020 32.800,266.800 32.800 C 266.580 32.800,266.400 33.042,266.400 33.337 C 266.400 33.632,265.683 34.088,264.807 34.351 C 263.930 34.613,263.041 35.150,262.831 35.542 C 262.621 35.935,261.718 36.586,260.824 36.989 C 259.775 37.462,259.200 37.983,259.200 38.461 C 259.200 38.867,258.930 39.200,258.600 39.200 C 258.267 39.200,258.000 39.556,258.000 40.000 C 258.000 40.526,257.733 40.800,257.223 40.800 C 256.795 40.800,256.210 41.134,255.923 41.543 C 255.635 41.951,254.986 42.416,254.480 42.576 C 253.973 42.736,253.022 43.392,252.366 44.033 C 251.709 44.675,250.848 45.200,250.450 45.200 C 250.053 45.200,249.155 45.830,248.455 46.600 C 247.754 47.370,246.947 48.000,246.662 48.000 C 245.925 48.000,242.800 50.755,242.800 51.404 C 242.800 51.702,242.485 52.048,242.100 52.172 C 241.715 52.296,241.093 52.938,240.719 53.599 C 240.238 54.447,239.734 54.800,239.006 54.800 C 238.389 54.800,237.871 55.081,237.717 55.500 C 237.575 55.885,236.590 57.015,235.529 58.011 C 234.468 59.007,233.600 60.008,233.600 60.236 C 233.600 60.464,233.060 61.168,232.400 61.800 C 231.740 62.432,231.200 63.261,231.200 63.641 C 231.200 64.022,230.758 64.663,230.219 65.067 C 228.469 66.374,229.673 67.182,234.269 67.783 C 240.479 68.596,249.037 70.639,256.600 73.116 C 294.384 85.490,325.894 119.415,336.256 158.879 C 337.723 164.464,338.911 166.608,339.533 164.790 C 339.607 164.575,340.123 164.400,340.680 164.400 C 341.544 164.400,341.665 164.254,341.503 163.403 C 341.394 162.835,341.546 162.210,341.856 161.954 C 342.155 161.705,342.400 161.254,342.400 160.951 C 342.400 160.648,342.656 160.400,342.968 160.400 C 343.294 160.400,343.818 159.549,344.200 158.400 C 344.744 156.761,345.033 156.400,345.798 156.400 C 347.066 156.400,347.401 153.179,347.398 141.000 C 347.396 130.996,347.109 128.000,346.155 128.000 C 345.827 128.000,345.370 127.460,345.140 126.800 C 344.910 126.140,344.559 125.600,344.361 125.600 C 344.162 125.600,344.000 124.863,344.000 123.963 C 344.000 122.671,343.834 122.282,343.213 122.119 C 342.781 122.006,342.310 121.528,342.169 121.057 C 342.027 120.586,341.508 119.840,341.016 119.400 C 340.524 118.960,339.996 117.925,339.842 117.100 C 339.689 116.275,339.347 115.597,339.082 115.594 C 338.636 115.589,336.800 111.465,336.800 110.468 C 336.800 110.226,336.464 109.848,336.053 109.629 C 335.550 109.359,335.222 108.587,335.045 107.255 C 334.852 105.799,334.536 105.119,333.840 104.663 C 333.184 104.233,332.817 103.508,332.632 102.272 C 332.452 101.072,331.988 100.128,331.194 99.350 L 330.022 98.200 330.011 90.743 C 330.002 84.476,330.096 83.249,330.600 83.055 C 330.930 82.929,331.200 82.570,331.200 82.258 C 331.200 81.947,331.457 81.196,331.771 80.591 C 332.085 79.985,332.467 78.120,332.620 76.445 C 332.820 74.246,333.106 73.201,333.649 72.684 C 334.062 72.291,334.400 71.616,334.400 71.184 C 334.400 70.753,334.652 70.400,334.961 70.400 C 335.648 70.400,336.400 68.364,336.400 66.502 C 336.400 65.744,336.663 64.646,336.985 64.062 C 339.189 60.064,340.865 44.429,339.200 43.400 C 338.980 43.264,338.800 42.263,338.800 41.176 C 338.800 40.089,338.620 39.200,338.400 39.200 C 338.180 39.200,338.000 38.505,338.000 37.656 C 338.000 34.803,337.518 32.400,336.946 32.400 C 336.589 32.400,336.400 31.916,336.400 31.000 C 336.400 30.230,336.240 29.600,336.045 29.600 C 335.849 29.600,335.571 28.969,335.426 28.198 C 335.258 27.304,334.735 26.480,333.982 25.923 C 333.086 25.261,332.800 24.728,332.800 23.725 C 332.800 22.570,332.668 22.400,331.776 22.400 C 331.213 22.400,330.851 22.240,330.972 22.045 C 331.093 21.850,330.923 21.468,330.596 21.196 C 330.268 20.924,329.997 20.319,329.994 19.851 C 329.986 18.694,329.649 18.315,327.915 17.513 C 327.044 17.111,325.969 16.117,325.318 15.113 C 323.996 13.074,323.734 12.851,322.300 12.539 C 321.695 12.408,321.200 12.073,321.200 11.796 C 321.200 11.223,319.863 10.262,318.442 9.812 C 317.915 9.645,317.105 9.079,316.642 8.553 C 315.400 7.143,310.548 6.435,306.400 7.060 M87.092 41.571 C 86.953 42.102,86.471 42.383,85.545 42.471 C 83.979 42.621,83.091 46.800,84.626 46.800 C 85.122 46.800,85.244 47.056,85.102 47.800 C 84.975 48.465,85.091 48.800,85.448 48.800 C 85.743 48.800,86.094 49.234,86.227 49.765 C 86.434 50.591,86.768 50.760,88.535 50.938 C 92.958 51.385,95.974 52.185,96.599 53.078 C 96.943 53.569,98.125 54.212,99.322 54.560 C 100.485 54.898,101.853 55.618,102.362 56.160 C 102.871 56.701,103.966 57.259,104.795 57.399 C 105.701 57.552,106.748 58.119,107.421 58.822 C 108.037 59.464,109.132 60.101,109.856 60.237 C 111.287 60.505,111.836 60.985,112.057 62.160 C 112.144 62.623,112.804 63.129,113.745 63.455 C 114.594 63.749,116.183 64.631,117.276 65.416 C 118.368 66.201,119.683 67.003,120.197 67.199 C 120.742 67.406,121.346 68.148,121.646 68.977 C 122.113 70.268,122.302 70.400,123.680 70.400 C 124.708 70.400,125.200 70.579,125.200 70.954 C 125.200 71.597,126.687 72.656,128.080 73.006 C 128.656 73.150,129.221 73.719,129.486 74.423 C 129.730 75.069,130.261 75.723,130.665 75.876 C 131.454 76.175,135.600 80.380,135.600 80.882 C 135.600 81.049,136.050 81.298,136.600 81.436 C 137.150 81.574,137.600 81.922,137.600 82.210 C 137.600 82.497,138.654 83.693,139.942 84.866 C 141.230 86.040,142.514 87.450,142.796 88.000 C 143.078 88.550,143.357 89.058,143.415 89.128 C 143.800 89.587,150.757 85.182,152.338 83.478 C 153.547 82.176,153.417 81.963,148.989 78.022 C 147.015 76.265,145.040 74.449,144.600 73.987 C 140.653 69.842,139.855 69.151,138.757 68.931 C 137.995 68.779,137.408 68.347,137.193 67.781 C 136.668 66.401,134.210 64.128,132.620 63.553 C 131.839 63.270,131.200 62.805,131.200 62.520 C 131.200 62.234,130.861 62.000,130.447 62.000 C 130.032 62.000,129.605 61.663,129.498 61.251 C 129.390 60.840,128.559 60.175,127.651 59.774 C 126.743 59.374,126.000 58.814,126.000 58.531 C 126.000 58.247,125.550 57.902,125.000 57.764 C 124.450 57.626,124.000 57.263,124.000 56.957 C 124.000 56.650,123.730 56.400,123.400 56.400 C 123.070 56.400,122.800 56.169,122.800 55.886 C 122.800 55.190,120.933 54.136,119.089 53.790 C 118.258 53.634,117.420 53.211,117.226 52.849 C 117.032 52.486,115.598 51.472,114.038 50.595 C 112.478 49.718,111.201 48.775,111.201 48.500 C 111.200 48.225,110.930 47.977,110.600 47.950 C 110.270 47.923,109.820 47.855,109.600 47.800 C 109.380 47.745,108.750 47.678,108.200 47.650 C 107.613 47.621,107.200 47.359,107.200 47.016 C 107.200 46.678,106.361 46.135,105.200 45.723 C 104.100 45.332,103.200 44.797,103.200 44.533 C 103.200 44.270,102.885 43.962,102.500 43.851 C 101.002 43.416,98.545 42.828,97.400 42.631 C 96.740 42.517,95.901 42.058,95.536 41.612 C 94.554 40.412,87.404 40.378,87.092 41.571 M213.855 92.323 C 211.341 93.085,210.912 93.570,209.980 96.700 C 209.654 97.793,209.242 98.400,208.825 98.400 C 208.186 98.400,207.200 102.816,207.200 105.676 C 207.200 106.477,206.976 106.776,206.305 106.872 C 205.314 107.014,204.866 108.597,204.823 112.100 C 204.806 113.512,204.646 114.000,204.200 114.000 C 203.870 114.000,203.600 114.283,203.600 114.629 C 203.600 114.974,203.330 115.527,203.000 115.857 C 202.670 116.187,202.400 117.074,202.400 117.829 C 202.400 118.736,202.211 119.200,201.842 119.200 C 201.434 119.200,201.207 120.064,201.000 122.400 C 200.808 124.566,200.553 125.600,200.210 125.600 C 199.383 125.600,198.000 131.686,198.000 135.330 C 198.000 137.570,197.896 137.934,197.200 138.116 C 196.517 138.294,196.400 138.128,196.400 136.982 C 196.400 134.824,195.570 131.563,194.961 131.330 C 194.615 131.197,194.400 130.528,194.400 129.581 C 194.400 128.737,194.195 127.921,193.945 127.766 C 193.632 127.572,193.569 126.474,193.742 124.219 C 193.880 122.423,193.834 120.784,193.640 120.576 C 193.355 120.272,192.400 113.693,192.400 112.032 C 192.400 111.794,192.130 111.600,191.800 111.600 C 191.337 111.600,191.200 111.080,191.200 109.321 C 191.200 103.569,190.297 96.000,189.610 96.000 C 188.485 96.000,184.703 97.237,182.652 98.275 L 180.705 99.262 180.866 109.435 C 181.024 119.369,180.790 121.353,179.848 118.069 C 179.648 117.371,179.330 116.800,179.142 116.800 C 178.954 116.800,178.800 116.530,178.800 116.200 C 178.800 115.870,178.530 115.600,178.200 115.600 C 177.867 115.600,177.600 115.244,177.600 114.800 C 177.600 114.340,177.333 114.000,176.973 114.000 C 176.531 114.000,176.420 113.767,176.597 113.210 C 176.913 112.215,175.703 109.600,174.927 109.600 C 174.536 109.600,174.426 109.349,174.590 108.832 C 174.764 108.283,174.601 107.991,174.017 107.805 C 173.568 107.663,173.200 107.378,173.200 107.173 C 173.200 106.968,172.930 106.800,172.600 106.800 C 172.270 106.800,172.000 106.453,172.000 106.029 C 172.000 103.742,169.424 103.867,165.062 106.366 C 162.220 107.994,160.523 111.200,162.504 111.200 C 162.796 111.200,163.244 111.984,163.500 112.942 C 163.756 113.900,164.603 115.447,165.383 116.379 C 166.162 117.312,166.800 118.329,166.800 118.638 C 166.800 118.947,166.980 119.200,167.200 119.200 C 168.052 119.200,169.201 120.865,169.458 122.472 C 169.608 123.412,170.115 124.520,170.605 124.978 C 171.087 125.430,171.697 126.459,171.960 127.265 C 172.223 128.070,172.709 128.833,173.040 128.960 C 173.371 129.087,174.257 130.543,175.011 132.195 C 175.764 133.848,176.623 135.200,176.921 135.200 C 177.294 135.200,177.407 135.572,177.285 136.400 C 177.152 137.310,177.265 137.600,177.755 137.600 C 178.213 137.600,178.400 137.968,178.400 138.869 C 178.400 139.566,178.645 140.421,178.943 140.769 C 180.187 142.213,180.411 143.891,179.334 143.685 C 178.723 143.568,178.431 143.297,178.559 142.963 C 178.672 142.667,178.234 142.051,177.576 141.583 C 176.923 141.118,176.117 140.214,175.787 139.574 C 175.456 138.935,174.758 138.304,174.237 138.173 C 173.715 138.042,172.790 137.416,172.183 136.782 C 171.575 136.147,170.925 135.723,170.739 135.838 C 170.552 135.953,170.400 135.860,170.400 135.632 C 170.400 135.403,169.656 134.837,168.746 134.373 C 167.837 133.909,166.678 133.114,166.172 132.608 C 165.665 132.101,164.339 131.453,163.225 131.168 C 161.735 130.786,161.200 130.459,161.200 129.929 C 161.200 129.525,160.499 128.768,159.600 128.200 C 158.720 127.644,158.000 127.008,158.000 126.785 C 158.000 126.562,157.560 126.213,157.021 126.008 C 156.483 125.804,155.321 125.113,154.438 124.473 C 153.555 123.834,152.240 123.069,151.516 122.774 C 150.792 122.479,150.020 122.025,149.800 121.767 C 148.096 119.762,145.891 121.259,139.889 128.496 C 114.686 158.883,110.568 201.938,129.492 237.200 C 132.676 243.133,137.888 250.722,139.270 251.436 C 140.736 252.194,145.641 252.076,145.908 251.276 C 146.099 250.702,148.000 250.632,148.000 251.200 C 148.000 251.420,147.730 251.600,147.400 251.600 C 147.067 251.600,146.800 251.956,146.800 252.400 C 146.800 252.840,146.620 253.200,146.400 253.200 C 146.180 253.200,146.000 253.538,146.000 253.951 C 146.000 254.411,145.529 254.898,144.790 255.204 C 139.260 257.495,166.299 277.519,182.572 283.185 C 198.650 288.782,221.594 291.055,221.602 287.051 C 221.603 286.583,222.053 285.314,222.602 284.232 C 223.151 283.150,223.600 281.755,223.600 281.132 C 223.600 280.432,223.812 280.000,224.157 280.000 C 224.649 280.000,224.913 279.438,225.476 277.200 C 225.559 276.870,225.737 275.520,225.871 274.200 C 226.010 272.834,226.349 271.662,226.658 271.480 C 226.956 271.304,227.200 270.784,227.200 270.324 C 227.200 269.864,227.503 269.267,227.872 268.997 C 228.415 268.600,228.579 267.610,228.723 263.853 C 228.895 259.337,228.927 259.200,229.807 259.200 C 230.446 259.200,230.789 259.502,230.971 260.226 C 231.128 260.854,231.649 261.398,232.314 261.630 C 232.911 261.838,233.735 262.502,234.144 263.104 C 234.867 264.167,236.349 265.292,240.356 267.817 C 241.419 268.487,242.877 269.531,243.598 270.137 C 244.318 270.742,245.558 271.575,246.353 271.986 C 247.149 272.397,248.027 273.108,248.303 273.567 C 248.580 274.025,249.065 274.400,249.381 274.400 C 249.696 274.400,250.190 274.715,250.477 275.100 C 250.765 275.485,251.865 276.235,252.922 276.767 C 253.979 277.299,255.020 278.064,255.236 278.467 C 256.625 281.063,267.594 275.575,278.264 266.945 C 294.824 253.550,310.931 228.147,311.515 214.500 L 311.691 210.400 309.845 210.400 C 308.535 210.400,308.000 210.239,308.000 209.843 C 308.000 209.021,307.045 208.781,302.709 208.517 C 300.090 208.358,298.800 208.122,298.800 207.804 C 298.800 207.102,297.190 206.488,293.408 205.745 L 290.040 205.083 291.720 203.999 C 292.644 203.403,294.270 202.682,295.333 202.397 C 296.725 202.023,297.366 201.615,297.623 200.939 C 297.905 200.199,298.279 200.000,299.390 200.000 C 300.377 200.000,300.800 199.820,300.800 199.400 C 300.800 199.070,301.070 198.800,301.400 198.800 C 301.730 198.800,302.000 198.446,302.000 198.013 C 302.000 197.506,302.198 197.301,302.553 197.437 C 303.237 197.700,305.907 196.616,306.995 195.635 C 307.438 195.236,309.071 194.177,310.623 193.282 C 314.698 190.933,315.146 189.456,314.418 180.773 C 311.143 141.698,282.979 108.055,243.600 96.176 C 228.911 91.746,219.696 90.552,213.855 92.323 M43.000 99.629 C 41.900 99.831,38.210 99.976,34.800 99.952 C 31.390 99.928,27.679 100.099,26.554 100.333 C 25.429 100.567,22.099 100.866,19.154 100.997 C 12.971 101.272,10.376 101.806,10.101 102.858 C 9.981 103.316,9.379 103.676,8.456 103.843 C 6.305 104.231,5.694 104.661,5.401 105.994 C 5.256 106.655,4.871 107.344,4.546 107.526 C 3.931 107.871,2.848 110.485,2.818 111.700 C 2.808 112.085,2.620 112.400,2.400 112.400 C 2.141 112.400,2.000 117.400,2.000 126.600 C 2.000 134.410,2.156 140.800,2.347 140.800 C 2.538 140.800,2.795 141.551,2.918 142.468 C 3.042 143.389,3.693 144.918,4.371 145.880 C 5.047 146.839,5.600 147.894,5.600 148.224 C 5.600 148.555,5.852 148.922,6.161 149.040 C 6.469 149.159,6.837 149.873,6.979 150.628 C 7.120 151.382,7.408 152.000,7.618 152.000 C 7.828 152.000,8.000 152.245,8.000 152.544 C 8.000 152.843,8.450 153.426,9.000 153.839 C 9.551 154.253,10.000 154.996,10.000 155.495 C 10.000 156.194,10.228 156.400,11.000 156.400 C 11.550 156.400,12.000 156.615,12.000 156.878 C 12.000 158.561,16.050 162.273,20.133 164.333 C 21.369 164.956,22.746 165.932,23.195 166.502 C 23.643 167.072,24.548 167.657,25.205 167.801 C 26.007 167.977,26.400 168.307,26.400 168.805 C 26.400 169.223,26.793 169.670,27.300 169.831 C 29.076 170.392,34.000 173.366,34.000 173.878 C 34.000 174.165,34.360 174.400,34.800 174.400 C 35.240 174.400,35.600 174.648,35.600 174.951 C 35.600 175.255,36.178 175.742,36.885 176.035 C 38.043 176.515,43.600 181.757,43.600 182.370 C 43.600 182.509,43.960 182.930,44.400 183.307 C 44.840 183.684,45.200 184.345,45.200 184.775 C 45.200 185.206,45.630 186.023,46.156 186.590 C 47.275 187.798,47.743 188.953,48.387 192.100 C 48.750 193.875,49.022 194.400,49.579 194.400 C 50.200 194.400,50.326 194.858,50.491 197.700 C 50.691 201.146,51.353 203.200,52.264 203.200 C 52.677 203.200,52.807 204.188,52.830 207.500 C 52.862 212.203,53.030 213.648,53.583 213.990 C 53.783 214.113,54.066 215.561,54.213 217.207 C 54.374 219.016,54.701 220.376,55.039 220.644 C 55.425 220.950,55.600 221.967,55.600 223.901 C 55.600 226.033,55.745 226.770,56.200 226.945 C 56.530 227.071,56.800 227.519,56.800 227.938 C 56.800 228.358,57.062 228.919,57.382 229.185 C 57.702 229.451,58.430 230.463,58.999 231.434 C 59.568 232.405,60.290 233.200,60.603 233.200 C 60.916 233.200,61.383 233.605,61.642 234.100 C 61.900 234.595,62.852 235.813,63.756 236.808 C 64.660 237.802,65.964 239.291,66.653 240.117 C 69.146 243.105,73.090 245.200,76.224 245.200 C 77.325 245.200,77.696 245.401,77.981 246.149 C 78.380 247.199,79.134 247.463,83.184 247.971 C 85.103 248.212,86.165 248.565,86.757 249.157 C 87.221 249.621,87.735 250.010,87.900 250.022 C 91.367 250.271,94.603 250.809,94.718 251.155 C 94.806 251.418,95.884 251.600,97.353 251.600 C 98.744 251.600,100.050 251.810,100.317 252.077 C 100.586 252.346,102.383 252.629,104.440 252.728 L 108.086 252.902 107.808 251.951 C 107.656 251.428,106.172 248.120,104.511 244.600 C 84.771 202.759,88.729 155.124,114.963 118.809 C 123.575 106.887,123.485 107.690,116.300 106.975 C 114.482 106.794,113.600 106.536,113.600 106.184 C 113.600 105.524,111.821 104.946,108.000 104.367 C 106.350 104.117,103.891 103.410,102.535 102.797 C 99.159 101.270,99.019 101.258,81.400 100.987 C 72.598 100.851,64.754 100.549,63.400 100.294 C 62.080 100.045,59.470 99.781,57.600 99.708 C 47.517 99.310,44.818 99.295,43.000 99.629 M238.880 107.245 C 241.981 107.897,250.800 111.602,250.800 112.253 C 250.800 112.554,250.973 112.800,251.185 112.800 C 252.266 112.800,256.000 114.528,256.000 115.029 C 256.000 115.343,256.270 115.600,256.600 115.600 C 256.930 115.600,257.200 115.870,257.200 116.200 C 257.200 116.530,257.551 116.800,257.980 116.800 C 258.409 116.800,258.904 117.036,259.080 117.323 C 259.256 117.611,259.976 118.080,260.681 118.364 C 261.385 118.648,262.234 119.298,262.568 119.807 C 262.901 120.316,264.665 121.708,266.487 122.901 C 269.713 125.012,272.400 127.381,272.400 128.115 C 272.400 128.711,274.822 130.790,275.801 131.036 C 276.481 131.207,276.769 131.644,276.951 132.784 C 277.117 133.825,277.438 134.369,277.966 134.507 C 278.825 134.732,279.890 137.699,279.196 137.933 C 278.978 138.007,278.800 138.609,278.800 139.271 C 278.800 140.117,278.574 140.534,278.040 140.674 C 277.492 140.817,277.204 141.380,277.007 142.695 C 276.562 145.660,276.181 146.000,273.304 146.000 C 271.901 146.000,270.800 146.176,270.800 146.400 C 270.800 147.070,269.512 146.844,267.200 145.770 C 264.683 144.600,263.200 143.353,263.200 142.409 C 263.200 141.754,259.789 139.000,255.500 136.193 C 254.235 135.364,253.200 134.442,253.200 134.143 C 253.200 133.845,252.840 133.600,252.400 133.600 C 251.867 133.600,251.600 133.333,251.600 132.800 C 251.600 132.267,251.333 132.000,250.800 132.000 C 250.360 132.000,249.640 131.640,249.200 131.200 C 248.760 130.760,248.161 130.400,247.870 130.400 C 247.578 130.400,246.928 129.962,246.424 129.426 C 245.921 128.890,244.359 127.963,242.954 127.366 C 241.549 126.769,240.400 126.037,240.400 125.740 C 240.400 125.443,240.059 125.200,239.642 125.200 C 238.769 125.200,230.859 122.135,230.077 121.493 C 229.789 121.257,229.303 120.463,228.996 119.729 C 228.690 118.995,227.995 118.226,227.452 118.020 C 225.603 117.317,225.406 112.478,227.126 110.047 C 227.497 109.523,228.016 108.718,228.281 108.259 C 229.141 106.764,234.259 106.275,238.880 107.245 M333.995 229.912 C 329.306 242.477,325.145 250.833,319.142 259.738 C 316.644 263.444,314.073 267.280,313.428 268.261 L 312.257 270.046 317.628 275.467 C 321.174 279.045,323.606 281.163,324.781 281.699 L 326.563 282.509 327.170 281.555 C 327.505 281.030,328.792 279.610,330.031 278.400 C 331.270 277.190,332.526 275.525,332.822 274.700 C 333.118 273.875,333.505 273.200,333.680 273.200 C 333.856 273.200,334.000 272.930,334.000 272.600 C 334.000 272.270,334.178 272.000,334.395 272.000 C 335.177 272.000,336.400 270.604,336.400 269.711 C 336.400 269.210,336.750 268.450,337.178 268.022 C 337.605 267.595,338.075 266.605,338.222 265.822 C 338.376 265.003,338.725 264.400,339.045 264.400 C 339.413 264.400,339.600 263.928,339.600 263.000 C 339.600 262.230,339.780 261.600,340.000 261.600 C 340.220 261.600,340.400 261.082,340.400 260.449 C 340.400 259.816,340.651 259.089,340.959 258.834 C 341.271 258.575,341.422 258.006,341.301 257.544 C 341.176 257.065,341.320 256.573,341.643 256.374 C 342.564 255.804,342.445 238.226,341.509 236.600 C 341.129 235.940,340.517 234.725,340.148 233.900 C 339.780 233.075,339.256 232.400,338.984 232.400 C 338.712 232.400,338.375 231.795,338.237 231.055 C 337.624 227.789,335.046 227.094,333.995 229.912 M127.464 281.554 C 126.879 282.629,126.399 283.844,126.398 284.254 C 126.396 284.664,126.081 285.540,125.698 286.200 C 124.803 287.738,124.625 304.409,125.500 304.700 C 125.775 304.792,126.000 305.383,126.000 306.013 C 126.000 306.644,126.241 307.304,126.535 307.480 C 126.830 307.656,127.544 308.843,128.122 310.119 C 128.721 311.440,129.944 313.161,130.966 314.119 C 131.952 315.043,133.005 316.282,133.307 316.871 C 133.952 318.132,137.029 320.800,137.838 320.800 C 138.147 320.800,138.400 321.160,138.400 321.600 C 138.400 322.041,138.667 322.400,138.995 322.400 C 139.322 322.400,139.852 323.030,140.174 323.800 C 140.657 324.956,140.967 325.200,141.951 325.200 C 142.607 325.200,143.392 325.449,143.697 325.754 C 144.520 326.577,147.213 327.849,148.757 328.144 C 149.503 328.286,150.313 328.671,150.557 329.000 C 151.147 329.796,155.377 331.262,157.486 331.402 C 158.413 331.464,159.475 331.818,159.845 332.188 C 160.216 332.559,160.852 332.775,161.260 332.669 C 161.667 332.562,162.000 332.620,162.000 332.798 C 162.000 335.443,192.381 334.689,193.077 332.026 C 193.198 331.566,193.669 331.308,194.432 331.287 C 196.189 331.237,197.223 330.834,199.136 329.453 C 201.817 327.517,206.185 323.570,206.329 322.954 C 206.400 322.649,206.703 322.400,207.002 322.400 C 207.301 322.400,207.660 322.040,207.800 321.600 C 207.940 321.160,208.222 320.800,208.427 320.800 C 208.632 320.800,208.800 320.369,208.800 319.843 C 208.800 319.316,209.035 318.795,209.323 318.685 C 210.102 318.386,211.280 315.194,210.676 315.016 C 210.414 314.939,207.860 314.571,205.000 314.200 C 175.855 310.413,153.377 300.873,134.800 284.407 C 128.681 278.983,128.831 279.041,127.464 281.554 M292.200 288.756 C 291.540 289.169,290.137 290.398,289.082 291.486 L 287.164 293.464 289.482 293.975 C 290.757 294.256,292.322 294.647,292.960 294.843 C 294.304 295.257,296.371 295.295,298.487 294.945 C 300.351 294.637,300.137 294.114,296.671 290.500 C 294.012 287.728,293.905 287.686,292.200 288.756 " stroke="none" fill="#5494fc" fill-rule="evenodd"></path></g></svg>